<svg xmlns="http://www.w3.org/2000/svg" xmlns:xlink="http://www.w3.org/1999/xlink" viewBox="0 0 195 400"><defs><linearGradient id="Degradado_sin_nombre_48" x1=".86" y1="68.91" x2=".86" y2="49.05" gradientTransform="matrix(1, 0, 0, 1, 0, 0)" gradientUnits="userSpaceOnUse"><stop offset="0" stop-color="#6d6f71"/><stop offset=".01" stop-color="#7b7d7f"/><stop offset=".05" stop-color="#9b9c9e"/><stop offset=".08" stop-color="#b6b7b8"/><stop offset=".12" stop-color="#cccdce"/><stop offset=".17" stop-color="#ddddde"/><stop offset=".23" stop-color="#e9e9ea"/><stop offset=".32" stop-color="#f0f0f1"/><stop offset=".55" stop-color="#f2f2f3"/><stop offset=".74" stop-color="#f0f0f1"/><stop offset=".81" stop-color="#e9e9ea"/><stop offset=".86" stop-color="#ddddde"/><stop offset=".9" stop-color="#cccdce"/><stop offset=".93" stop-color="#b6b7b8"/><stop offset=".96" stop-color="#9b9c9e"/><stop offset=".99" stop-color="#7b7d7f"/><stop offset="1" stop-color="#6d6f71"/></linearGradient><linearGradient id="Degradado_sin_nombre_48-2" x1="-.25" y1="58.98" x2="1.97" y2="58.98" xlink:href="#Degradado_sin_nombre_48"/><linearGradient id="Degradado_sin_nombre_48-3" x1=".98" y1="123.35" x2=".98" y2="89.5" xlink:href="#Degradado_sin_nombre_48"/><linearGradient id="Degradado_sin_nombre_48-4" x1="-.25" y1="106.43" x2="2.2" y2="106.43" xlink:href="#Degradado_sin_nombre_48"/><linearGradient id="Degradado_sin_nombre_48-5" x1=".98" y1="166.16" x2=".98" y2="132.31" xlink:href="#Degradado_sin_nombre_48"/><linearGradient id="Degradado_sin_nombre_48-6" x1="-.25" y1="149.24" x2="2.2" y2="149.24" xlink:href="#Degradado_sin_nombre_48"/><linearGradient id="Degradado_sin_nombre_48-7" x1="194.14" y1="153.09" x2="194.14" y2="102.58" xlink:href="#Degradado_sin_nombre_48"/><linearGradient id="Degradado_sin_nombre_48-8" x1="193.28" y1="127.83" x2="195" y2="127.83" xlink:href="#Degradado_sin_nombre_48"/><linearGradient id="linear-gradient" x1="-626.47" y1="-585.14" x2="-626.47" y2="-736.79" gradientTransform="translate(723.25 795.09)" gradientUnits="userSpaceOnUse"><stop offset=".04" stop-color="#fd606d"/><stop offset=".19" stop-color="#fd726d"/><stop offset=".35" stop-color="#fe806e"/><stop offset=".49" stop-color="#ff866f"/><stop offset=".76" stop-color="#ffa470"/><stop offset="1" stop-color="#ffbc71"/></linearGradient><linearGradient id="linear-gradient-2" x1="-418.93" y1="-726.73" x2="-418.93" y2="-744.85" gradientTransform="translate(591.1 1078.01)" gradientUnits="userSpaceOnUse"><stop offset="0" stop-color="#ee6934"/><stop offset=".39" stop-color="#f26646"/><stop offset="1" stop-color="#fd606d"/></linearGradient><clipPath id="clippath-1"><path class="cls-1" d="M165.06 8.06H146.2c-1.28 0-2.32 1.04-2.32 2.32v6.51c0 3.72-3.4 6.74-7.59 6.74H58.71c-4.19 0-7.59-3.02-7.59-6.74v-6.51c0-1.28-1.04-2.32-2.32-2.32H29.94c-11 0-19.91 8.91-19.91 19.91v341.09c0 11 8.91 19.91 19.91 19.91h135.12c11 0 19.91-8.91 19.91-19.91V27.98c0-11-8.91-19.91-19.91-19.91Z"/></clipPath><clipPath id="clippath-2"><path d="M185.1 27.98v341.08c0 11.05-8.99 20.04-20.04 20.04H29.94c-11.05 0-20.04-8.99-20.04-20.04V27.98c0-11.05 8.99-20.04 20.04-20.04H48.8c1.35 0 2.45 1.1 2.45 2.45v6.51c0 3.65 3.35 6.62 7.46 6.62h77.58c4.11 0 7.46-2.97 7.46-6.62v-6.51c0-1.35 1.1-2.45 2.45-2.45h18.86c11.05 0 20.04 8.99 20.04 20.04Z" style="clip-path:url(#clippath-1);fill:none"/></clipPath><clipPath id="clippath-3"><path d="M184.84 27.98c0-10.91-8.87-19.79-19.79-19.79h-18.86c-1.21 0-2.2.99-2.2 2.2v6.51c0 3.79-3.46 6.87-7.71 6.87H58.71c-4.25 0-7.71-3.08-7.71-6.87v-6.51c0-1.21-.99-2.2-2.2-2.2H29.94c-10.91 0-19.79 8.88-19.79 19.79v341.08c0 10.91 8.87 19.79 19.79 19.79h135.12c10.91 0 19.79-8.88 19.79-19.79V27.98Z" style="clip-path:url(#clippath-2);fill:none"/></clipPath><clipPath id="clippath-4"><path class="cls-1" d="M24.7 194.32h16.2v12.3H24.7z"/></clipPath><clipPath id="clippath-5"><circle class="cls-1" cx="157.89" cy="371.63" r="4.41"/></clipPath><style>.cls-1,.cls-11,.cls-8,.cls-9{fill:none}.cls-9{stroke-width:.75px}.cls-8{stroke-linejoin:round}.cls-8,.cls-9{stroke-linecap:round}.cls-11,.cls-8{stroke:#fff}.cls-11,.cls-9{stroke-miterlimit:10}.cls-20{fill:#fffcf2}.cls-21{fill:#fff}.cls-24{fill:#a1a1a1}.cls-27{fill:#d0d2d3}.cls-29{fill:#da1d30}.cls-30{fill:#d82f28}.cls-32{fill:#130179}.cls-38{fill:#606060}.cls-11,.cls-8{stroke-width:.5px}.cls-9{stroke:#4a4a4a}</style></defs><g style="isolation:isolate"><g id="Layer_1"><path d="M165.06 0H29.94C14.52 0 1.97 12.55 1.97 27.98v344.08c0 15.43 12.55 27.98 27.98 27.98h135.11c15.43 0 27.98-12.55 27.98-27.98V27.98C193.04 12.55 180.49 0 165.06 0Zm20.04 372.06c0 11.05-8.99 20.04-20.04 20.04H29.94c-11.05 0-20.04-8.99-20.04-20.04V27.98c0-11.05 8.99-20.04 20.04-20.04H48.8c1.35 0 2.45 1.1 2.45 2.45v6.51c0 3.65 3.35 6.62 7.46 6.62h77.58c4.11 0 7.46-2.97 7.46-6.62v-6.51c0-1.35 1.1-2.45 2.45-2.45h18.86c11.05 0 20.04 8.99 20.04 20.04v344.08Z" style="fill:#ccc"/><path d="M113.77 12.55H81.23c-.83 0-1.51.68-1.51 1.51s.68 1.51 1.51 1.51h32.54c.83 0 1.51-.68 1.51-1.51s-.68-1.51-1.51-1.51Z" style="fill:#444"/><path d="M-.25 51.23v15.51c0 1.2.97 2.17 2.17 2.17h.04V49.05h-.04c-1.2 0-2.17.97-2.17 2.17Z" style="fill:url(#Degradado_sin_nombre_48)"/><path d="M-.25 51.23v15.51c0 1.2.97 2.17 2.17 2.17h.04V49.05h-.04c-1.2 0-2.17.97-2.17 2.17Z" style="fill:url(#Degradado_sin_nombre_48-2);mix-blend-mode:multiply;opacity:.5"/><path d="M-.25 91.74v29.37c0 1.24 1 2.24 2.24 2.24h.21V89.5h-.21c-1.24 0-2.24 1-2.24 2.24Z" style="fill:url(#Degradado_sin_nombre_48-3)"/><path d="M-.25 91.74v29.37c0 1.24 1 2.24 2.24 2.24h.21V89.5h-.21c-1.24 0-2.24 1-2.24 2.24Z" style="fill:url(#Degradado_sin_nombre_48-4);mix-blend-mode:multiply;opacity:.5"/><path d="M-.25 134.55v29.37c0 1.24 1 2.24 2.24 2.24h.21v-33.85h-.21c-1.24 0-2.24 1-2.24 2.24Z" style="fill:url(#Degradado_sin_nombre_48-5)"/><path d="M-.25 134.55v29.37c0 1.24 1 2.24 2.24 2.24h.21v-33.85h-.21c-1.24 0-2.24 1-2.24 2.24Z" style="fill:url(#Degradado_sin_nombre_48-6);mix-blend-mode:multiply;opacity:.5"/><path d="M189.25 27.98v341.08c0 13.34-10.85 24.19-24.19 24.19H29.94c-13.34 0-24.19-10.85-24.19-24.19V27.98c0-13.34 10.85-24.19 24.19-24.19h135.12c13.34 0 24.19 10.85 24.19 24.19ZM165.06 8.07H146.2c-1.28 0-2.32 1.04-2.32 2.32v6.51c0 3.72-3.4 6.74-7.59 6.74H58.71c-4.19 0-7.59-3.02-7.59-6.74v-6.51c0-1.28-1.04-2.32-2.32-2.32H29.94c-11 0-19.91 8.91-19.91 19.91v341.08c0 11 8.91 19.91 19.91 19.91h135.12c11 0 19.91-8.91 19.91-19.91V27.98c0-11-8.91-19.91-19.91-19.91Zm20.04 19.91v341.08c0 11.05-8.99 20.04-20.04 20.04H29.94c-11.05 0-20.04-8.99-20.04-20.04V27.98c0-11.05 8.99-20.04 20.04-20.04H48.8c1.35 0 2.45 1.1 2.45 2.45v6.51c0 3.65 3.35 6.62 7.46 6.62h77.58c4.11 0 7.46-2.97 7.46-6.62v-6.51c0-1.35 1.1-2.45 2.45-2.45h18.86c11.05 0 20.04 8.99 20.04 20.04Zm-.25 0c0-10.91-8.87-19.79-19.79-19.79H146.2c-1.21 0-2.2.99-2.2 2.2v6.51c0 3.79-3.46 6.87-7.71 6.87H58.71c-4.25 0-7.71-3.08-7.71-6.87v-6.51c0-1.21-.99-2.2-2.2-2.2H29.94c-10.91 0-19.79 8.88-19.79 19.79v341.08c0 10.91 8.87 19.79 19.79 19.79h135.12c10.91 0 19.79-8.88 19.79-19.79V27.98Z" style="fill:#09090c"/><path d="M193.28 102.58v50.51c.95 0 1.72-.99 1.72-2.21v-46.09c0-1.22-.77-2.21-1.72-2.21Z" style="fill:url(#Degradado_sin_nombre_48-7)"/><path d="M193.28 102.58v50.51c.95 0 1.72-.99 1.72-2.21v-46.09c0-1.22-.77-2.21-1.72-2.21Z" style="mix-blend-mode:multiply;opacity:.5;fill:url(#Degradado_sin_nombre_48-8)"/><g style="clip-path:url(#clippath-3)"><path style="fill:#f0f0f0" d="M6.94 37.68h181.12v332.34H6.94z"/><path class="cls-21" d="M6.94 358.42h181.12v36.1H6.94z"/><rect class="cls-21" x="15.03" y="302.51" width="163.76" height="24.39" rx="3" ry="3"/><rect class="cls-21" x="15.03" y="331.15" width="163.76" height="24.39" rx="3" ry="3"/><rect class="cls-21" x="15.03" y="245.24" width="163.76" height="24.39" rx="3" ry="3"/><rect class="cls-21" x="15.03" y="273.88" width="163.76" height="24.39" rx="3" ry="3"/><rect class="cls-21" x="15.03" y="187.98" width="163.76" height="24.39" rx="3" ry="3"/><rect class="cls-21" x="15.03" y="216.61" width="163.76" height="24.39" rx="3" ry="3"/><path class="cls-21" d="M6.94 2.52h181.12v105.51H6.94z"/><rect class="cls-38" x="31.7" y="380.89" width="10.77" height="2.41" rx="1.2" ry="1.2"/><rect class="cls-24" x="151.53" y="380.89" width="12.69" height="2.41" rx="1.2" ry="1.2"/><rect class="cls-24" x="87.95" y="380.89" width="19.14" height="2.41" rx="1.2" ry="1.2"/><path class="cls-30" d="M23.94 279.55h16.2v12.3h-16.2z"/><path style="fill:#fbff5e" d="m33.38 286.25.81 2.5-2.13-1.54-2.13 1.54.81-2.5-2.12-1.55h2.63l.81-2.5.82 2.5h2.62l-2.12 1.55z"/><path class="cls-30" d="M35.81 307.95h5.4v12.3h-5.4z"/><path class="cls-20" d="M30.41 307.95h5.4v12.3h-5.4z"/><path style="fill:#00267e" d="M25.01 307.95h5.4v12.3h-5.4z"/><path style="fill:#f09d4b" d="M24.42 251.14h16.2v4.1h-16.2z"/><path class="cls-20" d="M24.42 255.24h16.2v4.1h-16.2z"/><path style="fill:#3f8427" d="M24.42 259.34h16.2v4.1h-16.2z"/><path class="cls-32" d="M32.52 255.45c-1.02 0-1.85.82-1.85 1.84s.83 1.85 1.85 1.85 1.85-.83 1.85-1.85-.83-1.84-1.85-1.84m0 .18-.05.93.05.53.05-.53-.05-.93h.14s.03.09.08.09c.04 0 .07-.03.07-.07.05 0 .09.02.14.03l-.28.88-.09.52.18-.5.2-.91s.09.03.13.04v.03c0 .04.03.08.08.08.03 0 .06-.02.07-.05.04.02.08.04.12.07l-.5.78-.22.49.31-.43.42-.82s.08.05.12.07c-.01.01-.02.03-.02.05 0 .04.03.08.08.08.02 0 .05 0 .06-.03.04.03.07.06.1.1l-.69.62-.34.41.41-.34.62-.69s.06.07.09.1c-.02.01-.03.04-.03.06 0 .04.03.08.07.08.02 0 .03 0 .05-.01.03.04.05.08.07.12l-.82.42-.43.31.48-.22.78-.51s.05.09.07.13c-.03.01-.05.04-.05.07 0 .04.03.08.07.08h.03c.01.04.03.09.04.13l-.91.19-.5.18.52-.09.88-.28.03.13c-.04 0-.07.03-.07.08s.04.08.08.08 0 .09 0 .14l-.93-.04-.53.05.53.05.93-.05v.14s-.08.04-.08.08.03.07.07.08c0 .05-.02.09-.03.13l-.32-.1-.57-.18-.52-.09.5.18.91.19s-.02.09-.04.13h-.03s-.08.03-.08.07v.03s.01.02.02.03h.02c-.02.05-.04.1-.07.14l-.78-.5-.48-.22.25.18.18.13.82.42s-.05.08-.08.12c-.01 0-.03-.01-.04-.01-.04 0-.08.03-.08.07 0 .02 0 .05.03.06-.03.03-.06.07-.09.1l-.62-.69-.41-.34.34.41.69.62s-.06.06-.1.09a.076.076 0 0 0-.05-.02c-.04 0-.08.04-.08.08v.03c-.04.02-.08.05-.12.08l-.42-.82-.31-.44.22.48.5.78-.12.06a.075.075 0 0 0-.07-.05c-.04 0-.08.04-.08.08v.03c-.04.01-.09.03-.13.04l-.2-.91-.18-.49.09.52.28.88-.14.03c0-.03-.04-.06-.07-.06-.04 0-.08.03-.08.07s-.09.02-.14.02l.05-.93-.05-.53-.05.53.05.93h-.14s-.03-.08-.08-.08c-.04 0-.07.03-.07.06-.05 0-.09-.02-.13-.03l.28-.88.09-.52-.18.49-.19.91s-.09-.02-.13-.04v-.03c0-.04-.03-.08-.07-.08-.03 0-.06.02-.07.05l-.12-.06.5-.78.22-.48-.31.43-.42.83s-.08-.05-.12-.08c0 0 .01-.02.01-.04 0-.04-.03-.08-.07-.08-.03 0-.05.01-.06.03a.902.902 0 0 1-.1-.09l.69-.62.34-.41-.41.34-.62.69-.1-.1c.02-.01.03-.04.03-.06 0-.04-.03-.07-.08-.07-.02 0-.03 0-.05.01-.03-.04-.05-.08-.07-.12l.83-.42.43-.3-.48.22-.78.5-.06-.12c.03 0 .05-.04.05-.07 0-.04-.03-.08-.08-.08h-.03c-.01-.04-.03-.09-.04-.13l.91-.19.5-.18-.53.09-.88.28-.03-.14c.04 0 .07-.03.07-.07 0-.04-.03-.08-.08-.08s0-.09 0-.14l.93.05.53-.05-.53-.05-.93.04v-.14h.01s.08-.03.08-.08c0-.04-.03-.07-.07-.08 0-.04.02-.09.03-.13l.88.28.53.09-.5-.18-.91-.19s.03-.09.04-.13h.03c.04 0 .08-.03.08-.08 0-.03-.02-.06-.05-.07.02-.04.04-.09.06-.13l.78.51.48.22-.43-.31-.83-.42s.05-.08.08-.12c.01.01.03.02.05.02.04 0 .08-.03.08-.08 0-.02-.01-.04-.03-.06.03-.03.06-.07.09-.1l.62.69.41.34-.34-.41-.69-.62s.07-.06.1-.09c.01.02.03.03.06.03.04 0 .08-.03.08-.08 0-.02 0-.03-.02-.05.04-.02.08-.05.12-.07l.42.82.31.43-.22-.48-.5-.78s.08-.05.12-.07c.01.03.04.05.07.05.04 0 .08-.03.08-.07v-.03c.04-.02.09-.03.13-.04l.2.91.18.5-.09-.52-.28-.88.13-.03c0 .04.04.07.07.07.04 0 .08-.03.08-.08s.09-.01.14-.01"/><path class="cls-21" d="M32.52 257.01c.15 0 .27.13.27.27s-.12.28-.27.28-.28-.13-.28-.28.12-.27.28-.27"/><path class="cls-32" d="M32.52 257.08c.12 0 .21.09.21.21s-.1.22-.21.22-.22-.1-.22-.22.1-.21.22-.21"/><path style="fill:#da4042" d="M23.94 336.36h16.2v4.1h-16.2z"/><path class="cls-20" d="M23.94 340.46h16.2v4.1h-16.2z"/><path style="fill:#479ed8" d="M23.94 344.56h16.2v4.1h-16.2z"/><path class="cls-29" d="M24.68 222.73h16.2v12.3h-16.2z"/><path class="cls-21" d="M29.45 225.81c1.7 0 3.08 1.38 3.08 3.07s-1.38 3.07-3.08 3.07-3.07-1.38-3.07-3.07 1.38-3.07 3.07-3.07"/><path class="cls-29" d="M30.21 226.42c1.36 0 2.46 1.1 2.46 2.46s-1.1 2.46-2.46 2.46-2.46-1.1-2.46-2.46 1.1-2.46 2.46-2.46"/><path class="cls-21" d="m32.04 228.88 1.46.48.24-.74-1.7.26z"/><path class="cls-21" d="m32.04 228.88 1.46-.47.24.73-1.7-.26z"/><path class="cls-21" d="M33.11 227.42v1.54h.76l-.76-1.54z"/><path class="cls-21" d="m33.11 227.42.9 1.24-.62.45-.28-1.69z"/><path class="cls-21" d="m33.11 230.35.9-1.25-.62-.45-.28 1.7z"/><path class="cls-21" d="M33.11 230.35v-1.54h.76l-.76 1.54z"/><path class="cls-21" d="m34.82 227.98-1.46.47.24.73 1.22-1.2z"/><path class="cls-21" d="m34.82 227.98-.9 1.24-.62-.45 1.52-.79z"/><path class="cls-21" d="m34.82 229.79-.9-1.25-.62.45 1.52.8z"/><path class="cls-21" d="m34.82 229.79-1.46-.48.24-.73 1.22 1.21z"/><g style="clip-path:url(#clippath-4)" id="COSTA_RICA"><path style="fill:#1f2a78" d="M24.7 194.32h16.2v12.3H24.7z"/><path class="cls-20" d="M24.7 196.37h16.2v8.2H24.7z"/><path style="fill:#aa2335" d="M24.7 198.42h16.2v4.1H24.7z"/></g><rect class="cls-27" x="47.58" y="198.52" width="26.89" height="5.14" rx="2.57" ry="2.57"/><rect class="cls-27" x="47.58" y="227.21" width="26.89" height="5.14" rx="2.57" ry="2.57"/><rect class="cls-27" x="47.58" y="254.99" width="26.89" height="5.14" rx="2.57" ry="2.57"/><rect class="cls-27" x="47.58" y="283.61" width="26.89" height="5.14" rx="2.57" ry="2.57"/><rect class="cls-27" x="47.58" y="312.22" width="26.89" height="5.14" rx="2.57" ry="2.57"/><rect class="cls-27" x="47.58" y="340.84" width="26.89" height="5.14" rx="2.57" ry="2.57"/><rect x="80.05" y="53.27" width="33.46" height="163" rx="3" ry="3" transform="translate(231.54 37.99) rotate(90)" style="fill:url(#linear-gradient)"/><path class="cls-8" d="M24.89 142.27v-2.89s3.6-1.48 5.79-.78l1.41.71s.71.35 2.82.42c0 0 2.3-.14 2.26.92-.02.68-4.02 1.13-4.02 1.13s4.85-.64 7.86-.98c2.12-.24 2.59-.4 2.73.34.16.85-.52.89-1.69 1.2-2.94.76-8.82 2.12-8.82 2.12l-5.79-2.05-2.54-.14Z"/><circle class="cls-11" cx="36.81" cy="127.51" r="1.69"/><path class="cls-21" d="M39.1 126.73h.82c.28 0 .5-.21.5-.47s-.22-.47-.5-.47h-1.58l.76.93ZM39.1 128.28h.82c.28 0 .5.21.5.47s-.22.47-.5.47h-1.58l.76-.93ZM39.18 127.06h.94c.25 0 .45.2.45.45s-.2.45-.45.45h-.94v-.89Z"/><circle class="cls-11" cx="31.36" cy="131.74" r="1.69"/><path class="cls-21" d="M33.65 130.96h.82c.28 0 .5-.21.5-.47s-.22-.47-.5-.47h-1.58l.76.93ZM33.65 132.51h.82c.28 0 .5.21.5.47s-.22.47-.5.47h-1.58l.76-.93ZM33.73 131.29h.94c.25 0 .45.2.45.45s-.2.45-.45.45h-.94v-.89Z"/><circle class="cls-11" cx="36.81" cy="136.11" r="1.69"/><path class="cls-21" d="M39.1 135.34h.82c.28 0 .5-.21.5-.47s-.22-.47-.5-.47h-1.58l.76.93ZM39.1 136.89h.82c.28 0 .5.21.5.47s-.22.47-.5.47h-1.58l.76-.93ZM39.19 135.67h.94c.25 0 .45.2.45.45s-.2.45-.45.45h-.94v-.89Z"/><rect class="cls-21" x="53.3" y="128.92" width="86.96" height="4.66" rx="2.33" ry="2.33"/><rect class="cls-21" x="53.3" y="137.25" width="86.96" height="4.66" rx="2.33" ry="2.33"/><rect class="cls-27" x="76.89" y="95.33" width="40.57" height="5.14" rx="2.57" ry="2.57"/><rect class="cls-27" x="14.83" y="49.38" width="79.53" height="10.32" rx="4.88" ry="4.88"/><rect class="cls-27" x="136.56" y="95.34" width="31.94" height="5.14" rx="2.28" ry="2.28"/><rect x="15.62" y="65.85" width="164.07" height="15.93" rx="4.79" ry="4.79" style="fill:#dededf"/><rect x="144.68" y="30.72" width="34.26" height="11.66" rx="1.45" ry="1.45" style="stroke:#dededf;stroke-miterlimit:10;stroke-width:.75px;fill:none"/><rect class="cls-27" x="160.08" y="33.98" width="4.2" height="5.51" rx="1.85" ry="1.85"/><rect class="cls-27" x="166.39" y="33.98" width="4.2" height="5.51" rx="1.85" ry="1.85"/><rect class="cls-27" x="149.98" y="33.98" width="7.77" height="3.69" rx="1.85" ry="1.85"/><rect class="cls-27" x="153.86" y="25.16" width="21.94" height="3.09" rx="1.55" ry="1.55"/><circle cx="148.1" cy="26.65" r="2.19" style="stroke:#d0d2d3;stroke-miterlimit:10;stroke-width:.75px;fill:none"/><path class="cls-27" d="M151.06 25.65h1.06c.36 0 .65-.27.65-.6 0-.33-.29-.6-.65-.6h-2.04l.98 1.21ZM151.06 27.65h1.06c.36 0 .65.27.65.6 0 .33-.29.6-.65.6h-2.04l.98-1.21ZM151.16 26.07h1.21a.58.58 0 0 1 0 1.16h-1.21v-1.15Z"/><path class="cls-38" d="M33.25 366.84h7.62l.91 2.32c.36.91-.31 1.89-1.29 1.89-.79 0-1.42-.66-1.38-1.46l.04-.83h-.71v1c-.02.71-.6 1.29-1.31 1.29-.73 0-1.31-.6-1.3-1.33l.02-.96h-.64l-.1 1.03c-.07.71-.66 1.25-1.37 1.25-.94 0-1.61-.92-1.31-1.81l.8-2.4ZM33.32 372.3h1.16v2.11c0 .2.17.37.37.37h4.57c.2 0 .37-.17.37-.37v-2.11h1.05v3.24c0 .5-.4.9-.9.9h-5.73c-.5 0-.9-.4-.9-.9v-3.24Z"/><rect class="cls-24" x="92.64" y="368.79" width="1.39" height=".8" rx=".13" ry=".13"/><rect class="cls-24" x="92.64" y="369.94" width="1.39" height=".8" rx=".13" ry=".13"/><rect class="cls-24" x="92.64" y="372.82" width="1.39" height=".8" rx=".13" ry=".13"/><rect class="cls-24" x="92.64" y="373.92" width="1.39" height=".8" rx=".13" ry=".13"/><circle class="cls-24" cx="93.23" cy="371.78" r=".65"/><rect class="cls-24" x="101.14" y="368.79" width="1.39" height=".8" rx=".13" ry=".13"/><rect class="cls-24" x="101.14" y="369.94" width="1.39" height=".8" rx=".13" ry=".13"/><rect class="cls-24" x="101.14" y="372.82" width="1.39" height=".8" rx=".13" ry=".13"/><rect class="cls-24" x="101.14" y="373.92" width="1.39" height=".8" rx=".13" ry=".13"/><circle class="cls-24" cx="101.72" cy="371.78" r=".65"/><rect class="cls-24" x="94.41" y="368.81" width="6.14" height="5.89" rx=".71" ry=".71"/><rect class="cls-24" x="94.23" y="367.07" width="1.39" height=".8" rx=".13" ry=".13" transform="translate(-272.55 462.39) rotate(-90)"/><rect class="cls-24" x="95.37" y="367.07" width="1.39" height=".8" rx=".13" ry=".13" transform="translate(-271.41 463.54) rotate(-90)"/><rect class="cls-24" x="98.25" y="367.07" width="1.39" height=".8" rx=".13" ry=".13" transform="translate(-268.52 466.42) rotate(-90)"/><rect class="cls-24" x="99.35" y="367.07" width="1.39" height=".8" rx=".13" ry=".13" transform="translate(-267.43 467.52) rotate(-90)"/><circle class="cls-24" cx="97.51" cy="367.58" r=".65"/><rect class="cls-24" x="94.23" y="375.57" width="1.39" height=".8" rx=".13" ry=".13" transform="translate(-281.05 470.89) rotate(-90)"/><rect class="cls-24" x="95.37" y="375.57" width="1.39" height=".8" rx=".13" ry=".13" transform="translate(-279.9 472.03) rotate(-90)"/><rect class="cls-24" x="98.25" y="375.57" width="1.39" height=".8" rx=".13" ry=".13" transform="translate(-277.02 474.92) rotate(-90)"/><rect class="cls-24" x="99.35" y="375.57" width="1.39" height=".8" rx=".13" ry=".13" transform="translate(-275.92 476.01) rotate(-90)"/><circle class="cls-24" cx="97.51" cy="376.08" r=".65"/><circle cx="157.89" cy="371.63" r="4.41" style="stroke-miterlimit:10;stroke:#a1a1a1;stroke-width:.41px;fill:none"/><g style="clip-path:url(#clippath-5)"><path class="cls-24" d="M156.3 373.02h3.06c.54 0 .97.44.97.97v2.31h-5.01v-2.31c0-.54.44-.97.97-.97Z"/><circle class="cls-24" cx="157.81" cy="370.75" r="1.61"/></g><path class="cls-9" d="m166.86 198.52 2.5 2.49-2.5 2.49"/><path style="stroke-miterlimit:10;stroke:#fff;stroke-linecap:round;stroke-width:.75px;fill:none" d="m166.86 133.17 2.5 2.49-2.5 2.49"/><path class="cls-9" d="m166.86 227.03 2.5 2.49-2.5 2.49M166.86 255.32l2.5 2.5-2.5 2.49M166.86 283.83l2.5 2.49-2.5 2.5M166.86 312.34l2.5 2.49-2.5 2.49M166.86 340.85l2.5 2.49-2.5 2.49"/><rect x="162.43" y="332.56" width="19.47" height="19.47" rx="3" ry="3" transform="translate(514.47 170.13) rotate(90)" style="fill:url(#linear-gradient-2)"/><path d="M174.58 339.39h-4.83c-.35 0-.63.28-.63.63v3.06c0 .35.28.63.63.63h.81l-.13 1.49 1.76-1.49h2.38c.35 0 .63-.28.63-.63v-3.06c0-.35-.28-.63-.63-.63Z" style="stroke:#fff;stroke-linecap:round;stroke-linejoin:round;stroke-width:.75px;fill:none"/><path class="cls-8" d="M170.46 340.64h2.87M170.46 341.64h2.87M170.46 342.64h2.31"/><rect class="cls-27" x="171.6" y="33.98" width="4.2" height="5.51" rx="1.85" ry="1.85"/><rect x="15.62" y="91.61" width="53.04" height="12.61" rx="3" ry="3" style="fill:#ededed"/><rect class="cls-27" x="26.44" y="95.33" width="31.39" height="5.14" rx="2.26" ry="2.26"/><rect class="cls-27" x="24.47" y="169.83" width="68.46" height="9.91" rx="4.95" ry="4.95"/></g></g></g></svg>