<svg xmlns="http://www.w3.org/2000/svg" xmlns:xlink="http://www.w3.org/1999/xlink" viewBox="0 0 195 400"><defs><linearGradient id="linear-gradient" x1="112.62" y1="168.34" x2="114.96" y2="209.61" gradientTransform="matrix(1, 0, 0, 1, 0, 0)" gradientUnits="userSpaceOnUse"><stop offset=".02" stop-color="#a55582"/><stop offset=".42" stop-color="#b4496f"/><stop offset=".57" stop-color="#bc4768"/><stop offset=".82" stop-color="#d44455"/><stop offset=".91" stop-color="#de434d"/></linearGradient><linearGradient id="linear-gradient-2" x1="85.79" y1="195.08" x2="71.25" y2="232.28" gradientTransform="matrix(1, 0, 0, 1, 0, 0)" gradientUnits="userSpaceOnUse"><stop offset="0" stop-color="#ffde65"/><stop offset=".02" stop-color="#ffd954"/><stop offset=".13" stop-color="#ffc706"/><stop offset=".14" stop-color="#fdc10b"/><stop offset=".26" stop-color="#f39b30"/><stop offset=".32" stop-color="#f08d3f"/><stop offset=".47" stop-color="#eb6948"/></linearGradient><linearGradient id="linear-gradient-3" x1="94.53" y1="182.12" x2="100.5" y2="214.08" gradientTransform="matrix(1, 0, 0, 1, 0, 0)" gradientUnits="userSpaceOnUse"><stop offset=".02" stop-color="#cd5c6c"/><stop offset=".09" stop-color="#d65f68"/><stop offset=".27" stop-color="#e86561"/><stop offset=".4" stop-color="#ef685f"/><stop offset=".65" stop-color="#ee754f"/><stop offset=".96" stop-color="#ee8241"/></linearGradient><linearGradient id="Degradado_sin_nombre_48" x1="1.11" y1="68.91" x2="1.11" y2="49.05" gradientTransform="matrix(1, 0, 0, 1, 0, 0)" gradientUnits="userSpaceOnUse"><stop offset="0" stop-color="#6d6f71"/><stop offset=".01" stop-color="#7b7d7f"/><stop offset=".05" stop-color="#9b9c9e"/><stop offset=".08" stop-color="#b6b7b8"/><stop offset=".12" stop-color="#cccdce"/><stop offset=".17" stop-color="#ddddde"/><stop offset=".23" stop-color="#e9e9ea"/><stop offset=".32" stop-color="#f0f0f1"/><stop offset=".55" stop-color="#f2f2f3"/><stop offset=".74" stop-color="#f0f0f1"/><stop offset=".81" stop-color="#e9e9ea"/><stop offset=".86" stop-color="#ddddde"/><stop offset=".9" stop-color="#cccdce"/><stop offset=".93" stop-color="#b6b7b8"/><stop offset=".96" stop-color="#9b9c9e"/><stop offset=".99" stop-color="#7b7d7f"/><stop offset="1" stop-color="#6d6f71"/></linearGradient><linearGradient id="Degradado_sin_nombre_48-2" x1="0" y1="58.98" x2="2.21" y2="58.98" xlink:href="#Degradado_sin_nombre_48"/><linearGradient id="Degradado_sin_nombre_48-3" x1="1.23" y1="123.35" x2="1.23" y2="89.5" xlink:href="#Degradado_sin_nombre_48"/><linearGradient id="Degradado_sin_nombre_48-4" x1="0" y1="106.43" x2="2.45" y2="106.43" xlink:href="#Degradado_sin_nombre_48"/><linearGradient id="Degradado_sin_nombre_48-5" x1="1.23" y1="166.16" x2="1.23" y2="132.31" xlink:href="#Degradado_sin_nombre_48"/><linearGradient id="Degradado_sin_nombre_48-6" x1="0" y1="149.24" x2="2.45" y2="149.24" xlink:href="#Degradado_sin_nombre_48"/><linearGradient id="Degradado_sin_nombre_48-7" x1="194.14" y1="153.09" x2="194.14" y2="102.58" xlink:href="#Degradado_sin_nombre_48"/><linearGradient id="Degradado_sin_nombre_48-8" x1="193.28" y1="127.83" x2="195" y2="127.83" xlink:href="#Degradado_sin_nombre_48"/><style>.cls-9{fill:#4a4a4c}</style></defs><g style="isolation:isolate"><g id="Layer_1"><path d="M122.61 172.62v26.33s.09 4.08-3.28 7.95-7.8 4.34-8.98 4.34h-5.04l.64-29.29s.08-4.4 3.76-8.08 7.98-3.26 7.98-3.26h2.99s1.93-.18 1.93 2.01Z" style="fill:url(#linear-gradient)"/><path d="m89.24 193.4.15 17.84H74.65s-1.75-.04-1.75-1.41v-5.35s-.07-3.94 2.98-7.25 6.68-3.74 7.81-3.74 5.56-.09 5.56-.09Z" style="fill:url(#linear-gradient-2)"/><path d="M106.01 211.24H88.56l.67-17.84s-.21-4.25 3.72-8.02c2.69-2.59 5.19-3.24 7.37-3.24h5.61l.08 29.1Z" style="fill:url(#linear-gradient-3)"/><path d="M105.29 211.24h.73l-.08-29.1-.65 29.1Z" style="fill:#b30d31;opacity:.61"/><path style="fill:#c64e28;opacity:.59" d="m89.24 193.18-.69 18.06h.82l-.13-18.06z"/><path class="cls-9" d="M81.94 217.23h2.25v8.96h-2.25v-.95c-.44.42-.88.72-1.32.9-.44.18-.92.28-1.44.28-1.16 0-2.16-.45-3-1.35s-1.27-2.01-1.27-3.35.41-2.52 1.23-3.4 1.81-1.33 2.98-1.33c.54 0 1.04.1 1.51.3.47.2.91.51 1.31.91v-.99Zm-2.36 1.84c-.69 0-1.27.25-1.73.74s-.69 1.12-.69 1.89.23 1.41.7 1.91 1.04.75 1.73.75 1.29-.25 1.76-.74.7-1.14.7-1.93-.23-1.41-.7-1.89c-.46-.48-1.05-.72-1.76-.72ZM87.33 213.55c.39 0 .73.14 1.01.43s.42.63.42 1.04-.14.74-.42 1.03c-.28.28-.61.42-1 .42s-.74-.14-1.02-.43-.42-.64-.42-1.05.14-.73.42-1.01.62-.42 1.01-.42Zm-1.12 3.69h2.25v8.96h-2.25v-8.96ZM89.97 217.23h1.93v1.13c.21-.44.49-.78.83-1.01.35-.23.72-.35 1.14-.35.29 0 .6.08.91.23l-.7 1.94c-.26-.13-.48-.2-.65-.2-.35 0-.64.21-.88.64s-.36 1.27-.36 2.52v4.06h-2.22v-8.96ZM102.51 217.23h2.25v8.96h-2.25v-.95c-.44.42-.88.72-1.32.9-.44.18-.92.28-1.44.28-1.16 0-2.16-.45-3-1.35-.84-.9-1.27-2.01-1.27-3.35s.41-2.52 1.23-3.4 1.81-1.33 2.98-1.33c.54 0 1.04.1 1.51.3s.91.51 1.31.91v-.99Zm-2.36 1.84c-.69 0-1.27.25-1.73.74-.46.49-.69 1.12-.69 1.89s.23 1.41.7 1.91 1.04.75 1.73.75 1.29-.25 1.76-.74.7-1.14.7-1.93-.23-1.41-.7-1.89-1.05-.72-1.76-.72ZM106.78 213.78h2.25v12.42h-2.25v-12.42ZM115.28 217c.85 0 1.64.21 2.38.63.74.42 1.32 1 1.74 1.72.42.72.63 1.51.63 2.35s-.21 1.64-.63 2.37c-.42.74-.99 1.31-1.72 1.73s-1.52.62-2.4.62c-1.28 0-2.38-.46-3.29-1.37-.91-.91-1.36-2.02-1.36-3.33 0-1.4.51-2.57 1.54-3.5.9-.81 1.94-1.22 3.1-1.22Zm.04 2.12c-.7 0-1.28.24-1.74.73s-.7 1.11-.7 1.87.23 1.41.69 1.89c.46.48 1.04.72 1.74.72s1.29-.24 1.76-.73.7-1.12.7-1.89-.23-1.39-.69-1.87c-.46-.48-1.05-.72-1.76-.72Z"/><path d="M165.31 0H30.19C14.76 0 2.21 12.55 2.21 27.98v344.08c0 15.43 12.55 27.98 27.98 27.98h135.12c15.43 0 27.98-12.55 27.98-27.98V27.98C193.29 12.55 180.74 0 165.31 0Zm20.04 372.06c0 11.05-8.99 20.04-20.04 20.04H30.19c-11.05 0-20.04-8.99-20.04-20.04V27.98c0-11.05 8.99-20.04 20.04-20.04h18.86c1.35 0 2.45 1.1 2.45 2.45v6.51c0 3.65 3.35 6.62 7.46 6.62h77.58c4.11 0 7.46-2.97 7.46-6.62v-6.51c0-1.35 1.1-2.45 2.45-2.45h18.86c11.05 0 20.04 8.99 20.04 20.04v344.08Z" style="fill:#ccc"/><path d="M114.02 12.55H81.48c-.83 0-1.51.68-1.51 1.51s.68 1.51 1.51 1.51h32.54c.83 0 1.51-.68 1.51-1.51s-.68-1.51-1.51-1.51Z" style="fill:#444"/><path d="M0 51.23v15.51c0 1.2.97 2.17 2.17 2.17h.04V49.05h-.04c-1.2 0-2.17.97-2.17 2.17Z" style="fill:url(#Degradado_sin_nombre_48)"/><path d="M0 51.23v15.51c0 1.2.97 2.17 2.17 2.17h.04V49.05h-.04c-1.2 0-2.17.97-2.17 2.17Z" style="fill:url(#Degradado_sin_nombre_48-2);mix-blend-mode:multiply;opacity:.5"/><path d="M0 91.74v29.37c0 1.24 1 2.24 2.24 2.24h.21V89.5h-.21C1 89.5 0 90.5 0 91.74Z" style="fill:url(#Degradado_sin_nombre_48-3)"/><path d="M0 91.74v29.37c0 1.24 1 2.24 2.24 2.24h.21V89.5h-.21C1 89.5 0 90.5 0 91.74Z" style="fill:url(#Degradado_sin_nombre_48-4);mix-blend-mode:multiply;opacity:.5"/><path d="M0 134.55v29.37c0 1.24 1 2.24 2.24 2.24h.21v-33.85h-.21c-1.24 0-2.24 1-2.24 2.24Z" style="fill:url(#Degradado_sin_nombre_48-5)"/><path d="M0 134.55v29.37c0 1.24 1 2.24 2.24 2.24h.21v-33.85h-.21c-1.24 0-2.24 1-2.24 2.24Z" style="fill:url(#Degradado_sin_nombre_48-6);mix-blend-mode:multiply;opacity:.5"/><path d="M189.49 27.98v341.08c0 13.34-10.85 24.19-24.19 24.19H30.19C16.85 393.25 6 382.4 6 369.06V27.98C6 14.64 16.85 3.79 30.19 3.79h135.12c13.34 0 24.19 10.85 24.19 24.19ZM165.3 8.07h-18.86c-1.28 0-2.32 1.04-2.32 2.32v6.51c0 3.72-3.4 6.74-7.59 6.74H58.96c-4.19 0-7.59-3.02-7.59-6.74v-6.51c0-1.28-1.04-2.32-2.32-2.32H30.19c-11 0-19.91 8.91-19.91 19.91v341.08c0 11 8.91 19.91 19.91 19.91h135.12c11 0 19.91-8.91 19.91-19.91V27.98c0-11-8.91-19.91-19.91-19.91Zm20.04 19.91v341.08c0 11.05-8.99 20.04-20.04 20.04H30.19c-11.05 0-20.04-8.99-20.04-20.04V27.98c0-11.05 8.99-20.04 20.04-20.04h18.86c1.35 0 2.45 1.1 2.45 2.45v6.51c0 3.65 3.35 6.62 7.46 6.62h77.58c4.11 0 7.46-2.97 7.46-6.62v-6.51c0-1.35 1.1-2.45 2.45-2.45h18.86c11.05 0 20.04 8.99 20.04 20.04Zm-.25 0c0-10.91-8.87-19.79-19.79-19.79h-18.86c-1.21 0-2.2.99-2.2 2.2v6.51c0 3.79-3.46 6.87-7.71 6.87H58.96c-4.25 0-7.71-3.08-7.71-6.87v-6.51c0-1.21-.99-2.2-2.2-2.2H30.19c-10.91 0-19.79 8.88-19.79 19.79v341.08c0 10.91 8.87 19.79 19.79 19.79H165.3c10.91 0 19.79-8.88 19.79-19.79V27.98Z" style="fill:#09090c"/><path d="M193.28 102.58v50.51c.95 0 1.72-.99 1.72-2.21v-46.09c0-1.22-.77-2.21-1.72-2.21Z" style="fill:url(#Degradado_sin_nombre_48-7)"/><path d="M193.28 102.58v50.51c.95 0 1.72-.99 1.72-2.21v-46.09c0-1.22-.77-2.21-1.72-2.21Z" style="mix-blend-mode:multiply;opacity:.5;fill:url(#Degradado_sin_nombre_48-8)"/></g></g></svg>