<svg xmlns="http://www.w3.org/2000/svg" xmlns:xlink="http://www.w3.org/1999/xlink" viewBox="0 0 195 400"><defs><linearGradient id="Degradado_sin_nombre_48" x1="1.11" y1="68.91" x2="1.11" y2="49.05" gradientTransform="matrix(1, 0, 0, 1, 0, 0)" gradientUnits="userSpaceOnUse"><stop offset="0" stop-color="#6d6f71"/><stop offset=".01" stop-color="#7b7d7f"/><stop offset=".05" stop-color="#9b9c9e"/><stop offset=".08" stop-color="#b6b7b8"/><stop offset=".12" stop-color="#cccdce"/><stop offset=".17" stop-color="#ddddde"/><stop offset=".23" stop-color="#e9e9ea"/><stop offset=".32" stop-color="#f0f0f1"/><stop offset=".55" stop-color="#f2f2f3"/><stop offset=".74" stop-color="#f0f0f1"/><stop offset=".81" stop-color="#e9e9ea"/><stop offset=".86" stop-color="#ddddde"/><stop offset=".9" stop-color="#cccdce"/><stop offset=".93" stop-color="#b6b7b8"/><stop offset=".96" stop-color="#9b9c9e"/><stop offset=".99" stop-color="#7b7d7f"/><stop offset="1" stop-color="#6d6f71"/></linearGradient><linearGradient id="Degradado_sin_nombre_48-2" x1="0" y1="58.98" x2="2.21" y2="58.98" xlink:href="#Degradado_sin_nombre_48"/><linearGradient id="Degradado_sin_nombre_48-3" x1="1.23" y1="123.35" x2="1.23" y2="89.5" xlink:href="#Degradado_sin_nombre_48"/><linearGradient id="Degradado_sin_nombre_48-4" x1="0" y1="106.43" x2="2.45" y2="106.43" xlink:href="#Degradado_sin_nombre_48"/><linearGradient id="Degradado_sin_nombre_48-5" x1="1.23" y1="166.16" x2="1.23" y2="132.31" xlink:href="#Degradado_sin_nombre_48"/><linearGradient id="Degradado_sin_nombre_48-6" x1="0" y1="149.24" x2="2.45" y2="149.24" xlink:href="#Degradado_sin_nombre_48"/><linearGradient id="Degradado_sin_nombre_48-7" x1="194.39" y1="153.09" x2="194.39" y2="102.58" xlink:href="#Degradado_sin_nombre_48"/><linearGradient id="Degradado_sin_nombre_48-8" x1="193.53" y1="127.83" x2="195.25" y2="127.83" xlink:href="#Degradado_sin_nombre_48"/><linearGradient id="linear-gradient" x1="7.19" y1="71.01" x2="187.81" y2="71.01" gradientTransform="matrix(1, 0, 0, 1, 0, 0)" gradientUnits="userSpaceOnUse"><stop offset="0" stop-color="#61cce5"/><stop offset=".39" stop-color="#6cd4e5"/><stop offset="1" stop-color="#87e8e5"/></linearGradient><linearGradient id="linear-gradient-2" x1="14.95" y1="117.06" x2="180.14" y2="117.06" gradientTransform="translate(-.41 25.33) rotate(-.16) scale(1 .96) skewX(.01)" gradientUnits="userSpaceOnUse"><stop offset="0" stop-color="#ff5a2b"/><stop offset=".9" stop-color="#f2a040"/></linearGradient><linearGradient id="linear-gradient-3" x1="138.07" y1="94.32" x2="138.07" y2="39.93" gradientTransform="matrix(1, 0, 0, 1, 0, 0)" gradientUnits="userSpaceOnUse"><stop offset="0" stop-color="#fcfad6"/><stop offset=".08" stop-color="#dff4d2"/><stop offset=".27" stop-color="#a0e8c9"/><stop offset=".45" stop-color="#6bdec2"/><stop offset=".62" stop-color="#42d6bc"/><stop offset=".77" stop-color="#25d0b8"/><stop offset=".91" stop-color="#13cdb5"/><stop offset="1" stop-color="#0dccb5"/></linearGradient><clipPath id="clippath-1"><path class="cls-1" d="M165.31 8.06h-18.86c-1.28 0-2.32 1.04-2.32 2.32v6.51c0 3.72-3.4 6.74-7.59 6.74H58.96c-4.19 0-7.59-3.02-7.59-6.74v-6.51c0-1.28-1.04-2.32-2.32-2.32H30.19c-11 0-19.91 8.91-19.91 19.91v341.09c0 11 8.91 19.91 19.91 19.91h135.12c11 0 19.91-8.91 19.91-19.91V27.98c0-11-8.91-19.91-19.91-19.91Z"/></clipPath><clipPath id="clippath-2"><path d="M185.34 27.98v341.08c0 11.05-8.99 20.04-20.04 20.04H30.19c-11.05 0-20.04-8.99-20.04-20.04V27.98c0-11.05 8.99-20.04 20.04-20.04h18.86c1.35 0 2.45 1.1 2.45 2.45v6.51c0 3.65 3.35 6.62 7.46 6.62h77.58c4.11 0 7.46-2.97 7.46-6.62v-6.51c0-1.35 1.1-2.45 2.45-2.45h18.86c11.05 0 20.04 8.99 20.04 20.04Z" style="clip-path:url(#clippath-1);fill:none"/></clipPath><clipPath id="clippath-3"><path d="M185.09 27.98c0-10.91-8.87-19.79-19.79-19.79h-18.86c-1.21 0-2.2.99-2.2 2.2v6.51c0 3.79-3.46 6.87-7.71 6.87H58.96c-4.25 0-7.71-3.08-7.71-6.87v-6.51c0-1.21-.99-2.2-2.2-2.2H30.19c-10.91 0-19.79 8.88-19.79 19.79v341.08c0 10.91 8.87 19.79 19.79 19.79H165.3c10.91 0 19.79-8.88 19.79-19.79V27.98Z" style="clip-path:url(#clippath-2);fill:none"/></clipPath><clipPath id="clippath-4"><rect class="cls-1" x="98.46" y="43.06" width="79.37" height="48.43" rx="5.8" ry="5.8"/></clipPath><style>.cls-1,.cls-10,.cls-5,.cls-6,.cls-7{fill:none}.cls-5,.cls-6,.cls-7{stroke-linecap:round}.cls-10,.cls-5{stroke-miterlimit:10}.cls-19{fill:#f9f6ea}.cls-22{fill:#f8e1b9}.cls-25{fill:#ededed}.cls-26{fill:#fffffe}.cls-27{fill:#fff}.cls-28{fill:#fffefe}.cls-30{fill:#fefffe}.cls-32{fill:#fefefe}.cls-35{fill:#ffb64f}.cls-36{fill:#ffb743}.cls-37{fill:#fbecce}.cls-39{fill:#feb549}.cls-46{fill:#d0d2d3}.cls-47{fill:#1f1602}.cls-51{fill:#211602}.cls-53{fill:#201503}.cls-54{fill:#201502}.cls-55{fill:#201602}.cls-56{fill:#201504}.cls-59{fill:#141b02}.cls-5{stroke:#d0d2d3}.cls-5,.cls-6{stroke-width:.5px}.cls-6,.cls-7{stroke-linejoin:round}.cls-6{stroke:#606060}.cls-7{stroke-width:1px;stroke:#4a4a4a}.cls-10{stroke:#fff;stroke-width:.5px}</style></defs><g style="isolation:isolate"><g id="Layer_1"><path d="M165.31 0H30.19C14.76 0 2.21 12.55 2.21 27.98v344.08c0 15.43 12.55 27.98 27.98 27.98h135.12c15.43 0 27.98-12.55 27.98-27.98V27.98C193.29 12.55 180.74 0 165.31 0Zm20.04 372.06c0 11.05-8.99 20.04-20.04 20.04H30.19c-11.05 0-20.04-8.99-20.04-20.04V27.98c0-11.05 8.99-20.04 20.04-20.04h18.86c1.35 0 2.45 1.1 2.45 2.45v6.51c0 3.65 3.35 6.62 7.46 6.62h77.58c4.11 0 7.46-2.97 7.46-6.62v-6.51c0-1.35 1.1-2.45 2.45-2.45h18.86c11.05 0 20.04 8.99 20.04 20.04v344.08Z" style="fill:#ccc"/><path d="M114.02 12.55H81.48c-.83 0-1.51.68-1.51 1.51s.68 1.51 1.51 1.51h32.54c.83 0 1.51-.68 1.51-1.51s-.68-1.51-1.51-1.51Z" style="fill:#444"/><path d="M0 51.23v15.51c0 1.2.97 2.17 2.17 2.17h.04V49.05h-.04c-1.2 0-2.17.97-2.17 2.17Z" style="fill:url(#Degradado_sin_nombre_48)"/><path d="M0 51.23v15.51c0 1.2.97 2.17 2.17 2.17h.04V49.05h-.04c-1.2 0-2.17.97-2.17 2.17Z" style="fill:url(#Degradado_sin_nombre_48-2);mix-blend-mode:multiply;opacity:.5"/><path d="M0 91.74v29.37c0 1.24 1 2.24 2.24 2.24h.21V89.5h-.21C1 89.5 0 90.5 0 91.74Z" style="fill:url(#Degradado_sin_nombre_48-3)"/><path d="M0 91.74v29.37c0 1.24 1 2.24 2.24 2.24h.21V89.5h-.21C1 89.5 0 90.5 0 91.74Z" style="fill:url(#Degradado_sin_nombre_48-4);mix-blend-mode:multiply;opacity:.5"/><path d="M0 134.55v29.37c0 1.24 1 2.24 2.24 2.24h.21v-33.85h-.21c-1.24 0-2.24 1-2.24 2.24Z" style="fill:url(#Degradado_sin_nombre_48-5)"/><path d="M0 134.55v29.37c0 1.24 1 2.24 2.24 2.24h.21v-33.85h-.21c-1.24 0-2.24 1-2.24 2.24Z" style="fill:url(#Degradado_sin_nombre_48-6);mix-blend-mode:multiply;opacity:.5"/><path d="M189.49 27.98v341.08c0 13.34-10.85 24.19-24.19 24.19H30.19C16.85 393.25 6 382.4 6 369.06V27.98C6 14.64 16.85 3.79 30.19 3.79h135.12c13.34 0 24.19 10.85 24.19 24.19ZM165.3 8.07h-18.86c-1.28 0-2.32 1.04-2.32 2.32v6.51c0 3.72-3.4 6.74-7.59 6.74H58.96c-4.19 0-7.59-3.02-7.59-6.74v-6.51c0-1.28-1.04-2.32-2.32-2.32H30.19c-11 0-19.91 8.91-19.91 19.91v341.08c0 11 8.91 19.91 19.91 19.91h135.12c11 0 19.91-8.91 19.91-19.91V27.98c0-11-8.91-19.91-19.91-19.91Zm20.04 19.91v341.08c0 11.05-8.99 20.04-20.04 20.04H30.19c-11.05 0-20.04-8.99-20.04-20.04V27.98c0-11.05 8.99-20.04 20.04-20.04h18.86c1.35 0 2.45 1.1 2.45 2.45v6.51c0 3.65 3.35 6.62 7.46 6.62h77.58c4.11 0 7.46-2.97 7.46-6.62v-6.51c0-1.35 1.1-2.45 2.45-2.45h18.86c11.05 0 20.04 8.99 20.04 20.04Zm-.25 0c0-10.91-8.87-19.79-19.79-19.79h-18.86c-1.21 0-2.2.99-2.2 2.2v6.51c0 3.79-3.46 6.87-7.71 6.87H58.96c-4.25 0-7.71-3.08-7.71-6.87v-6.51c0-1.21-.99-2.2-2.2-2.2H30.19c-10.91 0-19.79 8.88-19.79 19.79v341.08c0 10.91 8.87 19.79 19.79 19.79H165.3c10.91 0 19.79-8.88 19.79-19.79V27.98Z" style="fill:#09090c"/><path d="M193.53 102.58v50.51c.95 0 1.72-.99 1.72-2.21v-46.09c0-1.22-.77-2.21-1.72-2.21Z" style="fill:url(#Degradado_sin_nombre_48-7)"/><path d="M193.53 102.58v50.51c.95 0 1.72-.99 1.72-2.21v-46.09c0-1.22-.77-2.21-1.72-2.21Z" style="mix-blend-mode:multiply;opacity:.5;fill:url(#Degradado_sin_nombre_48-8)"/><g style="clip-path:url(#clippath-3)"><rect class="cls-46" x="24.71" y="169.83" width="68.46" height="9.91" rx="4.95" ry="4.95"/><path style="fill:#e8e8e8" d="M7.19 112.35H187.8v269.98H7.19z"/><path style="fill:url(#linear-gradient)" d="M7.19 4.29H187.8v133.43H7.19z"/><path style="fill:#fafafa" d="M7.19 379.5H187.8v14.47H7.19z"/><rect class="cls-27" x="15.21" y="315.15" width="163.83" height="61.22" rx="4.99" ry="4.99"/><rect class="cls-27" x="15.21" y="230.47" width="163.83" height="76.06" rx="4.99" ry="4.99"/><rect class="cls-27" x="15.21" y="188.8" width="163.83" height="33.89" rx="4.99" ry="4.99"/><rect x="14.93" y="121.14" width="165.1" height="33.17" rx="2.69" ry="2.69" transform="translate(.41 -.29) rotate(.17)" style="fill:url(#linear-gradient-2)"/><rect class="cls-27" x="22.85" y="127.66" width="147.83" height="5.68" rx="2.84" ry="2.84"/><rect class="cls-27" x="22.85" y="136.1" width="142.83" height="5.68" rx="2.84" ry="2.84"/><rect class="cls-27" x="22.85" y="144.54" width="18.9" height="5.68" rx="2.84" ry="2.84"/><rect class="cls-10" x="56.81" y="100.7" width="81.33" height="11.65" rx="1.99" ry="1.99"/><rect class="cls-27" x="80.21" y="105.2" width="33.79" height="3.1" rx="1.55" ry="1.55"/><rect x="56.83" y="365.23" width="81.33" height="11.65" rx="1.99" ry="1.99" style="stroke-width:.5px;stroke:#606060;stroke-miterlimit:10;fill:none"/><rect x="80.23" y="369.73" width="33.79" height="3.1" rx="1.55" ry="1.55" style="fill:#666"/><rect class="cls-27" x="17.58" y="47.35" width="34.87" height="5.68" rx="1.38" ry="1.38"/><rect class="cls-27" x="83.83" y="32.33" width="26.96" height="5.68" rx="1.21" ry="1.21"/><rect class="cls-27" x="17.58" y="72.5" width="25.67" height="5.68" rx="1.18" ry="1.18"/><rect class="cls-27" x="17.58" y="81.32" width="18.38" height="5.68" rx="1" ry="1"/><rect class="cls-27" x="17.58" y="56.55" width="65.09" height="5.68" rx="1.88" ry="1.88"/><rect class="cls-10" x="55.37" y="47.6" width="3.24" height="3.94" rx=".3" ry=".3"/><rect class="cls-10" x="57.37" y="49.08" width="3.24" height="3.94" rx=".3" ry=".3"/><path style="stroke:#fff;stroke-width:.75px;stroke-miterlimit:10;stroke-linecap:round;fill:none" d="m17.16 38.46-3.29-3.29 3.29-3.28"/><path style="stroke-width:.75px;stroke:#4a4a4a;stroke-miterlimit:10;stroke-linecap:round;fill:none" d="m167.49 209.14 2.38-2.37-2.38-2.38"/><circle class="cls-27" cx="165.73" cy="34.77" r="1.13"/><circle class="cls-27" cx="169.6" cy="34.77" r="1.13"/><circle class="cls-27" cx="173.3" cy="34.77" r="1.13"/><rect class="cls-46" x="15.95" y="172.47" width="72.61" height="6.36" rx="3.18" ry="3.18"/><rect class="cls-46" x="37.72" y="204.33" width="80.11" height="6.36" rx="3.18" ry="3.18"/><rect class="cls-46" x="21.67" y="238.67" width="29.46" height="6.36" rx="3.18" ry="3.18"/><rect class="cls-25" x="100.28" y="258.44" width="26.64" height="5.1" rx="2.55" ry="2.55"/><rect class="cls-46" x="100.28" y="267.52" width="14.37" height="5.1" rx="1.87" ry="1.87"/><rect class="cls-25" x="100.28" y="287.16" width="26.64" height="5.1" rx="2.55" ry="2.55"/><rect class="cls-46" x="100.28" y="296.24" width="14.37" height="5.1" rx="1.87" ry="1.87"/><path class="cls-5" d="M29.41 203.24v4.5M30.88 206.51l-1.47 1.47-1.47-1.47"/><path class="cls-5" d="M30.59 205.04h1.47v4.93h-5.32v-4.93h1.54"/><path class="cls-7" d="M162.21 239.65h4.36M162.21 244.15h2.18M162.21 241.9h5.72"/><rect class="cls-46" x="22.68" y="323.6" width="33.26" height="5.69" rx="2.85" ry="2.85"/><rect class="cls-46" x="34.77" y="294.6" width="43.14" height="5.69" rx="2.85" ry="2.85"/><rect class="cls-46" x="48.11" y="283.97" width="16.47" height="5.69" rx="2.85" ry="2.85"/><rect class="cls-46" x="22.68" y="346.96" width="47.61" height="5.69" rx="2.85" ry="2.85"/><rect x="125.66" y="345.52" width="44.84" height="8.16" rx="1.91" ry="1.91" style="fill:#61cce5"/><rect class="cls-27" x="129.73" y="347.91" width="36.7" height="3.38" rx="1.69" ry="1.69"/><rect x="162.11" y="325.11" width="6.97" height="5.06" rx=".59" ry=".59" style="fill:#606060"/><path class="cls-6" d="M163.26 324.29h4.66M163.9 323.48h3.38"/><path d="M30.67 290.2c0-14.73 11.94-26.66 26.66-26.66s26.66 11.94 26.66 26.66" style="stroke-miterlimit:10;stroke-linecap:round;stroke:#61cce5;stroke-width:4.55px;fill:none"/><g style="clip-path:url(#clippath-4)"><path style="fill:url(#linear-gradient-3)" d="M98.63 42.43h78.89v49.15H98.63z"/><path class="cls-28" d="M161.48 54.76c-.02-.08-.09-.14-.19-.15h-.28c-.12 0-.21.1-.21.22V56c0 .01 0 .02.02.02h.11V55c0-.14.11-.25.25-.25h.29Z"/><rect x="159.64" y="56.94" width="8.18" height="8.18" rx=".65" ry=".65" style="fill:#0099c7"/><path class="cls-35" d="M161.57 65.41v.16c0 .04 0 .04.04.04h.06c.02 0 .02 0 .02.02v1.21c0 .09-.04.16-.11.21-.04.03-.08.04-.13.04h-.27c-.09 0-.17-.04-.21-.13.02-.02.04-.02.06-.02h.26c.1 0 .17-.05.23-.13 0-.01.01-.02.02-.03v-.02h-.03s-.01.02-.02.02c-.05.08-.12.12-.21.12h-.26c-.03 0-.07 0-.08-.04V65.67c0-.07.02-.08.08-.08h.39c.06 0 .08 0 .08-.06 0-.01 0-.03.01-.04.02 0 .02.02.03.03v.99c0 .02 0 .07.01.07.03 0 .02-.04.02-.07v-1c0-.03 0-.06.02-.08ZM163.81 65.61h.1c.03 0 .03.01.03.03v1.18c0 .08-.02.16-.08.21-.05.04-.1.07-.16.07h-.28c-.09 0-.16-.05-.2-.13.02-.02.04-.02.06-.02h.26c.1 0 .17-.05.23-.13 0 0 .01-.02.01-.03v-.03h-.03c-.01.01-.02.02-.02.04-.04.06-.1.1-.17.1h-.3c-.03 0-.07 0-.08-.04V65.68c0-.08.02-.09.09-.09h.42c.02 0 .04 0 .06.01.02.03.02.06.02.09V66.54c0 .01 0 .03.02.03s.02-.02.02-.03V65.69c0-.03 0-.06.02-.08ZM169.57 62.81c.09.04.15.11.15.22v.27c0 .13-.1.25-.26.25h-1.17c-.06 0-.06 0-.06-.06 0-.07 0-.06-.06-.07h-.14c.02-.03.05-.02.08-.02h1.04c.01 0 .02 0 .02-.02 0-.01 0-.02-.02-.02H168.3c-.06 0-.11.01-.17 0-.02 0-.05 0-.05-.03.02-.02.04-.02.07-.02.05 0 .06 0 .06-.06v-.42c0-.06.02-.08.08-.08h1.17c.03 0 .04.03.05.05.01.05 0 .09 0 .14v.15c0 .09-.04.16-.12.21h-.02s-.02.03-.01.05c0 .02.02.01.03 0 .04-.02.07-.04.09-.07.05-.06.07-.13.07-.2v-.26c0-.01 0-.03.01-.04ZM169.57 59.45c.09.04.14.11.15.21v.3c0 .12-.12.22-.25.23h-1.19c-.04 0-.04 0-.04-.04v-.09c.02-.03.05-.02.08-.02H169.16c.01 0 .02 0 .02-.02 0-.01-.01-.02-.02-.02H168.31c-.03 0-.06 0-.08-.02-.01-.02-.01-.04-.01-.06v-.42c0-.08.02-.1.1-.1H169.48c.03 0 .05.04.05.06.01.11.02.23 0 .34-.01.07-.05.12-.11.16 0 0-.02.01-.03.02v.03h.02c.02 0 .04-.02.06-.03.08-.06.11-.14.11-.24v-.25c0-.02 0-.03.01-.04ZM169.62 60.59c.07.06.11.13.11.23v.23c0 .14-.12.26-.25.26h-1.19c-.04 0-.05 0-.05-.04v-.08c.02-.02.05-.02.08-.02H169.17s.02 0 .02-.02c0-.01 0-.02-.02-.02H168.32c-.03 0-.06 0-.08-.02-.01-.02-.01-.04-.01-.06v-.44c0-.07.02-.08.08-.09h1.17s.03.02.04.04c.01.03.02.06.02.09v.21c0 .1-.04.18-.13.22h-.01s-.02.03-.01.04c0 .01.02 0 .03 0 .08-.04.13-.1.15-.19.02-.11.01-.21 0-.32v-.06h.02s.02.01.03.02ZM166.05 65.61h.1s.03 0 .03.03v1.2c0 .17-.14.28-.27.27h-.24a.24.24 0 0 1-.22-.13c.02-.02.04-.02.06-.02h.26c.11 0 .18-.06.23-.15 0-.01.02-.03 0-.04-.02-.01-.03 0-.04.02-.05.09-.13.13-.23.13h-.25c-.03 0-.07 0-.08-.04V65.69c0-.07.02-.08.08-.08h.39c.05 0 .08 0 .08-.06 0-.01 0-.03.01-.04.02 0 .02.02.03.03v.99c0 .02-.01.06.02.07.04 0 .02-.04.02-.07v-.81c0-.03 0-.06.02-.08ZM164.93 65.61h.1c.03 0 .03 0 .03.03V66.82c0 .06-.01.12-.05.17-.05.07-.11.1-.19.1h-.27c-.09 0-.17-.04-.21-.13.02-.02.04-.02.06-.02h.26c.1 0 .18-.05.23-.14 0-.01.02-.03 0-.05-.02-.01-.03 0-.04.02-.05.09-.13.13-.23.12h-.25c-.03 0-.07 0-.08-.04V65.66c0-.07.02-.08.08-.08h.44c.02 0 .04 0 .06.01.02.03.02.06.02.09V66.55s0 .02.02.02c.01 0 .02 0 .02-.02V65.68c0-.03 0-.06.02-.08ZM162.69 65.6h.09c.03 0 .03 0 .03.04v1.19c0 .11-.05.19-.14.24-.04.02-.07.03-.11.03h-.26a.24.24 0 0 1-.22-.13c.02-.02.04-.02.06-.02h.26c.1 0 .18-.06.23-.15 0-.01.02-.03 0-.04-.02-.01-.03 0-.04.02-.05.09-.13.13-.23.12h-.25c-.03 0-.07 0-.08-.04v-1.2c0-.07.01-.08.08-.08h.43c.02 0 .04 0 .06.01.02.02.02.05.02.08V66.53c0 .01 0 .03.02.03s.02-.02.02-.03V65.67c0-.03 0-.06.02-.08ZM169.57 58.33c.09.04.14.11.15.21v.3c0 .12-.11.22-.24.23h-1.21c-.02 0-.04 0-.03-.03v-.06c0-.02 0-.03-.03-.03h-.19c.02-.03.06-.02.08-.02h1.06s.02 0 .01-.02l-.01-.01h-.99c-.03 0-.06 0-.08-.02.01-.03.04-.02.06-.02.02 0 .05 0 .07-.01.01-.02.01-.03.01-.05v-.43c0-.03.01-.05.04-.05h1.2c.03 0 .03.02.04.04.01.03.01.06.01.09v.2c0 .1-.04.17-.12.23h-.02s-.02.03-.01.04c0 .02.02.01.03 0 .04-.02.08-.05.11-.09.04-.06.06-.12.05-.19v-.25c0-.01 0-.03.01-.04ZM158.77 58.3h.09c.05 0 .05 0 .05.05v.67c0 .04 0 .05-.04.05h-1.19c-.1 0-.18-.05-.23-.14 0 0 0-.02-.02-.02-.02-.02 0-.05-.02-.08v-.3c0-.13.13-.24.26-.24h.95c.02 0 .05 0 .07.02.01.02.01.04.01.06v.43c0 .07-.01.09-.09.09h-.95c-.02 0-.06 0-.06.01 0 .03.04.02.06.02h1c.08 0 .08 0 .08-.08v-.46c0-.03 0-.05.02-.08ZM158.77 60.54h.11c.02 0 .03 0 .03.03V61.28c0 .02 0 .03-.03.03h-1.17c-.06 0-.12-.01-.17-.04h-.01s-.03-.02-.04-.04l-.03-.06h-.02c-.01-.03-.01-.06-.02-.08v-.27c0-.15.11-.27.26-.27h.94c.03 0 .06 0 .08.02.01.02.01.04.01.06v.43c0 .07-.01.09-.09.09h-1c-.01 0-.02 0-.02.02 0 .01.01.01.02.02h1.09s.04-.01.04-.04v-.51c0-.02 0-.05.02-.07ZM157.57 60.16a.294.294 0 0 1-.12-.1c0-.01 0-.03-.03-.03-.02-.02 0-.05-.02-.07v-.31c0-.12.09-.21.21-.23.04 0 .08-.01.12-.01h.88c.03 0 .05 0 .08.02.01.02.01.04.01.06v.43c0 .07-.01.09-.09.09h-.94c-.02 0-.07-.02-.07.02 0 .03.04.02.07.02h1.02c.04 0 .05-.01.05-.05v-.5c0-.02 0-.04.02-.06h.1c.03 0 .04 0 .04.04v.71c-.01.02-.03.01-.05.01h-1.16c-.04 0-.09 0-.13-.02ZM158.77 62.78h.11c.02 0 .03 0 .03.03v.68c0 .05 0 .05-.05.05h-1.18c-.1 0-.18-.05-.23-.14 0 0 0-.02-.02-.02-.02-.02 0-.05-.02-.07v-.32c0-.1.06-.17.15-.2.05-.01.1-.02.15-.02h.89c.08 0 .08 0 .08.08v.4c0 .07 0 .07-.07.07h-.95c-.02 0-.05 0-.07.01-.01.02 0 .03.01.04h1.06c.05 0 .06 0 .06-.06v-.49c0-.02 0-.05.02-.07ZM169.57 61.68c.09.04.14.11.15.21v.3c0 .1-.06.17-.16.21h-.11s-.04-.01-.07-.01H168.24c-.03-.06-.01-.09.05-.09h.81c.02 0 .05 0 .07-.02.01-.02 0-.03-.02-.04H168.29c-.03 0-.06 0-.08-.02v-.49c0-.07.02-.09.09-.09h1.16c.02 0 .03.02.04.04.01.03.01.06.01.09v.22c0 .09-.04.17-.12.22s-.03.02-.02.04c.01.02.03 0 .05 0 .05-.02.08-.06.11-.1.03-.05.04-.11.04-.17v-.25c0-.01 0-.03.01-.04ZM158.77 61.66h.07q.07 0 .07.08v.57q0 .07-.07.07h-1.08 1.14v.01c0 .01-.03 0-.04 0h-1.25c-.07-.02-.11-.06-.15-.12 0 0 0-.02-.02-.02-.02-.02-.02-.05-.02-.08v-.28c0-.15.11-.26.26-.26h.94c.03 0 .06 0 .08.02.01.02.01.04.01.06v.43c0 .07-.01.09-.09.09H157.65c-.03 0-.05.01-.05.04 0 .02.02.01.03.01h1.08c.02 0 .03 0 .04-.01V61.72c0-.03 0-.05.02-.07ZM160.93 56.03v-1.01a.254.254 0 0 1 .25-.27H161.47c.02 0 .03.02.03.04 0 .03.01.07.01.1v1.1c0 .05-.02.07-.07.07H160.98c-.02 0-.04 0-.05-.02Z"/><path d="M159.34 60.9v2.33c0 .05-.02.07-.06.05 0 0-.01 0-.01-.02v-4.7c0-.04 0-.04.04-.04.02 0 .03 0 .03.03v2.36Z" style="fill:#231704"/><path d="M167.44 57.02s.01.02 0 .03c-.01.01-.03.02-.05.02-.01 0-.02-.01-.02-.02-.02-.03-.03-.06-.06-.09a.218.218 0 0 1-.07-.09s-.03-.03-.05-.04a.537.537 0 0 0-.32-.13h-4.01s-.06-.02-.04-.06c0 0 0-.01.02-.01h3.98c.27 0 .47.12.6.35 0 .01.01.03.02.04Z" style="fill:#211603"/><path class="cls-51" d="M161.27 56.64h1.35l.04.04s0 .04-.05.04h-2.64a.62.62 0 0 0-.41.14c-.15.12-.23.29-.23.48v1c0 .03 0 .03-.03.03-.05 0-.04 0-.04-.04v-.99c0-.31.21-.59.52-.67.06-.02.12-.02.18-.02h1.3Z"/><path class="cls-56" d="m159.77 64.86-.17-.08s-.04-.03-.05-.04a.674.674 0 0 1-.28-.56v-.74c0-.02 0-.02.02-.02h.03c.02 0 .03 0 .03.02V64.15c0 .26.12.45.35.58.1.05.2.06.3.06H162.89c.05 0 .06.01.05.06 0 .01 0 .02-.02.02H159.99c-.07 0-.14-.01-.2-.02Z"/><path class="cls-55" d="M165.41 66.88s.06.02.09.02h.25c.09 0 .16-.05.2-.13 0-.01 0-.03.02-.03s.04 0 .05.02c.01 0 0 .02 0 .03-.04.11-.15.18-.27.19h-.35a.331.331 0 0 1-.2-.27v-1.24c0-.06 0-.05.05-.05h.76c.02 0 .03 0 .03.03v1.12c0 .04 0 .04-.04.04s-.04 0-.04-.05V65.5c-.03.02-.05.01-.08.01h-.51c-.06 0-.07 0-.07.07v1.1c0 .07.02.13.08.17.01 0 .02.02.03.04Z"/><path class="cls-54" d="M168.23 59.98h.93c.04 0 .06.02.04.06 0 0 0 .01-.02.01h-1.12c-.05 0-.05 0-.05-.05v-.75c0-.04 0-.04.04-.04h1.23c.14 0 .24.08.28.21v.02c.02.1.01.21.01.31 0 .13-.08.24-.19.28-.03.01-.03.01-.04-.02-.01-.04-.01-.04.03-.06.08-.04.13-.1.13-.19v-.26c0-.03 0-.06-.02-.09 0 0-.01 0-.02-.01-.07-.09-.16-.1-.26-.09h-1.05c-.03 0-.04.01-.04.04v.57c0 .03.02.04.04.04.03 0 .06 0 .09.02Z"/><path class="cls-51" d="M169.57 60.57v.31c0 .13-.07.23-.19.27-.01 0-.03.02-.04 0-.01-.04-.01-.05.01-.06.1-.04.14-.12.14-.22v-.22c0-.04 0-.08-.02-.11-.02 0-.03-.02-.04-.03a.241.241 0 0 0-.18-.07h-1.08c-.07 0-.07 0-.07.07v.5c0 .07 0 .07.07.07.02 0 .04 0 .06.02h.93l.04.04s0 .03-.04.03H168.03c-.03 0-.04 0-.04-.03v-.77c0-.03 0-.03.04-.03h1.21c.15 0 .26.1.29.21s0 .02 0 .02Z"/><path d="M163.81 65.61V66.56l-.04.04s-.04 0-.04-.04V65.61c-.02-.02-.02-.04-.02-.06 0-.03-.01-.04-.04-.04h-.57c-.03 0-.04.01-.04.04v1.11c0 .07.02.13.08.18.01.01.02.02.03.04.03.02.06.02.1.02h.24c.1 0 .17-.05.21-.14 0-.01 0-.03.02-.03s.04 0 .05.02v.03c-.04.11-.15.19-.27.19H163.18c-.12-.05-.21-.16-.21-.29v-1.25c0-.02 0-.03.02-.02h.79c.02 0 .02 0 .02.03v.18Z" style="fill:#211502"/><path class="cls-47" d="M169.57 61.68V62c0 .12-.07.23-.18.27-.02 0-.03.02-.05 0-.01-.04-.01-.05.02-.06.09-.04.14-.11.14-.21v-.23c0-.04 0-.07-.02-.1-.03 0-.04-.03-.05-.04a.176.176 0 0 0-.13-.06h-1.13c-.05 0-.06 0-.06.06v.54c0 .05 0 .05.06.06.02 0 .04 0 .06.01h.92q.06 0 .06.07s-.03.02-.04.02h-1.11c-.04 0-.04 0-.04-.04v-.76c0-.04 0-.04.05-.04h1.18c.17 0 .28.08.33.23Z"/><path class="cls-55" d="M158.77 59.42v.6c0 .04 0 .04-.04.04H157.6s-.02 0-.02-.02c0-.05 0-.05.05-.05h1c.07 0 .06 0 .06-.06v-.5c-.02-.02-.02-.04-.02-.07 0-.03-.01-.04-.04-.04h-1.12c-.12 0-.2.08-.21.2v.26c0 .07.03.13.09.17.01 0 .03.02.04.04.01 0 .01.02.01.03v.03s-.03.02-.04 0a.285.285 0 0 1-.19-.22V59.54a.3.3 0 0 1 .31-.31h1.22c.02 0 .03 0 .03.03v.17ZM162.05 66.88s.06.02.09.02h.25c.1 0 .16-.05.2-.14 0-.01 0-.03.02-.03s.04 0 .05.02v.03c-.04.11-.15.19-.27.19h-.33a.309.309 0 0 1-.22-.3v-1.23c0-.04 0-.04.04-.04h.76c.04 0 .04 0 .04.04v1.11c0 .05 0 .05-.05.05-.02 0-.02 0-.02-.02V65.61a.076.076 0 0 1-.02-.05c0-.05 0-.05-.06-.05H162c-.06 0-.06 0-.06.06v1.09c0 .08.02.14.08.19.01.01.02.02.03.04Z"/><path class="cls-53" d="M157.42 63.33v.06c0 .02-.02.02-.03.01a.285.285 0 0 1-.19-.22V62.88c0-.18.13-.3.3-.3h1.21s.04 0 .04.04v.76c0 .04 0 .04-.04.04h-1.11c-.05 0-.05-.02-.03-.08.02-.01.03 0 .05 0h1q.05 0 .05-.05v-.56c0-.06 0-.06-.06-.06h-1.12c-.12.01-.19.09-.2.2v.25c0 .07.04.12.09.16.02.01.03.02.04.04Z"/><path class="cls-51" d="M157.41 61.09s.02.02.02.04c0 .01-.01.02 0 .03 0 .02-.02.01-.03 0a.269.269 0 0 1-.19-.22V60.64c0-.2.16-.31.31-.3h1.21c.05 0 .05 0 .05.05v.74c0 .04 0 .04-.04.04H157.6v-.06s.01-.01.02-.01h1.04c.05 0 .05 0 .05-.05v-.51c-.02-.02-.01-.05-.02-.07 0-.02-.01-.03-.04-.04H157.52c-.06 0-.11.01-.15.06a.22.22 0 0 0-.06.15v.23c0 .08.03.14.1.18.01 0 .02.02.03.03Z"/><path class="cls-54" d="M164.93 65.61v.94c0 .04 0 .04-.04.04-.03 0-.03 0-.03-.04V65.6c-.01-.02-.02-.04-.01-.06 0-.03-.02-.04-.05-.04h-.56c-.04 0-.05.02-.05.06v1.09c0 .08.02.14.08.19.01 0 .02.02.03.03.03.02.06.02.09.02h.25c.09 0 .16-.05.2-.13 0-.01 0-.03.02-.03s.04 0 .05.02v.03c-.03.08-.09.14-.17.18-.04.01-.07.02-.11.02H164.29a.346.346 0 0 1-.2-.28v-1.23c0-.06 0-.05.05-.05h.76c.02 0 .03 0 .03.03V65.62Z"/><path class="cls-47" d="M157.42 62.21s.02.02.02.03v.03c0 .03-.02.02-.04.01a.27.27 0 0 1-.18-.18.355.355 0 0 1-.02-.1v-.24c0-.15.09-.26.22-.29h1.3s.04 0 .04.04v.76c0 .02 0 .04-.01.05H157.58c-.02-.02 0-.04-.01-.06 0 0 0-.01.02-.01h1.05c.05 0 .05 0 .05-.05v-.51s-.02-.04-.02-.06c0-.04-.02-.05-.05-.05h-1.1c-.15 0-.23.08-.23.23v.18c0 .09.03.17.1.22.01 0 .02.02.03.03Z"/><path class="cls-53" d="M168.1 63.34H169.17c.03 0 .05.03.04.06H168.05c-.02 0-.01-.02-.01-.03v-.78c0-.02 0-.02.02-.02h1.21c.14 0 .27.06.33.23v.31c0 .13-.06.22-.18.28-.01 0-.03.02-.04 0-.01-.02-.02-.04-.01-.06 0 0 .01-.01.02-.01.1-.04.14-.12.14-.23v-.22c0-.04 0-.07-.02-.1-.01 0-.02-.01-.03-.02-.05-.06-.12-.08-.2-.08H168.19c-.06 0-.06 0-.06.06V63.33Z"/><path class="cls-54" d="M157.42 58.85s.02.02 0 .03v.03c0 .02-.02.01-.04 0a.3.3 0 0 1-.19-.23V58.34c.02-.13.12-.23.25-.25h1.28c.03 0 .03 0 .03.03v.76c0 .04 0 .04-.04.04h-1.11c-.01 0-.03 0-.04-.01v-.05s.01-.01.02-.01h1.04c.06 0 .05 0 .05-.05v-.51c-.02-.02-.01-.05-.01-.08s-.01-.04-.04-.04H157.48c-.11.01-.19.09-.2.2v.26c0 .07.04.12.09.16.02.01.03.02.04.04ZM168.09 58.86H169.16c.04 0 .05.02.04.06 0 0 0 .01-.02.01h-1.17v-.81c0-.02 0-.03.02-.03h1.23c.07 0 .13.01.18.05.06.04.1.1.12.18v.32c0 .13-.07.23-.19.27-.01 0-.03.02-.04 0-.01-.04-.01-.05.02-.06a.23.23 0 0 0 .14-.22v-.23c0-.04 0-.07-.02-.1h-.01v-.02h-.01s-.02-.03-.03-.04h-.02v-.02h-.03a.507.507 0 0 0-.13-.02h-1.05c-.07 0-.08 0-.08.08V58.87Z"/><path class="cls-53" d="M160.93 66.88s.07.02.1.02h.23c.1 0 .18-.04.22-.14 0 0 0-.02.02-.02s.04 0 .05.02v.03a.31.31 0 0 1-.25.19h-.36a.331.331 0 0 1-.2-.26v-1.25c0-.06 0-.05.05-.05h.79v1.14c0 .04 0 .05-.05.04-.02 0-.02 0-.02-.02v-1.09c-.02.01-.05.01-.08.01h-.53c-.07 0-.07 0-.07.07v1.06c0 .08.02.16.09.21.01 0 .02.02.02.03ZM160.93 56.03h.5c.06 0 .05 0 .05-.05v-1.12c0-.04 0-.08-.02-.12-.04-.08-.1-.12-.18-.12H161c-.08 0-.15.05-.18.12-.02.04-.02.04-.06.03h-.02v-.04c.05-.11.13-.18.26-.18h.28c.12 0 .23.08.26.2v.04s.03.05.03.07v1.19c0 .08-.01.09-.09.09h-.49c-.02 0-.05 0-.07-.02h-.17c-.02 0-.03 0-.03-.03v-1.15h.06s.01 0 .01.02V56c0 .06 0 .05.05.05h.08Z"/><path d="M160.93 56.11H161.51c.05 0 .05 0 .05-.05v-1.29c.09.05.13.13.13.23v1.19l-.03.03h-.69s-.04 0-.04-.04v-.09Z" style="fill:#fdb64e"/><path d="M159.64 57.53v6.88-6.89Z" style="fill:#0099b9"/><path d="M157.6 62.41h1.29-1.28c.01-.02.03-.01.05-.01H158.88s.02 0 .02-.02v-.64c0-.02 0-.03-.03-.03-.02 0-.04 0-.06-.02q.1 0 .1.09v.63s0 .04-.04.04h-1.2c-.03 0-.05 0-.07-.01Z" style="fill:#f9b64d"/><path d="M168.25 62.37h1.18c.02 0 .04-.01.05.02h-1.19 1.19c.03 0 .06-.01.09 0s-.01 0-.02 0h-.02s-.03 0-.05.01h-1.22s-.03-.03 0-.05Z" style="fill:#f9b74c"/><path d="M157.57 60.16c.14.03.28.02.43.02H158.91s0 .02-.01.02h-1.2c-.04 0-.09 0-.13-.03Z" style="fill:#f8bc5a"/><path d="M163.98 65.65v1.2-1.2Z" style="fill:#feffef"/><path d="M168.25 62.37v.05c-.02 0-.03-.01-.03-.03v-.09H169.18c-.01.02-.03.01-.05.01h-.86c-.05 0-.06.01-.04.07Z" style="fill:#f8bb5f"/><path class="cls-37" d="M157.48 61.22s.03.02.04.04c-.02 0-.03-.02-.04-.04Z"/><path class="cls-35" d="M169.48 62.42h.05c-.01.01-.03 0-.05 0Z"/><path class="cls-22" d="M169.62 60.59s-.02 0-.03-.02c.01 0 .02 0 .03.02Z"/><path class="cls-35" d="M169.54 62.41h.02-.02Z"/><path class="cls-22" d="M169.57 60.57h.02-.02Z"/><path class="cls-37" d="M157.52 61.25h.01-.01Z"/><path class="cls-56" d="M167.48 64.37a.66.66 0 0 1-.25.36c-.13.1-.27.14-.43.14h-3.67c-.04 0-.04 0-.04-.04s0-.04.04-.04H166.79a.61.61 0 0 0 .62-.43l.02-.04c.03-.06.02-.13.02-.19v-1.99c0-.02.01-.03.04-.03.02 0 .03.01.03.03v1.95c0 .09 0 .18-.02.27Z"/><path d="M167.43 59.61v-2.37c0-.02 0-.03.02-.03.04 0 .05 0 .05.04v4.68c0 .05 0 .05-.04.05-.03 0-.03 0-.03-.03v-2.33Z" style="fill:#231605"/><path d="M167.48 64.37s0-.09.01-.13v-2.09s0-.02-.02-.02-.02 0-.02.02v1.97c0 .05-.01.11-.01.16 0 .01 0 .03-.02.04.02-.13.01-.27.01-.4v-1.76c0-.04.02-.06.06-.04 0 0 .01 0 .01.02v2.02c0 .07 0 .13-.02.2v.02Z" style="fill:#221809"/><path class="cls-32" d="M160.93 66.88c-.07-.03-.1-.08-.12-.15V65.5c0-.02 0-.02.02-.02h.66v.08c0 .04 0 .05-.04.05h-.48c-.02 0-.03 0-.03.03v1.23Z"/><path class="cls-27" d="M163.17 66.88a.183.183 0 0 1-.12-.18V65.5c0-.01 0-.02.02-.02h.62c.05 0 .04 0 .04.05v.08h-.52c-.04 0-.04 0-.04.04v1.22Z"/><path class="cls-30" d="M168.1 63.34v-.64c0-.04 0-.04.04-.04h1.15c.09 0 .16.04.2.12-.02.01-.04 0-.06 0h-1.13q-.06 0-.06.06V63.3c0 .02 0 .03-.03.03h-.1ZM168.23 59.98h-.12c-.02 0-.02 0-.02-.02v-.64c0-.02 0-.02.02-.02h1.16c.09 0 .16.04.2.12H168.26c-.03 0-.03 0-.04.04v.52Z"/><path d="M168.26 59.96Z" style="fill:#feb143"/><path class="cls-32" d="M168.23 61.1h-.11c-.04 0-.04 0-.04-.04v-.62c0-.02 0-.03.03-.03h1.16c.09 0 .15.04.2.12-.02.01-.04 0-.06 0h-1.13q-.06 0-.06.06v.5Z"/><path class="cls-27" d="M165.41 66.88a.185.185 0 0 1-.12-.15v-1.22c0-.01 0-.02.02-.02h.66v.07c0 .06 0 .06-.05.06h-.47c-.02 0-.03 0-.03.03v1.23Z"/><path d="M164.29 66.88c-.08-.03-.12-.1-.13-.18V65.52c0-.03 0-.03.03-.03H164.78c.06 0 .05 0 .05.06v.07h-.52c-.03 0-.03 0-.04.03v1.23Z" style="fill:#fdfefd"/><path class="cls-28" d="M162.05 66.88c-.08-.03-.12-.1-.13-.18V65.54c0-.06 0-.05.05-.05h.6c.04 0 .04 0 .04.04v.09h-.52c-.02 0-.03 0-.03.03v1.24ZM168.09 58.86v-.66c0-.02 0-.02.02-.02h1.16c.04 0 .08 0 .11.03 0 0 .01 0 .02.01s0 0 .01 0 .03.03.05.05 0 0 0 .01 0 .02-.01.02h-1.17c-.06 0-.06 0-.06.06v.49h-.13Z"/><path class="cls-19" d="M168.23 58.85v-.52c0-.03 0-.04.03-.04h1.16c.02 0 .04.01.05-.02 0 0 .01.01.01.02-.02.01-.04 0-.06 0h-1.13c-.06 0-.06 0-.06.06v.5Z"/><path class="cls-36" d="M169.47 58.32Z"/><path class="cls-28" d="M157.42 58.85c-.08-.02-.14-.09-.15-.19v-.28c0-.12.1-.21.22-.21h1.17c.01 0 .02 0 .02.02v.11h-1.02c-.14 0-.25.11-.25.25v.29Z"/><path class="cls-36" d="M157.65 58.32Z"/><path class="cls-32" d="M157.41 61.09c-.09-.04-.14-.11-.14-.2v-.26c0-.13.1-.21.22-.21h1.15c.04 0 .04 0 .04.04v.09h-1.02c-.12 0-.21.08-.24.19v.36Z"/><path class="cls-30" d="M157.42 59.97a.214.214 0 0 1-.15-.19v-.27c0-.12.1-.21.22-.21h1.15c.04 0 .04 0 .04.04v.09h-1.05c-.13.02-.22.12-.22.24v.3ZM157.42 63.33c-.08-.02-.12-.08-.14-.15V62.89c0-.14.09-.23.24-.23h1.15c.02 0 .03 0 .03.03v.1c-.02.01-.03 0-.05 0h-.95c-.04 0-.08 0-.12.02-.08.04-.13.11-.13.2v.31Z"/><path d="M157.56 62.81s.05-.02.07-.03h1.05v.52c0 .04 0 .04-.04.04h-1.06c.01-.02.04-.01.05-.01h.97c.07 0 .07 0 .07-.07v-.42c0-.05 0-.05-.05-.05h-.96c-.04 0-.08.02-.12.02Z" style="fill:#f9b959"/><path class="cls-26" d="M168.23 62.22h-.1c-.04 0-.04 0-.04-.04v-.6c0-.04 0-.04.04-.04h1.15c.09 0 .16.04.2.12-.02.01-.04 0-.06 0h-1.13c-.07 0-.06 0-.06.07v.5ZM157.42 62.21c-.09-.03-.14-.1-.14-.2v-.26c0-.13.1-.22.22-.22h1.15c.04 0 .04 0 .04.04v.09h-1.01c-.15 0-.27.12-.26.27v.28Z"/><path d="M157.59 62.3H158.76s.01.01 0 .02h-.02c-.02-.02-.04 0-.06 0h-1.1Z" style="fill:#f9ba5c"/><path class="cls-28" d="M162.6 54.76c-.02-.08-.09-.14-.19-.15h-.28c-.12 0-.21.1-.21.22V56c0 .01 0 .02.02.02h.11V55c0-.14.11-.25.25-.25h.29Z"/><path class="cls-35" d="M162.06 54.98c0-.12.11-.24.23-.24h.3c.03 0 .03.03.03.05V55.94c0 .03 0 .05-.01.08h-.01s-.02 0-.03.01h-.04c0-.03-.03-.03-.05-.03h-.36c-.06 0-.07 0-.07-.07V54.98Z"/><path class="cls-53" d="M162.6 56.03h.01v-1.19c0-.03 0-.06-.02-.09-.03-.08-.1-.12-.18-.13h-.28c-.09 0-.15.05-.19.13v.03s-.06 0-.08-.02c0-.04.03-.08.06-.12.06-.07.13-.1.22-.1h.27c.13 0 .24.08.28.21v.03s.03.04.03.07v1.19c0 .07-.01.09-.09.09h-.49c-.02 0-.05 0-.07-.02h-.15c-.07 0-.06 0-.06-.06v-1.12h.06V56c0 .05 0 .05.04.05h.09c.02-.01.04-.02.06-.02h.36c.02 0 .04 0 .06.02h.06Z"/><path class="cls-35" d="M162.05 56.11h.58c.05 0 .05 0 .05-.05v-1.27s.05.02.06.05c.04.05.07.11.07.17v1.19c0 .04 0 .04-.05.04h-.67c-.04 0-.04 0-.04-.04v-.09Z"/><path class="cls-39" d="M162.54 56.03h-.49v-1.04c.01 0 0-.02.02-.03.01 0 0 .02 0 .02-.02.02-.02.05-.02.07v.91c0 .03 0 .03.04.03h.45c.01.02 0 .03-.01.05ZM162.6 56.03h-.02s0-.03.02-.05v.05Z"/><path class="cls-19" d="M169.46 58.26s-.04-.03-.05-.05c.02.01.04.03.05.05ZM169.4 58.21s-.01 0-.02-.01c0 0 .01 0 .02.01ZM169.47 58.27v-.01.01ZM169.41 58.22h-.01.01Z"/><path d="M169.47 62.4Z" style="fill:#ffb259"/><path class="cls-59" d="M167.48 64.18v-2.03 2.03ZM167.48 61.9v-4.54 4.54Z"/><path class="cls-27" d="M161.25 61.34Z"/><path class="cls-28" d="M163.72 54.76c-.02-.08-.09-.14-.19-.15h-.28c-.12 0-.21.1-.21.22V56c0 .01 0 .02.02.02h.11V55c0-.14.11-.25.25-.25h.29Z"/><path class="cls-35" d="M163.18 54.98c0-.12.11-.24.23-.24h.3c.03 0 .03.03.03.05V55.94c0 .03 0 .05-.01.08h-.01s-.02 0-.03.01h-.04c0-.03-.03-.03-.05-.03h-.36c-.06 0-.07 0-.07-.07V54.98Z"/><path class="cls-53" d="M163.72 56.03h.01v-1.19c0-.03 0-.06-.02-.09-.03-.08-.1-.12-.18-.13h-.28c-.09 0-.15.05-.19.13v.03s-.06 0-.08-.02c0-.04.03-.08.06-.12.06-.07.13-.1.22-.1h.27c.13 0 .24.08.28.21v.03s.03.04.03.07v1.19c0 .07-.01.09-.09.09h-.49c-.02 0-.05 0-.07-.02h-.15c-.07 0-.06 0-.06-.06v-1.12h.06V56c0 .05 0 .05.04.05h.09c.02-.01.04-.02.06-.02h.36c.02 0 .04 0 .06.02h.06Z"/><path class="cls-35" d="M163.18 56.11h.58c.05 0 .05 0 .05-.05v-1.27s.05.02.06.05c.04.05.07.11.07.17v1.19c0 .04 0 .04-.05.04h-.67c-.04 0-.04 0-.04-.04v-.09Z"/><path class="cls-39" d="M163.66 56.03h-.49v-1.04c.01 0 0-.02.02-.03.01 0 0 .02 0 .02-.02.02-.02.05-.02.07v.91c0 .03 0 .03.04.03h.45c.01.02 0 .03-.01.05ZM163.72 56.03h-.02s0-.03.02-.05v.05Z"/><path class="cls-28" d="M164.84 54.76c-.02-.08-.09-.14-.19-.15h-.28c-.12 0-.21.1-.21.22V56c0 .01 0 .02.02.02h.11V55c0-.14.11-.25.25-.25h.29Z"/><path class="cls-35" d="M164.3 54.98c0-.12.11-.24.23-.24h.3c.03 0 .03.03.03.05V55.94c0 .03 0 .05-.01.08h-.01s-.02 0-.03.01h-.04c0-.03-.03-.03-.05-.03h-.36c-.06 0-.07 0-.07-.07V54.98Z"/><path class="cls-53" d="M164.84 56.03h.01v-1.19c0-.03 0-.06-.02-.09-.03-.08-.1-.12-.18-.13h-.28c-.09 0-.15.05-.19.13v.03s-.06 0-.08-.02c0-.04.03-.08.06-.12.06-.07.13-.1.22-.1h.27c.13 0 .24.08.28.21v.03s.03.04.03.07v1.19c0 .07-.01.09-.09.09h-.49c-.02 0-.05 0-.07-.02h-.15c-.07 0-.06 0-.06-.06v-1.12h.06V56c0 .05 0 .05.04.05h.09c.02-.01.04-.02.06-.02h.36c.02 0 .04 0 .06.02h.06Z"/><path class="cls-35" d="M164.3 56.11h.58c.05 0 .05 0 .05-.05v-1.27s.05.02.06.05c.04.05.07.11.07.17v1.19c0 .04 0 .04-.05.04h-.67c-.04 0-.04 0-.04-.04v-.09Z"/><path class="cls-39" d="M164.78 56.03h-.49v-1.04c.01 0 0-.02.02-.03.01 0 0 .02 0 .02-.02.02-.02.05-.02.07v.91c0 .03 0 .03.04.03h.45c.01.02 0 .03-.01.05ZM164.84 56.03h-.02s0-.03.02-.05v.05Z"/><path class="cls-28" d="M165.97 54.76c-.02-.08-.09-.14-.19-.15h-.28c-.12 0-.21.1-.21.22V56c0 .01 0 .02.02.02h.11V55c0-.14.11-.25.25-.25h.29Z"/><path class="cls-35" d="M165.43 54.98c0-.12.11-.24.23-.24h.3c.03 0 .03.03.03.05V55.94c0 .03 0 .05-.01.08h-.01s-.02 0-.03.01h-.04c0-.03-.03-.03-.05-.03h-.36c-.06 0-.07 0-.07-.07V54.98Z"/><path class="cls-53" d="M165.97 56.03h.01v-1.19c0-.03 0-.06-.02-.09-.03-.08-.1-.12-.18-.13h-.28c-.09 0-.15.05-.19.13v.03s-.06 0-.08-.02c0-.04.03-.08.06-.12.06-.07.13-.1.22-.1h.27c.13 0 .24.08.28.21v.03s.03.04.03.07v1.19c0 .07-.01.09-.09.09h-.49c-.02 0-.05 0-.07-.02h-.15c-.07 0-.06 0-.06-.06v-1.12h.06V56c0 .05 0 .05.04.05h.09c.02-.01.04-.02.06-.02h.36c.02 0 .04 0 .06.02h.06Z"/><path class="cls-35" d="M165.43 56.11h.58c.05 0 .05 0 .05-.05v-1.27s.05.02.06.05c.04.05.07.11.07.17v1.19c0 .04 0 .04-.05.04h-.67c-.04 0-.04 0-.04-.04v-.09Z"/><path class="cls-39" d="M165.91 56.03h-.49v-1.04c.01 0 0-.02.02-.03.01 0 0 .02 0 .02-.02.02-.02.05-.02.07v.91c0 .03 0 .03.04.03h.45c.01.02 0 .03-.01.05ZM165.97 56.03h-.02s0-.03.02-.05v.05Z"/></g><rect class="cls-27" x="102.19" y="58.61" width="24.96" height="3.32" rx="1.66" ry="1.66"/><rect class="cls-27" x="102.19" y="63.96" width="12.01" height="3.32" rx="1.66" ry="1.66"/></g></g></g></svg>