<svg xmlns="http://www.w3.org/2000/svg" width="175" height="131"><defs><linearGradient x1="-47.02%" y1="1.529%" x2="111.591%" y2="80.796%" id="a"><stop stop-color="#de7f00" offset="24%"/><stop stop-color="#ffae3d" offset="52%"/><stop stop-color="#ffda6a" offset="88%"/></linearGradient><linearGradient x1="-17.716%" y1="102.107%" x2="108.243%" y2="5.2%" id="b"><stop stop-color="#de7f00" offset="0%"/><stop stop-color="#ffae3d" offset="30%"/><stop stop-color="#ffda6a" offset="56%"/><stop stop-color="#ffe9a8" offset="93%"/></linearGradient><linearGradient x1=".337%" y1="37.534%" x2="99.651%" y2="62.464%" id="c"><stop stop-color="#ff6236" offset="20%"/><stop stop-color="#ff9b59" offset="56%"/><stop stop-color="#ff7c57" offset="83%"/></linearGradient><linearGradient x1="37.008%" y1="116.551%" x2="62.454%" y2="-38.505%" id="d"><stop stop-color="#de7f00" offset="0%"/><stop stop-color="#ffae3d" offset="52%"/><stop stop-color="#ffda6a" offset="88%"/></linearGradient><linearGradient x1="-75.056%" y1="116.163%" x2="132.018%" y2="3.137%" id="e"><stop stop-color="#de7f00" offset="24%"/><stop stop-color="#ffae3d" offset="43%"/><stop stop-color="#ffda6a" offset="78%"/></linearGradient><linearGradient x1="-48.06%" y1="110.618%" x2="134.704%" y2="-7.07%" id="f"><stop stop-color="#de7f00" offset="24%"/><stop stop-color="#ffae3d" offset="43%"/><stop stop-color="#ffda6a" offset="66%"/><stop stop-color="#ffe9a8" offset="88%"/></linearGradient><linearGradient x1="-48.351%" y1=".571%" x2="110.555%" y2="80.005%" id="g"><stop stop-color="#de7f00" offset="24%"/><stop stop-color="#ffae3d" offset="52%"/><stop stop-color="#ffda6a" offset="88%"/></linearGradient><linearGradient x1="-34.449%" y1="64.243%" x2="122.472%" y2="37.649%" id="h"><stop stop-color="#de7f00" offset="0%"/><stop stop-color="#ffae3d" offset="30%"/><stop stop-color="#ffda6a" offset="56%"/><stop stop-color="#ffe9a8" offset="93%"/></linearGradient></defs><ellipse fill="url(#a)" transform="matrix(.226651 -.973976 .973976 .226651 -4.957681 43.414787)" cx="24.86" cy="24.829" rx="20.685" ry="20.701"/><path d="M32.347 42.834a18.86 18.86 0 0 1-20.602-3.867 18.82 18.82 0 0 1-4.283-20.503 18.83 18.83 0 0 1 10.1-10.307 18.852 18.852 0 0 1 14.436-.137c7.075 2.846 11.739 9.67 11.815 17.29s-4.449 14.536-11.466 17.523zM18.003 9.194C9.004 13.041 4.826 23.445 8.669 32.439s14.253 13.176 23.257 9.344 13.198-14.231 9.369-23.231c-1.847-4.327-5.338-7.744-9.707-9.499s-9.256-1.704-13.586.142z" fill="url(#b)"/><path d="M28.417 28.54a2.26 2.26 0 0 0-.369-.766 1.65 1.65 0 0 0-.602-.514 3.858 3.858 0 0 0-.912-.301 10.079 10.079 0 0 0-1.262-.136 20.3 20.3 0 0 1-2.368-.223 7.283 7.283 0 0 1-1.941-.543 4.443 4.443 0 0 1-1.427-1.047 4.841 4.841 0 0 1-1.077-3.51 4.03 4.03 0 0 1 .553-1.61c.31-.514.711-.968 1.184-1.338a6.543 6.543 0 0 1 1.776-.97l-.679-2.327 1.873-.553.689 2.366a5.908 5.908 0 0 1 1.941 0 5.03 5.03 0 0 1 1.708.64 4.85 4.85 0 0 1 1.33 1.261 6.08 6.08 0 0 1 .961 1.813l-3.387.97a2.91 2.91 0 0 0-1.155-1.784 2.07 2.07 0 0 0-1.689-.155 2.71 2.71 0 0 0-.873.417 1.88 1.88 0 0 0-.505.582 1.63 1.63 0 0 0-.184.708 2.42 2.42 0 0 0 .097.785c.07.249.182.485.33.698a1.7 1.7 0 0 0 .582.485 3.43 3.43 0 0 0 .922.301 12.18 12.18 0 0 0 1.32.165l2.329.262a7.1 7.1 0 0 1 1.893.562 4.09 4.09 0 0 1 2.29 2.793 4.38 4.38 0 0 1 .175 1.813 4 4 0 0 1-.563 1.59 4.85 4.85 0 0 1-1.203 1.319 7.24 7.24 0 0 1-1.796.97l.641 2.163-1.863.543-.631-2.153a8.252 8.252 0 0 1-1.99.155 5.13 5.13 0 0 1-1.941-.465 4.61 4.61 0 0 1-1.582-1.222 5.611 5.611 0 0 1-1.077-2.124l3.387-.97a3.47 3.47 0 0 0 .592 1.232 2.2 2.2 0 0 0 .825.659 2.29 2.29 0 0 0 .971.194 3.76 3.76 0 0 0 .971-.155 3.01 3.01 0 0 0 .971-.427 1.94 1.94 0 0 0 .582-.592 1.64 1.64 0 0 0 .252-.718c.038-.283.014-.57-.068-.844z" opacity=".63" fill="#fff"/><path d="m142.708 22.722 11.647 62.063a5.08 5.08 0 0 1-4.047 5.915L41.364 111.142a5.085 5.085 0 0 1-5.92-4.044L23.797 45.035a5.08 5.08 0 0 1 4.047-5.915l108.944-20.452a5.085 5.085 0 0 1 5.92 4.053z" fill="url(#c)"/><g opacity=".5" fill="#fff"><path d="m43.077 91.82 29.053-5.454a2.27 2.27 0 0 1 2.647 1.81l.055.291a2.267 2.267 0 0 1-1.808 2.647L43.97 96.567a2.27 2.27 0 0 1-2.647-1.81l-.055-.291a2.267 2.267 0 0 1 1.808-2.647zm38.263-7.178 29.053-5.454a2.27 2.27 0 0 1 2.647 1.81l.055.291a2.267 2.267 0 0 1-1.808 2.647l-29.054 5.453a2.27 2.27 0 0 1-2.647-1.81l-.055-.291a2.267 2.267 0 0 1 1.808-2.647zM41.684 66.941a5.54 5.54 0 0 1-.068 2.706 2.49 2.49 0 0 1-1.911 1.674 2.496 2.496 0 0 1-2.388-.87 6.6 6.6 0 0 1-.971-5.188 2.51 2.51 0 0 1 1.907-1.686 2.515 2.515 0 0 1 2.403.843 5.62 5.62 0 0 1 1.029 2.521zm-1.33.242a5.42 5.42 0 0 0-.544-1.629c-.359-.63-.806-.902-1.33-.805s-.854.514-.971 1.222a5.41 5.41 0 0 0 .087 1.726c.343 1.804.99 2.618 1.941 2.444.534-.097.844-.504.971-1.232a5.423 5.423 0 0 0-.155-1.726zm7.289-1.366a5.44 5.44 0 0 1-.058 2.706 2.494 2.494 0 0 1-4.309.805 6.53 6.53 0 0 1-.971-5.188 2.5 2.5 0 0 1 1.921-1.681c.9-.167 1.819.168 2.398.877a5.46 5.46 0 0 1 1.019 2.483zm-1.33.242a5.34 5.34 0 0 0-.544-1.639c-.359-.63-.796-.892-1.32-.795s-.864.504-.971 1.222a5.11 5.11 0 0 0 .078 1.726c.343 1.804.99 2.618 1.941 2.444.534-.097.844-.514.971-1.241a5.42 5.42 0 0 0-.155-1.716zm7.337-1.358a5.54 5.54 0 0 1-.068 2.706 2.49 2.49 0 0 1-1.911 1.674 2.496 2.496 0 0 1-2.388-.87 5.563 5.563 0 0 1-1.048-2.492 5.62 5.62 0 0 1 .058-2.696 2.516 2.516 0 0 1 4.328-.815A5.62 5.62 0 0 1 53.65 64.7zm-1.339.242a5.35 5.35 0 0 0-.602-1.629c-.359-.63-.806-.902-1.33-.805s-.864.514-.971 1.222a5.36 5.36 0 0 0 .078 1.726c.34 1.804.971 2.628 1.941 2.453.534-.107.854-.514.971-1.241a5.476 5.476 0 0 0-.126-1.726h.039zm7.26-1.367a5.42 5.42 0 0 1-.097 2.706 2.485 2.485 0 0 1-4.299.815 5.476 5.476 0 0 1-1.038-2.502 5.36 5.36 0 0 1 .058-2.686 2.504 2.504 0 0 1 4.309-.815 5.473 5.473 0 0 1 1.068 2.483zm-1.33.252a5.42 5.42 0 0 0-.544-1.629c-.359-.64-.796-.902-1.33-.805s-.854.504-.971 1.222a5.11 5.11 0 0 0 .078 1.726c.336 1.804.983 2.618 1.941 2.444.534-.097.844-.514.971-1.232a5.423 5.423 0 0 0-.146-1.726zm10.366-1.939a5.55 5.55 0 0 1-.058 2.706 2.494 2.494 0 0 1-4.309.805 5.476 5.476 0 0 1-1.038-2.502 5.36 5.36 0 0 1 .058-2.686 2.5 2.5 0 0 1 1.918-1.687c.9-.169 1.821.165 2.401.873a5.52 5.52 0 0 1 1.029 2.492zm-1.368.242a5.42 5.42 0 0 0-.505-1.59c-.359-.63-.796-.902-1.33-.805s-.854.514-.971 1.222a5.083 5.083 0 0 0 .078 1.726c.336 1.804.967 2.618 1.893 2.444.534-.097.844-.504.971-1.232a5.405 5.405 0 0 0-.136-1.765zm7.336-1.367a5.54 5.54 0 0 1-.068 2.686 2.483 2.483 0 0 1-4.299.805 5.42 5.42 0 0 1-1.029-2.473 5.63 5.63 0 0 1 0-2.696 2.5 2.5 0 0 1 1.921-1.681c.9-.167 1.819.168 2.398.877a5.47 5.47 0 0 1 1.077 2.483zm-1.339.252a5.6 5.6 0 0 0-.534-1.639c-.359-.63-.806-.892-1.33-.795s-.864.504-.971 1.222a5.37 5.37 0 0 0 .087 1.707c.343 1.804.99 2.618 1.941 2.444.534-.097.854-.514.971-1.241a5.69 5.69 0 0 0-.165-1.697zm7.298-1.367a5.54 5.54 0 0 1-.068 2.706 2.49 2.49 0 0 1-1.911 1.674 2.496 2.496 0 0 1-2.388-.87 5.444 5.444 0 0 1-1.038-2.492 5.505 5.505 0 0 1 .049-2.696 2.516 2.516 0 0 1 4.328-.815 5.52 5.52 0 0 1 1.029 2.492zm-1.33.242a5.61 5.61 0 0 0-.544-1.629c-.359-.63-.806-.902-1.33-.805s-.854.514-.971 1.222a5.41 5.41 0 0 0 .087 1.726c.34 1.804.971 2.628 1.941 2.453.534-.107.844-.514.971-1.241a5.423 5.423 0 0 0-.155-1.726zM86.494 58.524a5.44 5.44 0 0 1-.058 2.706 2.494 2.494 0 0 1-4.309.815 5.49 5.49 0 0 1-1.038-2.473 5.36 5.36 0 0 1 .058-2.686 2.5 2.5 0 0 1 1.918-1.687c.9-.169 1.821.165 2.401.873a5.37 5.37 0 0 1 1.029 2.453zm-1.33.252a5.16 5.16 0 0 0-.544-1.629c-.359-.64-.796-.902-1.32-.805s-.864.504-.971 1.222a5.11 5.11 0 0 0 .078 1.726c.336 1.804.983 2.618 1.941 2.444.534-.097.844-.514.971-1.232a5.423 5.423 0 0 0-.155-1.726zm10.365-1.939a5.395 5.395 0 0 1-.058 2.735 2.494 2.494 0 0 1-4.309.815 5.6 5.6 0 0 1-1.038-2.502 5.477 5.477 0 0 1 .058-2.686 2.5 2.5 0 0 1 1.918-1.687c.9-.169 1.821.165 2.401.873a5.41 5.41 0 0 1 1.029 2.453zm-1.33.242a5.44 5.44 0 0 0-.534-1.629c-.369-.63-.806-.902-1.33-.805s-.864.514-.971 1.222a5.094 5.094 0 0 0 .136 1.765c.336 1.804.983 2.618 1.941 2.444.534-.097.854-.504.971-1.232a5.403 5.403 0 0 0-.214-1.765zm7.299-1.386a5.54 5.54 0 0 1-.068 2.706 2.483 2.483 0 0 1-4.299.805 5.51 5.51 0 0 1-1.048-2.492 5.63 5.63 0 0 1 .058-2.696 2.514 2.514 0 0 1 4.328-.805 5.59 5.59 0 0 1 1.029 2.483zm-1.33.252a5.58 5.58 0 0 0-.544-1.639c-.359-.63-.806-.892-1.33-.795s-.854.504-.971 1.222a5.41 5.41 0 0 0 .087 1.726c.343 1.804.99 2.618 1.941 2.444.524-.097.844-.514.971-1.241a5.36 5.36 0 0 0-.155-1.697v-.019zm7.289-1.348a5.44 5.44 0 0 1-.058 2.706 2.494 2.494 0 0 1-4.309.805 5.444 5.444 0 0 1-1.038-2.492 5.4 5.4 0 0 1 .058-2.696 2.5 2.5 0 0 1 1.918-1.687c.9-.169 1.821.165 2.401.873a5.52 5.52 0 0 1 1.029 2.492zm-1.33.242a5.34 5.34 0 0 0-.544-1.629c-.359-.63-.796-.902-1.33-.805s-.854.514-.971 1.222a5.083 5.083 0 0 0 .078 1.726c.34 1.804.971 2.628 1.941 2.453.534-.107.844-.514.971-1.241a5.423 5.423 0 0 0-.146-1.726zm7.299-1.367a5.534 5.534 0 0 1-.068 2.706 2.485 2.485 0 0 1-4.299.815 6.506 6.506 0 0 1-.971-5.188 2.516 2.516 0 0 1 4.328-.815 5.58 5.58 0 0 1 1.009 2.483zm-1.339.252a5.44 5.44 0 0 0-.534-1.629c-.359-.64-.806-.902-1.33-.805s-.864.504-.971 1.222a5.37 5.37 0 0 0 .078 1.726c.343 1.804.99 2.618 1.941 2.444.534-.097.854-.514.971-1.232a5.48 5.48 0 0 0-.155-1.697v-.029zm10.375-1.91c.202.89.178 1.817-.068 2.696a2.485 2.485 0 0 1-4.299.815 6.506 6.506 0 0 1-.971-5.188 2.516 2.516 0 0 1 4.328-.815 5.62 5.62 0 0 1 1.009 2.492zm-1.339.242a5.173 5.173 0 0 0-.534-1.629c-.359-.63-.806-.902-1.33-.805s-.864.514-.971 1.222a5.65 5.65 0 0 0 .078 1.726c.343 1.804.99 2.618 1.941 2.444.534-.097.854-.504.971-1.232a5.19 5.19 0 0 0-.155-1.755v.029zm7.259-1.396a5.44 5.44 0 0 1 0 2.706 2.32 2.32 0 0 1-1.941 1.687 2.36 2.36 0 0 1-2.397-.882 6.53 6.53 0 0 1-.971-5.188 2.31 2.31 0 0 1 1.941-1.678 2.34 2.34 0 0 1 2.407.873 5.47 5.47 0 0 1 .961 2.483zm-1.33.252a5.58 5.58 0 0 0-.544-1.639c-.359-.63-.796-.892-1.33-.795s-.854.504-.971 1.222a5.11 5.11 0 0 0 .078 1.726c.336 1.804.983 2.618 1.941 2.444.534-.097.844-.514.971-1.241a5.36 5.36 0 0 0-.107-1.716h-.039zm7.338-1.368a5.54 5.54 0 0 1-.068 2.706 2.31 2.31 0 0 1-1.941 1.678 2.34 2.34 0 0 1-2.397-.873 5.556 5.556 0 0 1-1.038-2.492 5.62 5.62 0 0 1 .058-2.696 2.5 2.5 0 0 1 1.918-1.687c.9-.169 1.821.165 2.401.873a5.515 5.515 0 0 1 1.068 2.492zm-1.339.242a5.63 5.63 0 0 0-.534-1.629c-.359-.63-.806-.902-1.33-.805s-.864.514-.971 1.222a5.36 5.36 0 0 0 .078 1.726c.34 1.804.971 2.628 1.941 2.453.534-.107.854-.514.971-1.241a5.76 5.76 0 0 0-.155-1.726zm7.298-1.366a5.534 5.534 0 0 1-.068 2.706 2.485 2.485 0 0 1-4.299.815 6.6 6.6 0 0 1-.971-5.188 2.516 2.516 0 0 1 4.328-.815 5.58 5.58 0 0 1 1.009 2.483zm-1.33.252a5.42 5.42 0 0 0-.544-1.629c-.359-.64-.806-.902-1.33-.805s-.854.504-.971 1.222a5.41 5.41 0 0 0 .087 1.726c.336 1.804.983 2.618 1.941 2.444.534-.097.844-.514.971-1.232a5.413 5.413 0 0 0-.116-1.726h-.039zm-75.828-6.371-28.427 5.334a2.27 2.27 0 0 1-2.65-1.813 2.27 2.27 0 0 1 1.815-2.647l28.456-5.334a2.28 2.28 0 0 1 2.659 1.813 2.29 2.29 0 0 1-1.854 2.647zm68.404-7.943a3.46 3.46 0 0 0-1.165-2.007.36.36 0 0 0-.544.078l-.107.165a.36.36 0 0 0 .058.485 2.5 2.5 0 0 1 .835 1.455 2.55 2.55 0 0 1-.252 1.658.38.38 0 0 0 .116.475l.165.107a.38.38 0 0 0 .544-.126c.37-.702.493-1.508.349-2.289zm1.834-.32a5.28 5.28 0 0 0-1.941-3.229.38.38 0 0 0-.534.087l-.058.097a.37.37 0 0 0 .087.495 4.56 4.56 0 0 1 1.64 2.715 4.46 4.46 0 0 1-.544 3.113.37.37 0 0 0 .097.495l.097.068a.38.38 0 0 0 .524-.107 5.31 5.31 0 0 0 .631-3.733zm1.621-.3a7.04 7.04 0 0 0-2.669-4.296.38.38 0 0 0-.534.087.37.37 0 0 0 .087.504 6.232 6.232 0 0 1 1.553 8.282.37.37 0 0 0 .107.504.38.38 0 0 0 .524-.107 7.026 7.026 0 0 0 .932-4.975zm1.747-.349a8.727 8.727 0 0 0-3.426-5.44.38.38 0 0 0-.534.087l-.107.155a.38.38 0 0 0 .087.504 7.85 7.85 0 0 1 1.941 10.512.36.36 0 0 0 .097.495l.155.116a.38.38 0 0 0 .524-.107 8.72 8.72 0 0 0 1.262-6.323zm-91.493 68.23a2.66 2.66 0 0 1 0 1.309 1.203 1.203 0 0 1-2.077.388 3.12 3.12 0 0 1-.476-2.502c.118-.43.48-.75.922-.815a1.15 1.15 0 0 1 1.165.427 2.71 2.71 0 0 1 .466 1.193zm-.641.126a2.75 2.75 0 0 0-.262-.785c-.175-.31-.388-.436-.641-.388s-.417.242-.466.582a2.79 2.79 0 0 0 0 .834c.165.873.466 1.27.912 1.183.262 0 .408-.242.456-.601a2.74 2.74 0 0 0 0-.824zm3.514-.659a2.62 2.62 0 0 1 0 1.299 1.203 1.203 0 0 1-2.077.388 2.707 2.707 0 0 1-.505-1.202 2.74 2.74 0 0 1 0-1.299c.129-.441.513-.76.971-.805.434-.107.89.058 1.155.417.247.358.403.771.456 1.202zm-.641.116a2.48 2.48 0 0 0-.262-.785c-.175-.31-.388-.436-.641-.388s-.417.242-.456.592a2.29 2.29 0 0 0 0 .834c.155.863.466 1.261.912 1.173.252-.048.408-.242.446-.592a2.51 2.51 0 0 0 0-.834zm2.504-2.143a.29.29 0 0 1 0 .175l-.912 3.384a.284.284 0 0 1-.243.281.29.29 0 0 1-.204 0 .24.24 0 0 1-.107-.175.41.41 0 0 1 0-.184l.971-3.375c0-.155.126-.252.243-.272a.35.35 0 0 1 .204 0 .244.244 0 0 1 .049.165zm2.98 1.115a2.66 2.66 0 0 1 0 1.309 1.203 1.203 0 0 1-2.077.388 3.12 3.12 0 0 1-.476-2.502 1.21 1.21 0 0 1 .926-.814c.434-.083.879.077 1.161.417.25.357.41.77.466 1.202zm-.641.116a2.48 2.48 0 0 0-.262-.785c-.175-.301-.388-.436-.641-.388s-.417.252-.456.592a2.25 2.25 0 0 0 0 .834c.155.873.466 1.261.912 1.183.252 0 .408-.252.446-.601a2.51 2.51 0 0 0 0-.824v-.01zm3.523-.659a2.76 2.76 0 0 1 0 1.309 1.116 1.116 0 0 1-.971.815 1.136 1.136 0 0 1-1.155-.427 2.684 2.684 0 0 1-.495-1.202 2.75 2.75 0 0 1 0-1.299c.134-.423.491-.737.927-.819a1.2 1.2 0 0 1 1.16.431 2.6 2.6 0 0 1 .534 1.193zm-.65.126a2.48 2.48 0 0 0-.262-.785c-.165-.31-.379-.436-.641-.388s-.408.242-.456.582a2.5 2.5 0 0 0 0 .834c.165.873.466 1.27.912 1.183.252 0 .408-.252.456-.601a2.49 2.49 0 0 0-.01-.824zm3.523-.659a2.62 2.62 0 0 1 0 1.299c-.125.445-.51.768-.971.815a1.107 1.107 0 0 1-1.155-.427 2.6 2.6 0 0 1-.505-1.202 2.62 2.62 0 0 1 0-1.299 1.21 1.21 0 0 1 .929-.808c.434-.08.877.08 1.158.42.278.35.465.763.544 1.202zm-.641.116a3.09 3.09 0 0 0-.262-.785c-.175-.31-.388-.436-.641-.388s-.417.242-.466.592a2.8 2.8 0 0 0 0 .834c.165.863.466 1.261.912 1.173.262 0 .408-.242.456-.592a2.8 2.8 0 0 0 0-.834zm3.514-.659a2.66 2.66 0 0 1 0 1.309 1.203 1.203 0 0 1-2.077.388 3.12 3.12 0 0 1-.476-2.502 1.215 1.215 0 0 1 2.057-.359 2.69 2.69 0 0 1 .495 1.164zm-.641.116a2.48 2.48 0 0 0-.262-.785c-.175-.301-.388-.436-.641-.388s-.417.252-.456.592a2.47 2.47 0 0 0 0 .834c.165.873.476 1.261.922 1.183.252 0 .408-.252.446-.601a2.52 2.52 0 0 0-.01-.834z"/></g><path d="M158.101 73.507s-2.164-.184-2.601.281-2.475 3.055-1.941 3.763 2.776-.97 3.251-1.135 1.796-.863 1.796-.863l-.505-2.046z" fill="#ffb27d"/><path d="M173.202 69.017a4.44 4.44 0 0 0-.699-.882 3.72 3.72 0 0 0-.641-.533l-.971-.795-.214.194c-4.746-1.707-13.801 1.639-22.536 8.815-10.569 8.66-16.761 19.676-14.053 24.883l-.301.272 1.407 1.115.204.165a4.72 4.72 0 0 0 1.174.64c4.697 1.842 13.85-1.503 22.691-8.728 10.851-8.805 17.033-20.044 13.937-25.145z" fill="url(#d)"/><path d="M146.619 74.603c10.763-8.825 21.993-11.86 25.089-6.788s-3.135 16.34-13.898 25.213-21.993 11.87-25.089 6.788 3.135-16.379 13.898-25.213z" fill="url(#e)"/><path d="M140.941 99.69a9.52 9.52 0 0 1-2.591-.048 4.431 4.431 0 0 1-3.242-2.046c-1.291-2.163-.689-5.654 1.689-9.814a45.985 45.985 0 0 1 10.589-12.064c6.92-5.683 14.238-8.873 18.654-8.107a4.45 4.45 0 0 1 3.242 2.056c1.291 2.163.699 5.644-1.689 9.814a45.783 45.783 0 0 1-10.589 12.093c-5.697 4.655-11.666 7.632-16.062 8.117zm22.633-31.274c-4.202.465-10.123 3.423-15.645 7.962a44.84 44.84 0 0 0-10.385 11.821c-2.193 3.879-2.815 7.098-1.698 8.96a3.63 3.63 0 0 0 2.65 1.639 7.981 7.981 0 0 0 2.32 0c4.202-.456 10.132-3.423 15.645-7.962a45.075 45.075 0 0 0 10.395-11.821c2.184-3.879 2.805-7.089 1.689-8.951a3.61 3.61 0 0 0-2.65-1.649 8.74 8.74 0 0 0-2.32 0z" fill="url(#f)"/><path d="M147.842 87.064a6.96 6.96 0 0 0 .903-.621 4.25 4.25 0 0 0 .699-.747 5.44 5.44 0 0 0 .582-.97c.191-.391.36-.792.505-1.202l.971-2.192c.312-.679.685-1.329 1.116-1.939.437-.614.938-1.18 1.495-1.687a11.928 11.928 0 0 1 2.058-1.484 8.492 8.492 0 0 1 1.893-.824 3.516 3.516 0 0 1 1.485-.107c.403.063.773.261 1.048.562.284.351.466.774.524 1.222l2.601-1.503v1.493l-2.64 1.513a6.24 6.24 0 0 1-.582 1.794 8.858 8.858 0 0 1-1.155 1.784 13.126 13.126 0 0 1-1.689 1.678 15.8 15.8 0 0 1-2.193 1.503v-2.686a7.58 7.58 0 0 0 2.174-1.716 2.56 2.56 0 0 0 .708-1.649.97.97 0 0 0-.165-.621.73.73 0 0 0-.456-.242 1.64 1.64 0 0 0-.679.107c-.294.1-.577.23-.844.388a5.84 5.84 0 0 0-.815.562 4.24 4.24 0 0 0-.67.708 5.76 5.76 0 0 0-.573.97c-.208.41-.392.831-.553 1.261l-.971 2.201a12.69 12.69 0 0 1-1.126 1.939 11.71 11.71 0 0 1-1.504 1.697 12.17 12.17 0 0 1-2.048 1.464 8.31 8.31 0 0 1-1.941.844 3.34 3.34 0 0 1-1.485.097 1.74 1.74 0 0 1-.971-.592 2.5 2.5 0 0 1-.505-1.241l-2.417 1.396V88.75l2.32-1.377a7.64 7.64 0 0 1 .456-1.765c.261-.67.61-1.303 1.038-1.881a11.31 11.31 0 0 1 1.718-1.939 14.81 14.81 0 0 1 2.504-1.784v2.686c-.507.28-.988.604-1.436.97a5.722 5.722 0 0 0-.922.97c-.209.296-.37.623-.476.97-.086.27-.128.551-.126.834a1.17 1.17 0 0 0 .165.669.66.66 0 0 0 .446.301 1.31 1.31 0 0 0 .66 0 4.08 4.08 0 0 0 .873-.339z" opacity=".79" fill="#fff"/><ellipse fill="url(#g)" transform="matrix(.657112 -.753793 .753793 .657112 -45.808247 125.930954)" cx="115.517" cy="113.317" rx="12.543" ry="12.545"/><path d="M114.533 124.854a11.42 11.42 0 0 1-10.363-10.121 11.414 11.414 0 0 1 7.91-12.132 11.43 11.43 0 0 1 13.454 5.381 11.41 11.41 0 0 1-2.654 14.234 11.325 11.325 0 0 1-8.347 2.638zm1.941-22.081c-5.916-.508-11.124 3.871-11.634 9.782a10.75 10.75 0 0 0 9.785 11.628c5.915.512 11.127-3.863 11.641-9.773a10.74 10.74 0 0 0-2.496-7.859 10.76 10.76 0 0 0-7.335-3.778h.039z" fill="url(#h)"/><path d="M116.474 116.098c.033-.17.033-.344 0-.514a1.02 1.02 0 0 0-.175-.446 2.016 2.016 0 0 0-.408-.417 5.092 5.092 0 0 0-.641-.436 13.629 13.629 0 0 1-1.174-.785 4.463 4.463 0 0 1-.864-.834 2.52 2.52 0 0 1-.476-.97 2.908 2.908 0 0 1 .427-2.182 2.44 2.44 0 0 1 .747-.698 3.108 3.108 0 0 1 1.029-.388 4.317 4.317 0 0 1 1.233 0l.301-1.435 1.155.242-.301 1.455a3.98 3.98 0 0 1 1.068.562c.29.229.537.508.728.824a2.91 2.91 0 0 1 .349 1.057 3.45 3.45 0 0 1-.058 1.251l-2.096-.436a1.768 1.768 0 0 0-.107-1.28 1.28 1.28 0 0 0-.883-.601 1.66 1.66 0 0 0-.573 0c-.158.025-.31.081-.446.165-.122.088-.224.2-.301.33a1.372 1.372 0 0 0-.165.446 1.29 1.29 0 0 0 0 .465c.023.153.079.298.165.427.115.161.252.305.408.427.214.165.438.317.67.456l1.165.805a4.15 4.15 0 0 1 .854.844 2.52 2.52 0 0 1 .476.97 2.982 2.982 0 0 1-.437 2.201c-.2.278-.454.512-.747.689a3.09 3.09 0 0 1-1.029.368 4.79 4.79 0 0 1-1.242 0l-.272 1.338-1.155-.233.272-1.338a4.74 4.74 0 0 1-1.106-.504 2.84 2.84 0 0 1-.873-.785 2.749 2.749 0 0 1-.505-1.105 3.611 3.611 0 0 1 0-1.435l2.096.436a2.007 2.007 0 0 0 0 .824 1.23 1.23 0 0 0 .252.582c.124.156.28.285.456.378a2.27 2.27 0 0 0 .563.194 2 2 0 0 0 .621 0 1.37 1.37 0 0 0 .476-.155.97.97 0 0 0 .34-.31c.087-.137.149-.288.184-.446z" opacity=".63" fill="#fff"/></svg>