<svg xmlns="http://www.w3.org/2000/svg" xmlns:xlink="http://www.w3.org/1999/xlink" width="175" height="131"><defs><linearGradient x1="-18.042%" y1="-9.975%" x2="82.598%" y2="78.727%" id="a"><stop stop-color="#de7f00" offset="24%"/><stop stop-color="#ffae3d" offset="52%"/><stop stop-color="#ffda6a" offset="88%"/></linearGradient><linearGradient x1="22.766%" y1="52.105%" x2="77.858%" y2="45.633%" id="b"><stop stop-color="#f28a00" offset="0%"/><stop stop-color="#f88b10" offset="4%"/><stop stop-color="#fd8d1d" offset="9%"/><stop stop-color="#ff8d21" offset="14%"/><stop stop-color="#fc821d" offset="32%"/><stop stop-color="#f46411" offset="64%"/><stop stop-color="#e83a00" offset="100%"/></linearGradient><linearGradient x1="33.459%" y1="40.324%" x2="65.921%" y2="52.321%" id="c"><stop stop-color="#99cbdd" offset="0%"/><stop stop-color="#e1e6e5" offset="82%"/></linearGradient><linearGradient x1="-1805.776%" y1="1580.543%" x2="-1709.988%" y2="1580.543%" id="d"><stop stop-color="#99cbdd" offset="0%"/><stop stop-color="#e1e6e5" offset="82%"/></linearGradient><linearGradient x1="-986.727%" y1="2513.819%" x2="-887.573%" y2="2513.819%" id="e"><stop stop-color="#99cbdd" offset="0%"/><stop stop-color="#e1e6e5" offset="82%"/></linearGradient><linearGradient x1="-986.727%" y1="2748.148%" x2="-887.573%" y2="2748.148%" id="f"><stop stop-color="#99cbdd" offset="0%"/><stop stop-color="#e1e6e5" offset="82%"/></linearGradient><linearGradient x1="-1063.797%" y1="2192.716%" x2="-980.933%" y2="2192.716%" id="g"><stop stop-color="#99cbdd" offset="0%"/><stop stop-color="#e1e6e5" offset="82%"/></linearGradient><linearGradient x1="-5017.668%" y1="9600.502%" x2="-4933.478%" y2="9600.502%" id="h"><stop stop-color="#99cbdd" offset="0%"/><stop stop-color="#e1e6e5" offset="82%"/></linearGradient><linearGradient x1="-5006.422%" y1="9573.245%" x2="-4922.552%" y2="9573.245%" id="i"><stop stop-color="#99cbdd" offset="0%"/><stop stop-color="#e1e6e5" offset="82%"/></linearGradient><linearGradient x1="-4983.805%" y1="9524.031%" x2="-4899.922%" y2="9524.031%" id="j"><stop stop-color="#99cbdd" offset="0%"/><stop stop-color="#e1e6e5" offset="82%"/></linearGradient><linearGradient x1="-4964.702%" y1="9505.118%" x2="-4880.848%" y2="9505.118%" id="k"><stop stop-color="#99cbdd" offset="0%"/><stop stop-color="#e1e6e5" offset="82%"/></linearGradient><linearGradient x1="-2684.951%" y1="3842.055%" x2="-2582.008%" y2="3842.055%" id="l"><stop stop-color="#99cbdd" offset="0%"/><stop stop-color="#e1e6e5" offset="82%"/></linearGradient><linearGradient x1="4.518%" y1="-1.187%" x2="95.685%" y2="101.857%" id="m"><stop stop-color="#99cbdd" offset="0%"/><stop stop-color="#e1e6e5" offset="82%"/></linearGradient><linearGradient x1="-2684.287%" y1="3811.798%" x2="-2580.953%" y2="3811.798%" id="n"><stop stop-color="#99cbdd" offset="0%"/><stop stop-color="#e1e6e5" offset="82%"/></linearGradient><linearGradient x1="-14.786%" y1="-59.22%" x2="75.757%" y2="44.358%" id="o"><stop stop-color="#99cbdd" offset="0%"/><stop stop-color="#e1e6e5" offset="82%"/></linearGradient><linearGradient x1="-453.055%" y1="1215.784%" x2="-351.816%" y2="1215.784%" id="p"><stop stop-color="#99cbdd" offset="0%"/><stop stop-color="#e1e6e5" offset="82%"/></linearGradient><linearGradient x1="-453.055%" y1="1262.264%" x2="-351.816%" y2="1262.264%" id="q"><stop stop-color="#99cbdd" offset="0%"/><stop stop-color="#e1e6e5" offset="82%"/></linearGradient><linearGradient x1="-4811.295%" y1="9265.304%" x2="-4727.623%" y2="9265.304%" id="r"><stop stop-color="#99cbdd" offset="0%"/><stop stop-color="#e1e6e5" offset="82%"/></linearGradient><linearGradient x1="-4836.378%" y1="9277.507%" x2="-4752.705%" y2="9277.507%" id="s"><stop stop-color="#99cbdd" offset="0%"/><stop stop-color="#e1e6e5" offset="82%"/></linearGradient><linearGradient x1="-4884.313%" y1="9305.193%" x2="-4800.444%" y2="9305.193%" id="u"><stop stop-color="#99cbdd" offset="0%"/><stop stop-color="#e1e6e5" offset="82%"/></linearGradient><linearGradient x1="-4900.059%" y1="9324.31%" x2="-4815.868%" y2="9324.31%" id="v"><stop stop-color="#99cbdd" offset="0%"/><stop stop-color="#e1e6e5" offset="82%"/></linearGradient><linearGradient x1="-2577.217%" y1="3764.598%" x2="-2474.191%" y2="3764.598%" id="w"><stop stop-color="#99cbdd" offset="0%"/><stop stop-color="#e1e6e5" offset="82%"/></linearGradient><linearGradient x1="-21.182%" y1="-60.486%" x2="69.569%" y2="43.329%" id="x"><stop stop-color="#99cbdd" offset="0%"/><stop stop-color="#e1e6e5" offset="82%"/></linearGradient><linearGradient x1="-2628.189%" y1="3755.241%" x2="-2524.822%" y2="3755.241%" id="y"><stop stop-color="#99cbdd" offset="0%"/><stop stop-color="#e1e6e5" offset="82%"/></linearGradient><linearGradient x1="-18.904%" y1="-59.055%" x2="71.847%" y2="44.761%" id="z"><stop stop-color="#99cbdd" offset="0%"/><stop stop-color="#e1e6e5" offset="82%"/></linearGradient><linearGradient x1="-999.153%" y1="695.286%" x2="-875.684%" y2="695.286%" id="A"><stop stop-color="#99cbdd" offset="0%"/><stop stop-color="#e1e6e5" offset="82%"/></linearGradient><linearGradient x1="-999.87%" y1="695.371%" x2="-876.321%" y2="695.371%" id="B"><stop stop-color="#99cbdd" offset="0%"/><stop stop-color="#e1e6e5" offset="82%"/></linearGradient><linearGradient x1="-275.529%" y1="587.703%" x2="-192.443%" y2="587.703%" id="C"><stop stop-color="#99cbdd" offset="0%"/><stop stop-color="#e1e6e5" offset="82%"/></linearGradient><linearGradient x1="-919.477%" y1="1334.169%" x2="-842.499%" y2="1334.169%" id="D"><stop stop-color="#99cbdd" offset="0%"/><stop stop-color="#e1e6e5" offset="82%"/></linearGradient><linearGradient x1="-15228.5%" y1="23003.5%" x2="-15178.5%" y2="23003.5%" id="E"><stop stop-color="#99cbdd" offset="0%"/><stop stop-color="#e1e6e5" offset="82%"/></linearGradient><linearGradient x1="-15263%" y1="22982%" x2="-15180%" y2="22982%" id="F"><stop stop-color="#99cbdd" offset="0%"/><stop stop-color="#e1e6e5" offset="82%"/></linearGradient><linearGradient x1="-15286%" y1="22956.5%" x2="-15198%" y2="22956.5%" id="G"><stop stop-color="#99cbdd" offset="0%"/><stop stop-color="#e1e6e5" offset="82%"/></linearGradient><linearGradient x1="-15310%" y1="22931%" x2="-15217%" y2="22931%" id="H"><stop stop-color="#99cbdd" offset="0%"/><stop stop-color="#e1e6e5" offset="82%"/></linearGradient><linearGradient x1="-15333.5%" y1="22906%" x2="-15237.5%" y2="22906%" id="I"><stop stop-color="#99cbdd" offset="0%"/><stop stop-color="#e1e6e5" offset="82%"/></linearGradient><linearGradient x1="-15203.96%" y1="22881.5%" x2="-15105.941%" y2="22881.5%" id="J"><stop stop-color="#99cbdd" offset="0%"/><stop stop-color="#e1e6e5" offset="82%"/></linearGradient><linearGradient x1="-14786.539%" y1="22857.5%" x2="-14688.461%" y2="22857.5%" id="K"><stop stop-color="#99cbdd" offset="0%"/><stop stop-color="#e1e6e5" offset="82%"/></linearGradient><linearGradient x1="-14528.302%" y1="22385.294%" x2="-14429.245%" y2="22385.294%" id="L"><stop stop-color="#99cbdd" offset="0%"/><stop stop-color="#e1e6e5" offset="82%"/></linearGradient><linearGradient x1="-14279.63%" y1="21932.692%" x2="-14180.556%" y2="21932.692%" id="M"><stop stop-color="#99cbdd" offset="0%"/><stop stop-color="#e1e6e5" offset="82%"/></linearGradient><linearGradient x1="-14168.807%" y1="21497.17%" x2="-14069.725%" y2="21497.17%" id="N"><stop stop-color="#99cbdd" offset="0%"/><stop stop-color="#e1e6e5" offset="82%"/></linearGradient><linearGradient x1="-14060.909%" y1="21076.852%" x2="-13960.909%" y2="21076.852%" id="O"><stop stop-color="#99cbdd" offset="0%"/><stop stop-color="#e1e6e5" offset="82%"/></linearGradient><linearGradient x1="-13954.054%" y1="20672.727%" x2="-13854.955%" y2="20672.727%" id="P"><stop stop-color="#99cbdd" offset="0%"/><stop stop-color="#e1e6e5" offset="82%"/></linearGradient><linearGradient x1="-13849.107%" y1="20283.036%" x2="-13749.107%" y2="20283.036%" id="Q"><stop stop-color="#99cbdd" offset="0%"/><stop stop-color="#e1e6e5" offset="82%"/></linearGradient><linearGradient x1="-30.683%" y1="-104.571%" x2="58.098%" y2="5.974%" id="R"><stop stop-color="#99cbdd" offset="0%"/><stop stop-color="#e1e6e5" offset="82%"/></linearGradient><linearGradient x1="86.768%" y1="234.079%" x2="174.756%" y2="345.079%" id="S"><stop stop-color="#99cbdd" offset="0%"/><stop stop-color="#e1e6e5" offset="82%"/></linearGradient><linearGradient x1="-19.805%" y1="71.907%" x2="66.049%" y2="184.84%" id="T"><stop stop-color="#99cbdd" offset="0%"/><stop stop-color="#e1e6e5" offset="82%"/></linearGradient><linearGradient x1="-14056.757%" y1="20564.546%" x2="-13958.559%" y2="20564.546%" id="U"><stop stop-color="#99cbdd" offset="0%"/><stop stop-color="#e1e6e5" offset="82%"/></linearGradient><linearGradient x1="-14469.444%" y1="21117.757%" x2="-14371.296%" y2="21117.757%" id="V"><stop stop-color="#99cbdd" offset="0%"/><stop stop-color="#e1e6e5" offset="82%"/></linearGradient><linearGradient x1="-14904.762%" y1="21704.808%" x2="-14807.619%" y2="21704.808%" id="W"><stop stop-color="#99cbdd" offset="0%"/><stop stop-color="#e1e6e5" offset="82%"/></linearGradient><linearGradient x1="-15366.667%" y1="22325.743%" x2="-15270.588%" y2="22325.743%" id="X"><stop stop-color="#99cbdd" offset="0%"/><stop stop-color="#e1e6e5" offset="82%"/></linearGradient><linearGradient x1="-15696%" y1="22526.5%" x2="-15605%" y2="22526.5%" id="Y"><stop stop-color="#99cbdd" offset="0%"/><stop stop-color="#e1e6e5" offset="82%"/></linearGradient><linearGradient x1="-15704%" y1="22508%" x2="-15643%" y2="22508%" id="Z"><stop stop-color="#99cbdd" offset="0%"/><stop stop-color="#e1e6e5" offset="82%"/></linearGradient><linearGradient x1="-15305.5%" y1="23085.5%" x2="-15256.5%" y2="23085.5%" id="aa"><stop stop-color="#99cbdd" offset="0%"/><stop stop-color="#e1e6e5" offset="82%"/></linearGradient><linearGradient x1="-15341%" y1="23066%" x2="-15262%" y2="23066%" id="ab"><stop stop-color="#99cbdd" offset="0%"/><stop stop-color="#e1e6e5" offset="82%"/></linearGradient><linearGradient x1="-15368%" y1="23043%" x2="-15283%" y2="23043%" id="ac"><stop stop-color="#99cbdd" offset="0%"/><stop stop-color="#e1e6e5" offset="82%"/></linearGradient><linearGradient x1="-15394%" y1="23019.5%" x2="-15303%" y2="23019.5%" id="ad"><stop stop-color="#99cbdd" offset="0%"/><stop stop-color="#e1e6e5" offset="82%"/></linearGradient><linearGradient x1="-15418%" y1="22996.5%" x2="-15324%" y2="22996.5%" id="ae"><stop stop-color="#99cbdd" offset="0%"/><stop stop-color="#e1e6e5" offset="82%"/></linearGradient><linearGradient x1="-15290.099%" y1="22973.5%" x2="-15194.059%" y2="22973.5%" id="af"><stop stop-color="#99cbdd" offset="0%"/><stop stop-color="#e1e6e5" offset="82%"/></linearGradient><linearGradient x1="-15016.505%" y1="22723.762%" x2="-14918.447%" y2="22723.762%" id="ag"><stop stop-color="#99cbdd" offset="0%"/><stop stop-color="#e1e6e5" offset="82%"/></linearGradient><linearGradient x1="-14476.636%" y1="22046.154%" x2="-14379.439%" y2="22046.154%" id="ah"><stop stop-color="#99cbdd" offset="0%"/><stop stop-color="#e1e6e5" offset="82%"/></linearGradient><linearGradient x1="-14363.889%" y1="21814.286%" x2="-14265.741%" y2="21814.286%" id="ai"><stop stop-color="#99cbdd" offset="0%"/><stop stop-color="#e1e6e5" offset="82%"/></linearGradient><linearGradient x1="-14254.128%" y1="21385.047%" x2="-14155.046%" y2="21385.047%" id="aj"><stop stop-color="#99cbdd" offset="0%"/><stop stop-color="#e1e6e5" offset="82%"/></linearGradient><linearGradient x1="-14144.546%" y1="21165.741%" x2="-14045.454%" y2="21165.741%" id="ak"><stop stop-color="#99cbdd" offset="0%"/><stop stop-color="#e1e6e5" offset="82%"/></linearGradient><linearGradient x1="-14037.838%" y1="20950.459%" x2="-13938.739%" y2="20950.459%" id="al"><stop stop-color="#99cbdd" offset="0%"/><stop stop-color="#e1e6e5" offset="82%"/></linearGradient><linearGradient x1="-13933.036%" y1="20552.252%" x2="-13833.036%" y2="20552.252%" id="am"><stop stop-color="#99cbdd" offset="0%"/><stop stop-color="#e1e6e5" offset="82%"/></linearGradient><linearGradient x1="3.657%" y1="-7.53%" x2="94.571%" y2="102.449%" id="an"><stop stop-color="#99cbdd" offset="0%"/><stop stop-color="#e1e6e5" offset="82%"/></linearGradient><linearGradient x1="3.491%" y1="-4.867%" x2="94.454%" y2="103.295%" id="ao"><stop stop-color="#99cbdd" offset="0%"/><stop stop-color="#e1e6e5" offset="82%"/></linearGradient><linearGradient x1="3.337%" y1="-5.826%" x2="95.258%" y2="102.818%" id="ap"><stop stop-color="#99cbdd" offset="0%"/><stop stop-color="#e1e6e5" offset="82%"/></linearGradient><linearGradient x1="-14266.364%" y1="21227.103%" x2="-14166.364%" y2="21227.103%" id="aq"><stop stop-color="#99cbdd" offset="0%"/><stop stop-color="#e1e6e5" offset="82%"/></linearGradient><linearGradient x1="-14686.916%" y1="21813.462%" x2="-14585.981%" y2="21813.462%" id="ar"><stop stop-color="#99cbdd" offset="0%"/><stop stop-color="#e1e6e5" offset="82%"/></linearGradient><linearGradient x1="-14985.714%" y1="22434.654%" x2="-14885.714%" y2="22434.654%" id="as"><stop stop-color="#99cbdd" offset="0%"/><stop stop-color="#e1e6e5" offset="82%"/></linearGradient><linearGradient x1="-15447.059%" y1="22632.5%" x2="-15347.059%" y2="22632.5%" id="at"><stop stop-color="#99cbdd" offset="0%"/><stop stop-color="#e1e6e5" offset="82%"/></linearGradient><linearGradient x1="-15775%" y1="22606%" x2="-15678%" y2="22606%" id="au"><stop stop-color="#99cbdd" offset="0%"/><stop stop-color="#e1e6e5" offset="82%"/></linearGradient><linearGradient x1="-15774%" y1="22582.5%" x2="-15712%" y2="22582.5%" id="av"><stop stop-color="#99cbdd" offset="0%"/><stop stop-color="#e1e6e5" offset="82%"/></linearGradient><linearGradient x1="-3445.159%" y1="5555.487%" x2="-3347.351%" y2="5555.487%" id="aw"><stop stop-color="#99cbdd" offset="0%"/><stop stop-color="#e1e6e5" offset="82%"/></linearGradient><linearGradient x1="-15867.5%" y1="17545.313%" x2="-15823.5%" y2="17545.313%" id="ax"><stop stop-color="#99cbdd" offset="0%"/><stop stop-color="#e1e6e5" offset="82%"/></linearGradient><linearGradient x1="-10954.483%" y1="12976.301%" x2="-10880%" y2="12976.301%" id="ay"><stop stop-color="#99cbdd" offset="0%"/><stop stop-color="#e1e6e5" offset="82%"/></linearGradient><linearGradient x1="-8398.413%" y1="22390%" x2="-8307.937%" y2="22390%" id="az"><stop stop-color="#99cbdd" offset="0%"/><stop stop-color="#e1e6e5" offset="82%"/></linearGradient><linearGradient x1="-15541.176%" y1="22398.5%" x2="-15443.137%" y2="22398.5%" id="aA"><stop stop-color="#99cbdd" offset="0%"/><stop stop-color="#e1e6e5" offset="82%"/></linearGradient><linearGradient x1="-11.691%" y1="50.323%" x2="112.626%" y2="49.652%" id="aB"><stop stop-color="#f0f3f1" offset="0%"/><stop stop-color="#e2f7f8" offset="28%"/><stop stop-color="#dcf9fa" offset="51%"/><stop stop-color="#eff2f2" offset="91%"/><stop stop-color="#f1f1f1" offset="95%"/><stop stop-color="#99cbdd" offset="100%"/></linearGradient><linearGradient x1="4.023%" y1="50.426%" x2="101.997%" y2="49.672%" id="aC"><stop stop-color="#ff7e59" offset="34%"/><stop stop-color="#ffa862" offset="76%"/><stop stop-color="#ffba66" offset="98%"/></linearGradient><linearGradient x1="25.587%" y1="50.361%" x2="121.161%" y2="49.257%" id="aD"><stop stop-color="#ff7e59" offset="34%"/><stop stop-color="#ffa862" offset="76%"/><stop stop-color="#ffba66" offset="98%"/></linearGradient><path id="t" d="M36.078 95.618c-.845.647-1.422 1.324-1.282 1.503s.935-.209 1.78-.856 1.412-1.324 1.273-1.503-.925.199-1.77.856z"/></defs><g fill="none" fill-rule="evenodd"><g fill-rule="nonzero"><path d="m42.23 17.621 89.544-.019a4.196 4.196 0 0 1 4.199 4.195l-.015 64.182a4.204 4.204 0 0 1-4.199 4.199l-89.544.019a4.196 4.196 0 0 1-4.199-4.195l.015-64.182a4.204 4.204 0 0 1 4.199-4.199z" fill="url(#a)" transform="matrix(.151088 -.98852 .98852 .151088 20.570018 131.751693)"/><g fill="#ffbf70"><path d="m129.609 15.137-13.501 88.495a4.18 4.18 0 0 1-2.366 3.166 3.83 3.83 0 0 0 .159-.667l13.501-88.485a4.213 4.213 0 0 0-3.52-4.808L60.465 3.131a4.19 4.19 0 0 0-2.436.358A4.225 4.225 0 0 1 62.632.632l63.427 9.707a4.197 4.197 0 0 1 3.549 4.799z" opacity=".5" style="mix-blend-mode:screen"/><path d="m117.54 94.274-1.432 9.358a4.206 4.206 0 0 1-4.792 3.524L47.889 97.45a4.196 4.196 0 0 1-3.519-4.798l8.947-58.738a71.662 71.662 0 0 0 5.508 24.232A61.94 61.94 0 0 0 83.38 86.897a53.344 53.344 0 0 0 34.159 7.377z" opacity=".5" style="mix-blend-mode:multiply"/></g><g fill="#fff"><ellipse cx="82.058" cy="86.2" rx="3.37" ry="3.375"/><path d="m90.469 87.902-.716 4.719-16.901-2.588.716-4.709 4.563.697a3.98 3.98 0 0 0 3.378 3.815 3.977 3.977 0 0 0 4.356-2.64l4.603.707zm.815-5.535-.716 4.709-4.573-.697a3.98 3.98 0 0 0-3.38-3.842 3.977 3.977 0 0 0-4.365 2.667l-4.563-.697.716-4.719 16.881 2.578zm-6.711-12.643c-13.4-2.052-22.601-14.593-20.553-28.012s14.571-22.634 27.971-20.584 22.604 14.589 20.558 28.008c-2.056 13.416-14.575 22.629-27.976 20.588zm7.059-46.244a22.18 22.18 0 0 0-22.337 10.457 22.25 22.25 0 0 0 1.102 24.667 22.172 22.172 0 0 0 23.18 8.418 22.21 22.21 0 0 0 16.635-18.226c1.836-12.126-6.476-23.452-18.581-25.317z"/><path d="m83.58 68.384 7.061-46.264 2.339.358-7.061 46.264z"/><path d="m65.427 43.315.357-2.342 45.708 6.996-.357 2.342z"/><path d="M73.777 64.955a1.183 1.183 0 0 1-.994-.936 58.98 58.98 0 0 1 6.442-41.067 1.183 1.183 0 0 1 1.065-.615 1.18 1.18 0 0 1 1.035.664c.194.398.151.87-.112 1.226a57.64 57.64 0 0 0-6.114 39.314 1.205 1.205 0 0 1-.925 1.404 1.47 1.47 0 0 1-.398.01zm22.428 3.425a1.16 1.16 0 0 1-.398-.129 1.19 1.19 0 0 1-.563-.711 1.185 1.185 0 0 1 .105-.901 58.02 58.02 0 0 0 6.054-39.334 1.196 1.196 0 0 1 .845-1.444 1.17 1.17 0 0 1 .898.121c.271.159.467.42.544.725a59.49 59.49 0 0 1-6.263 41.077 1.17 1.17 0 0 1-1.223.597z"/><path d="M109.934 38.344a1.11 1.11 0 0 1-.457-.169 57.38 57.38 0 0 0-39.15-5.973 1.184 1.184 0 0 1-.478-2.32 58.772 58.772 0 0 1 40.9 6.312 1.185 1.185 0 0 1-.815 2.17v-.02zM85.836 61.311a59.658 59.658 0 0 1-20.022-6.82 1.185 1.185 0 0 1-.467-1.603 1.19 1.19 0 0 1 1.611-.468 58.414 58.414 0 0 0 39.418 6.063 1.18 1.18 0 0 1 1.184.284 1.186 1.186 0 0 1-.588 2.007 56.51 56.51 0 0 1-21.136.538z"/></g><path d="M149.005 51.694c-4.555-2.256-10.074-.395-12.338 4.161-1.68 3.395-.418 13.102.089 17.92.139 1.294 1.094 2.22 2.197 1.543.487-.289.994-.627 1.62-.996 4.404-2.768 11.105-7.327 12.586-10.324 2.232-4.548.374-10.047-4.156-12.305zm.129 10.354a4.71 4.71 0 0 1-4.54 2.613c-1.902-.129-3.539-1.392-4.148-3.201s-.069-3.807 1.367-5.062 3.486-1.52 5.194-.672a4.723 4.723 0 0 1 2.118 6.322h.01z" fill="url(#b)"/><path fill="url(#c)" d="m17.398 112.951-1.402 1.254-.815.737-5.219-10.792 8.261-4.221-.109 1.742z"/><path d="m15.996 114.205-.815.737-5.239-10.822 8.261-4.221-.109 1.742a7.89 7.89 0 0 0-3.49 5.535 11.96 11.96 0 0 0 1.392 7.029z" fill="url(#d)" opacity=".5" style="mix-blend-mode:multiply"/><path fill="url(#e)" d="m15.28 96.096-6.184 6.939L0 95.24l1.183-.777 1.302-.866 9.862 1.931z"/><path d="m15.28 96.096-6.184 6.969L0 95.24l1.183-.777a10.93 10.93 0 0 0 5.567 2.788 6.755 6.755 0 0 0 5.597-1.722l2.933.567z" fill="url(#f)" opacity=".5" style="mix-blend-mode:multiply"/><path d="m15.996 98.734-3.191 2.907-1.66 1.374-1.69 1.334-1.72 1.304-1.74 1.254-3.619 2.359a.16.16 0 0 1-.209-.06.15.15 0 0 1 0-.179l3.201-2.907 1.65-1.374 1.69-1.334 1.72-1.294 1.75-1.264 3.619-2.35a.16.16 0 0 1 .209 0 .15.15 0 0 1-.01.229z" fill="url(#g)"/><path d="M15.201 73.367c-.845.657-1.64.996-1.78.856s.437-.846 1.282-1.503 1.63-.996 1.77-.856-.427.856-1.273 1.503z" fill="url(#h)"/><path d="M18.79 75.478c-.845.647-1.64.996-1.78.856s.437-.856 1.282-1.503 1.63-.996 1.77-.856-.427.846-1.273 1.503z" fill="url(#i)"/><path d="M23.86 79.729c-.835.657-1.63.996-1.77.856s.427-.846 1.273-1.503 1.64-.996 1.78-.856-.457.856-1.282 1.503z" fill="url(#j)"/><path d="M25.848 82.377c-.835.657-1.63.996-1.77.856s.437-.846 1.273-1.503 1.64-.996 1.78-.856-.408.856-1.282 1.503z" fill="url(#k)"/><path d="m20.877 68.28-1.312-1.702a1.635 1.635 0 0 1 .288-2.29l1.71-1.314a.507.507 0 0 1 .726.09l2.674 3.474a.52.52 0 0 1-.109.747l-1.7 1.314a1.63 1.63 0 0 1-2.277-.319z" fill="url(#l)"/><path fill="url(#m)" transform="matrix(.791863 -.610698 .610698 .791863 -37.294619 26.136953)" d="m18.142 66.261 3.113-.002-.002 3.045-3.113.002z"/><path d="M32.718 72.402 31.406 70.7a1.632 1.632 0 0 1 .299-2.29l1.7-1.314a.527.527 0 0 1 .736.09l2.644 3.474a.51.51 0 0 1-.089.727l-1.7 1.314a1.63 1.63 0 0 1-2.277-.299z" fill="url(#n)"/><path fill="url(#o)" transform="matrix(.791863 -.610698 .610698 .791863 -37.343311 34.261742)" d="m30.037 70.394 3.113-.002-.002 3.045-3.113.002z"/><path fill="url(#p)" d="M42.262 73.855 27.737 85.642l-6.283-8.293-13.69-9.119 3.46-1.633 1.501-.697 26.385 7.108z"/><path d="M42.262 73.855 27.737 85.642l-6.283-8.293-13.69-9.07 3.46-1.633a22.46 22.46 0 0 0 7.178 6.471 7.95 7.95 0 0 0 2.277.996 3.417 3.417 0 0 0 2.386-.348 15.936 15.936 0 0 0 1.521-1.334 1.72 1.72 0 0 1 1.859-.338 11.58 11.58 0 0 0-1.988 3.465 3.908 3.908 0 0 0 .636 3.674 3.697 3.697 0 0 0 2.982.996 8.45 8.45 0 0 0 3.062-.996 24.187 24.187 0 0 0 8.013-6.292l3.112.916z" fill="url(#q)" opacity=".5" style="mix-blend-mode:multiply"/><path d="M40.025 105.603c-.845.657-1.422 1.324-1.282 1.503s.935-.199 1.78-.856 1.412-1.324 1.282-1.503-.935.209-1.78.856z" fill="url(#r)"/><path d="M38.902 101.591c-.845.657-1.412 1.324-1.282 1.503s.935-.199 1.78-.856 1.422-1.324 1.282-1.503-.915.209-1.78.856z" fill="url(#s)"/><use xlink:href="#t" fill="url(#u)"/><use xlink:href="#t" x="-2.038" y="-2.648" fill="url(#v)"/><path d="m46.378 101.452 1.342 1.673a1.63 1.63 0 0 0 2.287.299l1.69-1.294a.51.51 0 0 0 .089-.727l-2.674-3.465a.518.518 0 0 0-.726-.1l-1.66 1.304a1.642 1.642 0 0 0-.348 2.31z" fill="url(#w)"/><path fill="url(#x)" transform="matrix(.791505 -.611162 .611162 .791505 -52.97741 49.735596)" d="m44.854 100.996 3.107-.002-.002 3.039-3.107.002z"/><path d="m45.403 88.878 1.322 1.702a1.63 1.63 0 0 0 2.287.299l1.69-1.314a.54.54 0 0 0 .099-.737l-2.674-3.465a.537.537 0 0 0-.736-.1l-1.66 1.324a1.637 1.637 0 0 0-.328 2.29z" fill="url(#y)"/><path fill="url(#z)" transform="matrix(.791863 -.610698 .610698 .791863 -45.538048 46.596558)" d="m44.035 88.584 3.113-.002-.002 3.045-3.113.002z"/><path fill="url(#A)" d="m46.616 109.904-3.509 4.201-5.339-15.57-6.402-8.193 15.062-11.081.02 2.091.159 27.577z"/><path d="m46.616 109.904-3.509 4.171-5.329-15.551-6.402-8.183 15.052-11.11v2.081l-4.513 3.494a17.164 17.164 0 0 0-4.871 5.605 5.84 5.84 0 0 0-.706 2.987 3.078 3.078 0 0 0 1.501 2.529 3.97 3.97 0 0 0 3.778-.498c1.143-.667 2.565-2.917 3.46-1.991 1.292 1.444-2.982 2.588-3.847 4.311-.766 1.434-.447 3.186-.099 4.779A11.2 11.2 0 0 0 43 107.287a4.202 4.202 0 0 0 3.589 1.593l.03 1.025z" fill="url(#B)" opacity=".5" style="mix-blend-mode:multiply"/><path d="M37.579 87.604a164.24 164.24 0 0 1-19.416 12.624l-8.59 4.58a1.02 1.02 0 0 1-1.432-.179 1.023 1.023 0 0 1 .179-1.434 205.75 205.75 0 0 1 15.827-16.118c2.515-2.28 5.18-4.55 7.953-6.65 14.386-11.1 28.324-19.304 29.825-17.323s-9.971 13.4-24.347 24.501z" fill="url(#C)"/><path d="M18.511 95.837a8.688 8.688 0 0 0-.348 4.39l-8.59 4.58a1.02 1.02 0 0 1-1.432-.179 1.023 1.023 0 0 1 .179-1.434 205.75 205.75 0 0 1 15.827-16.118c-.994 1.165-1.889 2.359-2.774 3.584a19.56 19.56 0 0 0-2.863 5.177z" fill="url(#D)" opacity=".5" style="mix-blend-mode:multiply"/><path fill="url(#E)" d="m26.425 93.567.328-.229.179.249-.348.219z"/><path fill="url(#F)" d="m27.419 92.86.666-.478.209.319-.686.438z"/><path fill="url(#G)" d="m28.741 91.904.666-.478.249.368-.676.458z"/><path fill="url(#H)" d="m30.063 90.949.666-.478.288.418-.676.458z"/><path fill="url(#I)" d="m31.386 89.993.666-.478.318.448-.676.468z"/><path fill="url(#J)" d="m32.708 89.027.666-.478.338.478-.666.468z"/><path fill="url(#K)" d="m34.03 88.062.656-.488.378.518-.676.468z"/><path fill="url(#L)" d="m35.342 87.086.656-.478.398.538-.666.478z"/><path fill="url(#M)" d="m36.655 86.12.656-.488.418.558-.666.478z"/><path fill="url(#N)" d="m37.967 85.145.656-.498.427.577-.666.478z"/><path fill="url(#O)" d="m39.279 84.159.646-.498.447.587-.666.488z"/><path fill="url(#P)" d="m40.582 83.164.646-.498.457.597-.656.498z"/><path fill="url(#Q)" d="m41.874 82.168.646-.508.467.617-.646.498z"/><path fill="url(#R)" transform="matrix(.789727 -.613459 .613459 .789727 -40.629131 43.899503)" d="M43.315 80.833h.816l-.001.766-.816.001z"/><path fill="url(#S)" transform="matrix(.78456 -.620053 .620053 .78456 -40.031209 45.191089)" d="M44.609 79.824h.816v.756h-.816z"/><path fill="url(#T)" transform="matrix(.778572 -.627555 .627555 .778572 -39.437673 46.581982)" d="m45.883 78.804.816-.001-.001.746h-.816z"/><path fill="url(#U)" d="m47.004 78.106.636-.518.467.558-.626.538z"/><path fill="url(#V)" d="m48.276 77.071.626-.518.447.518-.616.548z"/><path fill="url(#W)" d="m49.529 76.025.616-.538.427.488-.606.548z"/><path fill="url(#X)" d="m50.762 74.95.616-.538.398.428-.596.577z"/><path fill="url(#Y)" d="m51.985 73.865.596-.548.358.358-.577.587z"/><path fill="url(#Z)" d="m53.198 72.73.288-.289.328.319-.288.299z"/><path fill="url(#aa)" d="m22.935 89.555.318-.259-.199-.229-.308.269z"/><path fill="url(#ab)" d="m23.89 88.778.626-.508-.239-.289-.616.538z"/><path fill="url(#ac)" d="m25.152 87.753.636-.508-.288-.348-.606.548z"/><path fill="url(#ad)" d="m26.425 86.738.646-.518-.328-.388-.626.538z"/><path fill="url(#ae)" d="m27.697 85.712.636-.508-.348-.438-.626.528z"/><path fill="url(#af)" d="m28.98 84.687.636-.508-.378-.458-.626.528z"/><path fill="url(#ag)" d="m30.262 83.671.636-.508-.398-.498-.626.528z"/><path fill="url(#ah)" d="m31.545 82.666.646-.508-.427-.528-.636.518z"/><path fill="url(#ai)" d="m32.827 81.65.646-.508-.437-.538-.636.508z"/><path fill="url(#aj)" d="m34.12 80.645.646-.508-.447-.558-.636.508z"/><path fill="url(#ak)" d="m35.412 79.639.646-.498-.447-.577-.646.508z"/><path fill="url(#al)" d="m36.704 78.644.656-.488-.457-.597-.646.498z"/><path fill="url(#am)" d="m38.017 77.658.656-.488-.467-.617-.646.498z"/><path fill="url(#an)" transform="matrix(.800836 -.598884 .598884 .800836 -37.738972 38.772615)" d="m39.017 75.749.816-.001-.001.756-.816.001z"/><path fill="url(#ao)" transform="matrix(.805928 -.592013 .592013 .805928 -36.584954 38.703283)" d="m40.332 74.775.816-.001-.001.756-.816.001z"/><path fill="url(#ap)" transform="matrix(.811574 -.58425 .58425 .811574 -35.417598 38.55659)" d="m41.66 73.815.816-.001v.746h-.816z"/><path fill="url(#aq)" d="m43.286 73.775.666-.468-.418-.597-.676.468z"/><path fill="url(#ar)" d="m44.618 72.83.666-.468-.378-.567-.686.458z"/><path fill="url(#as)" d="m45.96 71.904.676-.458-.348-.548-.696.448z"/><path fill="url(#at)" d="m47.322 70.988.676-.448-.308-.498-.706.418z"/><path fill="url(#au)" d="m48.684 70.102.696-.438-.258-.438-.716.408z"/><path fill="url(#av)" d="m50.106 69.236.348-.209-.209-.398-.368.189z"/><path d="M56.349 64.885s2.386-.289 2.913.209-.348 2.708-.348 2.708h.338s1.988-2.31 1.64-3.534-4.295.149-4.295.149l-.249.468z" fill="url(#aw)"/><path fill="url(#ax)" d="m57.144 65.174.706-1.274"/><path fill="url(#ay)" d="m58.397 65.204 1.442-1.722"/><path fill="url(#az)" d="m59.153 65.841 1.879-.757"/><path fill="url(#aA)" d="m59.063 66.856 1.014.05"/><path fill="url(#aB)" transform="matrix(.967753 -.2519 .2519 .967753 -22.205031 36.368575)" d="m90.839 88.427 80.226-.027-.011 33-80.226.027z"/><path fill="url(#aC)" transform="matrix(.967753 -.2519 .2519 .967753 -18.660112 34.947485)" d="m87.056 88.902 80.226-.027-.001 2.937-80.226.027z"/><path fill="url(#aD)" transform="matrix(.967753 -.2519 .2519 .967753 -25.740851 37.807006)" d="m94.684 117.988 80.226-.027-.001 2.937-80.226.027z"/></g><g opacity=".89"><g stroke="#ffba66" stroke-width="1.618"><path d="m120.621 95.22.447 1.752"/><path stroke-dasharray="5.458" d="m122.093 100.914 3.589 13.778"/><path d="m126.188 116.664.457 1.752"/></g><g fill="#ffba66" fill-rule="nonzero"><path d="m156.241 89.011 8.447-2.202.446 1.715-8.447 2.202zm.647 2.501 8.447-2.202.143.549-8.447 2.202zm.303 1.208 8.447-2.202.143.549-8.447 2.202zm.504 1.721 8.467-2.185.142.55-8.467 2.185zm.138.701 8.447-2.202.363 1.397-8.447 2.202zm.689 2.525 8.467-2.185.164.637-8.467 2.185zm.271 1.049 8.467-2.185.288 1.12-8.467 2.185z"/><path d="m159.024 99.725 8.447-2.202.163.626-8.447 2.202zm.235.926 8.447-2.202.165.636-8.447 2.202zm.239.937 8.447-2.202.07.27-8.447 2.202zm.219.783 8.447-2.202.178.684-8.447 2.202zm.268 1.051 8.447-2.202.115.443-8.447 2.202zm.189.723 8.447-2.202.293 1.127-8.447 2.202zm.426 1.656 8.447-2.202.168.646-8.447 2.202zm-65.823 1.519 9.566-2.469.239.927-9.566 2.469zm31.312-4.192 9.544-2.488.213.819-9.544 2.488zm19.335-8.709 9.544-2.488.213.819-9.544 2.488zm.457 1.762 4.955-1.292.213.819L146.094 97zm-17.641 15.025 9.544-2.488.213.819-9.544 2.488zm-1.766-6.597 15.836-4.128.213.819-15.836 4.128zm.365 1.409 4.368-1.139.213.819-4.368 1.139zm1.736 6.499 12.421-3.238.213.819-12.421 3.238zm13.15-3.438 3.752-.978.213.819-3.752.978zm-44.605 7.17 9.566-2.469.239.927-9.566 2.469zm.406 1.137 3.492-.91.24.925-3.492.91zm-2.327-8.77 13.912-3.626.24.925-13.912 3.626zm15.231-3.965 4.079-1.063.24.925-4.079 1.063zm-14.8 5.626 4.734-1.234.24.925-4.734 1.234zm2.293 8.629 11.584-3.019.24.925-11.584 3.019zm29.011-24.294a3.296 3.296 0 0 0-.884 6.033 3.287 3.287 0 0 0 3.66-.205 3.3 3.3 0 0 0 1.2-3.469 3.29 3.29 0 0 0-3.977-2.359zm3.738 3.863c-.07 0-.258.179-.567.348a8.085 8.085 0 0 0-.199-1.384l.785-.209a3.08 3.08 0 0 1-.02 1.244zm-1.988 2.17-.209-.796a8.34 8.34 0 0 0 1.332-.498v.667a2.91 2.91 0 0 1-1.133.627h.01zm-1.591.06-.348-.558a7.76 7.76 0 0 0 1.422-.219l.209.796a2.98 2.98 0 0 1-1.292-.02h.01zm-2.147-1.991.775-.199a7.9 7.9 0 0 0 .497 1.304h-.646a3.05 3.05 0 0 1-.636-1.085l.01-.02zm-.07-1.563a6.33 6.33 0 0 1 .547-.348 8.11 8.11 0 0 0 .209 1.463l-.775.199a2.79 2.79 0 0 1 .02-1.314zm1.988-2.15.199.767a7.47 7.47 0 0 0-1.332.518 4.657 4.657 0 0 1 0-.647 3.07 3.07 0 0 1 1.133-.677v.04zm1.581-.06a5.14 5.14 0 0 1 .338.538 7.405 7.405 0 0 0-1.412.209l-.199-.767a3.04 3.04 0 0 1 1.273-.02v.04zm-.994 1.065a7.09 7.09 0 0 1 1.501-.209 7.82 7.82 0 0 1 .557 1.454l-1.62.428-.437-1.673zm-.308.08.437 1.673-1.63.428a7.747 7.747 0 0 1-.209-1.553 6.84 6.84 0 0 1 1.402-.587v.04zm-1.113 2.399 1.63-.418.418 1.593c-.496.12-1.002.19-1.511.209a7.03 7.03 0 0 1-.537-1.424v.04zm2.356 1.095-.418-1.593 1.62-.428a7.32 7.32 0 0 1 .199 1.473 8.6 8.6 0 0 1-1.402.508v.04zm1.442-2.429a8.31 8.31 0 0 0-.517-1.384c.212-.011.424-.011.636 0a2.99 2.99 0 0 1 .666 1.155l-.785.229zm-.268-1.702h-.418l-.209-.358a2.8 2.8 0 0 1 .626.338v.02zm-4.136.548v.428l-.378.219a2.87 2.87 0 0 1 .378-.667v.02zm.507 4.171h.447l.219.388a2.98 2.98 0 0 1-.666-.418v.03zm4.175-.498v-.458l.398-.229a3.19 3.19 0 0 1-.398.667v.02z"/></g></g></g></svg>