<svg xmlns="http://www.w3.org/2000/svg" xmlns:xlink="http://www.w3.org/1999/xlink" viewBox="0 0 195 400"><defs><linearGradient id="Degradado_sin_nombre_48" x1="1.11" x2="1.11" y1="68.91" y2="49.05" gradientTransform="matrix(1, 0, 0, 1, 0, 0)" gradientUnits="userSpaceOnUse"><stop offset="0" stop-color="#6d6f71"/><stop offset=".01" stop-color="#7b7d7f"/><stop offset=".05" stop-color="#9b9c9e"/><stop offset=".08" stop-color="#b6b7b8"/><stop offset=".12" stop-color="#cccdce"/><stop offset=".17" stop-color="#ddddde"/><stop offset=".23" stop-color="#e9e9ea"/><stop offset=".32" stop-color="#f0f0f1"/><stop offset=".55" stop-color="#f2f2f3"/><stop offset=".74" stop-color="#f0f0f1"/><stop offset=".81" stop-color="#e9e9ea"/><stop offset=".86" stop-color="#ddddde"/><stop offset=".9" stop-color="#cccdce"/><stop offset=".93" stop-color="#b6b7b8"/><stop offset=".96" stop-color="#9b9c9e"/><stop offset=".99" stop-color="#7b7d7f"/><stop offset="1" stop-color="#6d6f71"/></linearGradient><linearGradient xlink:href="#Degradado_sin_nombre_48" id="Degradado_sin_nombre_48-2" x1="0" x2="2.21" y1="58.98" y2="58.98"/><linearGradient xlink:href="#Degradado_sin_nombre_48" id="Degradado_sin_nombre_48-3" x1="1.23" x2="1.23" y1="123.35" y2="89.5"/><linearGradient xlink:href="#Degradado_sin_nombre_48" id="Degradado_sin_nombre_48-4" x1="0" x2="2.45" y1="106.43" y2="106.43"/><linearGradient xlink:href="#Degradado_sin_nombre_48" id="Degradado_sin_nombre_48-5" x1="1.23" x2="1.23" y1="166.16" y2="132.31"/><linearGradient xlink:href="#Degradado_sin_nombre_48" id="Degradado_sin_nombre_48-6" x1="0" x2="2.45" y1="149.24" y2="149.24"/><linearGradient xlink:href="#Degradado_sin_nombre_48" id="Degradado_sin_nombre_48-7" x1="194.14" x2="194.14" y1="153.09" y2="102.58"/><linearGradient xlink:href="#Degradado_sin_nombre_48" id="Degradado_sin_nombre_48-8" x1="193.28" x2="195" y1="127.83" y2="127.83"/><linearGradient id="linear-gradient" x1="15.25" x2="180.95" y1="89.77" y2="89.77" gradientTransform="translate(-.26 3.07) rotate(-.16) scale(1 .96) skewX(.01)" gradientUnits="userSpaceOnUse"><stop offset="0" stop-color="#ff5a2b"/><stop offset=".9" stop-color="#f2a040"/></linearGradient><linearGradient id="linear-gradient-2" x1="104.29" x2="105.22" y1="207.87" y2="224.38" gradientTransform="matrix(1, 0, 0, 1, 0, 0)" gradientUnits="userSpaceOnUse"><stop offset=".02" stop-color="#a55582"/><stop offset=".42" stop-color="#b4496f"/><stop offset=".57" stop-color="#bc4768"/><stop offset=".82" stop-color="#d44455"/><stop offset=".91" stop-color="#de434d"/></linearGradient><linearGradient id="linear-gradient-3" x1="93.27" x2="87.45" y1="218.52" y2="233.4" gradientTransform="matrix(1, 0, 0, 1, 0, 0)" gradientUnits="userSpaceOnUse"><stop offset="0" stop-color="#ffde65"/><stop offset=".02" stop-color="#ffd954"/><stop offset=".13" stop-color="#ffc706"/><stop offset=".14" stop-color="#fdc10b"/><stop offset=".26" stop-color="#f39b30"/><stop offset=".32" stop-color="#f08d3f"/><stop offset=".47" stop-color="#eb6948"/></linearGradient><linearGradient id="linear-gradient-4" x1="97.07" x2="99.46" y1="213.36" y2="226.15" gradientTransform="matrix(1, 0, 0, 1, 0, 0)" gradientUnits="userSpaceOnUse"><stop offset=".02" stop-color="#cd5c6c"/><stop offset=".09" stop-color="#d65f68"/><stop offset=".27" stop-color="#e86561"/><stop offset=".4" stop-color="#ef685f"/><stop offset=".65" stop-color="#ee754f"/><stop offset=".96" stop-color="#ee8241"/></linearGradient><linearGradient xlink:href="#linear-gradient-2" id="linear-gradient-5" x1="100.86" x2="101.79" y1="208.07" y2="224.57"/><linearGradient xlink:href="#linear-gradient-4" id="linear-gradient-6" x1="100.28" x2="102.67" y1="212.76" y2="225.55"/><linearGradient xlink:href="#linear-gradient-2" id="linear-gradient-7" x1="101.17" x2="102.1" y1="208.05" y2="224.56"/><linearGradient xlink:href="#linear-gradient-4" id="linear-gradient-8" x1="101.32" x2="103.71" y1="212.57" y2="225.35"/><linearGradient xlink:href="#linear-gradient-3" id="linear-gradient-9" x1="95.68" x2="89.86" y1="219.46" y2="234.34"/><linearGradient xlink:href="#linear-gradient-4" id="linear-gradient-10" x1="93.4" x2="95.79" y1="214.05" y2="226.83"/><linearGradient xlink:href="#linear-gradient-4" id="linear-gradient-11" x1="100.14" x2="102.53" y1="212.79" y2="225.57"/><linearGradient xlink:href="#linear-gradient-2" id="linear-gradient-12" x1="100.72" x2="101.65" y1="208.07" y2="224.58"/><linearGradient xlink:href="#linear-gradient-4" id="linear-gradient-13" x1="100.14" x2="102.53" y1="212.79" y2="225.57"/><linearGradient xlink:href="#linear-gradient-3" id="linear-gradient-14" x1="95.47" x2="89.66" y1="219.38" y2="234.26"/><linearGradient xlink:href="#linear-gradient-4" id="linear-gradient-15" x1="94.02" x2="96.41" y1="213.93" y2="226.72"/><linearGradient xlink:href="#linear-gradient-3" id="linear-gradient-16" x1="95.61" x2="89.8" y1="219.43" y2="234.32"/><linearGradient xlink:href="#linear-gradient-4" id="linear-gradient-17" x1="93.27" x2="95.66" y1="214.07" y2="226.86"/><linearGradient id="linear-gradient-18" x1="-112.78" x2="-112.78" y1="-406.67" y2="-424.79" gradientTransform="translate(284.89 744.11)" gradientUnits="userSpaceOnUse"><stop offset="0" stop-color="#ee6934"/><stop offset=".39" stop-color="#f26646"/><stop offset="1" stop-color="#fd606d"/></linearGradient><clipPath id="clippath-1"><path d="M165.31 8.06h-18.86c-1.28 0-2.32 1.04-2.32 2.32v6.51c0 3.72-3.4 6.74-7.59 6.74H58.96c-4.19 0-7.59-3.02-7.59-6.74v-6.51c0-1.28-1.04-2.32-2.32-2.32H30.19c-11 0-19.91 8.91-19.91 19.91v341.09c0 11 8.91 19.91 19.91 19.91h135.12c11 0 19.91-8.91 19.91-19.91V27.98c0-11-8.91-19.91-19.91-19.91Z" style="fill:none"/></clipPath><clipPath id="clippath-2"><path d="M185.34 27.98v341.08c0 11.05-8.99 20.04-20.04 20.04H30.19c-11.05 0-20.04-8.99-20.04-20.04V27.98c0-11.05 8.99-20.04 20.04-20.04h18.86c1.35 0 2.45 1.1 2.45 2.45v6.51c0 3.65 3.35 6.62 7.46 6.62h77.58c4.11 0 7.46-2.97 7.46-6.62v-6.51c0-1.35 1.1-2.45 2.45-2.45h18.86c11.05 0 20.04 8.99 20.04 20.04Z" style="clip-path:url(#clippath-1);fill:none"/></clipPath><clipPath id="clippath-3"><path d="M185.09 27.98c0-10.91-8.87-19.79-19.79-19.79h-18.86c-1.21 0-2.2.99-2.2 2.2v6.51c0 3.79-3.46 6.87-7.71 6.87H58.96c-4.25 0-7.71-3.08-7.71-6.87v-6.51c0-1.21-.99-2.2-2.2-2.2H30.19c-10.91 0-19.79 8.88-19.79 19.79v341.08c0 10.91 8.87 19.79 19.79 19.79H165.3c10.91 0 19.79-8.88 19.79-19.79V27.98Z" style="clip-path:url(#clippath-2);fill:none"/></clipPath><style>.cls-6,.cls-7{fill:none;stroke-linecap:round;stroke-linejoin:round}.cls-7{stroke:#fff}.cls-17{fill:#fff}.cls-20{fill:#d0d2d3}.cls-23{fill:#4a4a4a}.cls-24{fill:#3b3b3b}.cls-25{fill:#606060}.cls-6{stroke-width:4px;stroke:#d0d2d3}.cls-7{stroke-width:.5px}.cls-49{fill:#c64e28;opacity:.59}.cls-50{fill:#b30d31;opacity:.61}</style></defs><g style="isolation:isolate"><g id="Layer_1"><path d="M165.31 0H30.19C14.76 0 2.21 12.55 2.21 27.98v344.08c0 15.43 12.55 27.98 27.98 27.98h135.12c15.43 0 27.98-12.55 27.98-27.98V27.98C193.29 12.55 180.74 0 165.31 0Zm20.04 372.06c0 11.05-8.99 20.04-20.04 20.04H30.19c-11.05 0-20.04-8.99-20.04-20.04V27.98c0-11.05 8.99-20.04 20.04-20.04h18.86c1.35 0 2.45 1.1 2.45 2.45v6.51c0 3.65 3.35 6.62 7.46 6.62h77.58c4.11 0 7.46-2.97 7.46-6.62v-6.51c0-1.35 1.1-2.45 2.45-2.45h18.86c11.05 0 20.04 8.99 20.04 20.04v344.08Z" style="fill:#ccc"/><path d="M114.02 12.55H81.48c-.83 0-1.51.68-1.51 1.51s.68 1.51 1.51 1.51h32.54c.83 0 1.51-.68 1.51-1.51s-.68-1.51-1.51-1.51Z" style="fill:#444"/><path d="M0 51.23v15.51c0 1.2.97 2.17 2.17 2.17h.04V49.05h-.04c-1.2 0-2.17.97-2.17 2.17Z" style="fill:url(#Degradado_sin_nombre_48)"/><path d="M0 51.23v15.51c0 1.2.97 2.17 2.17 2.17h.04V49.05h-.04c-1.2 0-2.17.97-2.17 2.17Z" style="fill:url(#Degradado_sin_nombre_48-2);mix-blend-mode:multiply;opacity:.5"/><path d="M0 91.74v29.37c0 1.24 1 2.24 2.24 2.24h.21V89.5h-.21C1 89.5 0 90.5 0 91.74Z" style="fill:url(#Degradado_sin_nombre_48-3)"/><path d="M0 91.74v29.37c0 1.24 1 2.24 2.24 2.24h.21V89.5h-.21C1 89.5 0 90.5 0 91.74Z" style="fill:url(#Degradado_sin_nombre_48-4);mix-blend-mode:multiply;opacity:.5"/><path d="M0 134.55v29.37c0 1.24 1 2.24 2.24 2.24h.21v-33.85h-.21c-1.24 0-2.24 1-2.24 2.24Z" style="fill:url(#Degradado_sin_nombre_48-5)"/><path d="M0 134.55v29.37c0 1.24 1 2.24 2.24 2.24h.21v-33.85h-.21c-1.24 0-2.24 1-2.24 2.24Z" style="fill:url(#Degradado_sin_nombre_48-6);mix-blend-mode:multiply;opacity:.5"/><path d="M193.28 102.58v50.51c.95 0 1.72-.99 1.72-2.21v-46.09c0-1.22-.77-2.21-1.72-2.21Z" style="fill:url(#Degradado_sin_nombre_48-7)"/><path d="M193.28 102.58v50.51c.95 0 1.72-.99 1.72-2.21v-46.09c0-1.22-.77-2.21-1.72-2.21Z" style="mix-blend-mode:multiply;opacity:.5;fill:url(#Degradado_sin_nombre_48-8)"/><path d="M189.49 27.98v341.08c0 13.34-10.85 24.19-24.19 24.19H30.19C16.85 393.25 6 382.4 6 369.06V27.98C6 14.64 16.85 3.79 30.19 3.79h135.12c13.34 0 24.19 10.85 24.19 24.19ZM165.3 8.07h-18.86c-1.28 0-2.32 1.04-2.32 2.32v6.51c0 3.72-3.4 6.74-7.59 6.74H58.96c-4.19 0-7.59-3.02-7.59-6.74v-6.51c0-1.28-1.04-2.32-2.32-2.32H30.19c-11 0-19.91 8.91-19.91 19.91v341.08c0 11 8.91 19.91 19.91 19.91h135.12c11 0 19.91-8.91 19.91-19.91V27.98c0-11-8.91-19.91-19.91-19.91Zm20.04 19.91v341.08c0 11.05-8.99 20.04-20.04 20.04H30.19c-11.05 0-20.04-8.99-20.04-20.04V27.98c0-11.05 8.99-20.04 20.04-20.04h18.86c1.35 0 2.45 1.1 2.45 2.45v6.51c0 3.65 3.35 6.62 7.46 6.62h77.58c4.11 0 7.46-2.97 7.46-6.62v-6.51c0-1.35 1.1-2.45 2.45-2.45h18.86c11.05 0 20.04 8.99 20.04 20.04Zm-.25 0c0-10.91-8.87-19.79-19.79-19.79h-18.86c-1.21 0-2.2.99-2.2 2.2v6.51c0 3.79-3.46 6.87-7.71 6.87H58.96c-4.25 0-7.71-3.08-7.71-6.87v-6.51c0-1.21-.99-2.2-2.2-2.2H30.19c-10.91 0-19.79 8.88-19.79 19.79v341.08c0 10.91 8.87 19.79 19.79 19.79H165.3c10.91 0 19.79-8.88 19.79-19.79V27.98Z" style="fill:#09090c"/><g style="clip-path:url(#clippath-3)"><path d="M7.63 6.58h181.12v62.71H7.63z" class="cls-17"/><path d="M7.63 65.37h181.12V371.4H7.63z" style="fill:#efefef"/><rect width="165.61" height="33.26" x="15.29" y="72.56" rx="2.7" ry="2.7" style="fill:url(#linear-gradient)" transform="translate(.26 -.29) rotate(.17)"/><rect width="148.28" height="5.69" x="23.24" y="79.1" class="cls-17" rx="2.85" ry="2.85"/><rect width="143.27" height="5.69" x="23.24" y="87.56" class="cls-17" rx="2.85" ry="2.85"/><rect width="18.96" height="5.69" x="23.24" y="96.02" class="cls-17" rx="2.85" ry="2.85"/><rect width="19.69" height="5.14" x="141.94" y="54.05" class="cls-20" rx="1.79" ry="1.79"/><rect width="54.02" height="11.68" x="71.11" y="49.59" rx="2.91" ry="2.91" style="fill:#ededed"/><rect width="22.93" height="5.14" x="86.89" y="53.39" class="cls-20" rx="1.93" ry="1.93"/><rect width="16.21" height="5.14" x="35.5" y="53.39" class="cls-20" rx="1.63" ry="1.63"/><rect width="80.46" height="5.11" x="57.4" y="34.79" class="cls-20" rx="2.56" ry="2.56"/><path d="m19.21 40.64-3.29-3.29 3.29-3.29" style="stroke-miterlimit:10;stroke:#4a4a4a;stroke-width:.75px;stroke-linecap:round;fill:none"/><circle cx="166.5" cy="37.35" r="1.13" class="cls-23"/><circle cx="170.39" cy="37.35" r="1.13" class="cls-23"/><circle cx="174.11" cy="37.35" r="1.13" class="cls-23"/><rect width="78.29" height="6.38" x="15.25" y="117.11" class="cls-20" rx="2.32" ry="2.32"/><path d="M28.83 259.33H167M28.83 266.79H167M26.43 274.25h143.3M18.11 321.07h138.16M18.11 329.92h35.57M18.11 338.01h61.92" class="cls-6"/><path d="M194.29 370.01c1.93 0 1.93-3 0-3s-1.93 3 0 3Z" class="cls-25"/><rect width="163.78" height="171.36" x="16.31" y="132.7" class="cls-17" rx="5.9" ry="5.9"/><rect width="103.3" height="103.3" x="46.55" y="165.26" class="cls-17" rx="5" ry="5"/><path d="M55.71 259.15h4.22v4.22h-4.22zM59.93 259.15h4.22v4.22h-4.22zM64.15 259.15h4.22v4.22h-4.22zM68.38 259.15h4.22v4.22h-4.22zM72.6 259.15h4.22v4.22H72.6zM81.05 259.15h4.22v4.22h-4.22zM85.27 259.15h4.22v4.22h-4.22zM97.95 259.15h4.22v4.22h-4.22zM106.39 259.15h4.47v4.22h-4.47zM110.87 259.15h4.22v4.22h-4.22zM119.32 259.15h4.22v4.22h-4.22zM123.54 259.15h4.22v4.22h-4.22zM127.76 259.15h4.22v4.22h-4.22zM131.99 259.15h4.22v4.22h-4.22zM136.21 259.15h4.22v4.22h-4.22zM140.44 259.15h4.47v4.22h-4.47zM51.48 259.15h4.22v4.22h-4.22z" class="cls-24"/><path d="M72.6 254.93h4.22v4.22H72.6zM85.27 254.93h4.22v4.22h-4.22zM93.72 254.93h4.22v4.22h-4.22zM97.95 254.93h4.22v4.22h-4.22zM102.17 254.93h4.22v4.22h-4.22zM106.39 254.93h4.47v4.22h-4.47zM119.32 254.93h4.22v4.22h-4.22zM140.44 254.93h4.47v4.22h-4.47zM51.48 254.93h4.22v4.22h-4.22zM59.93 250.71h4.22v4.22h-4.22zM64.15 250.71h4.22v4.22h-4.22zM72.6 250.71h4.22v4.22H72.6zM81.05 250.71h4.22v4.22h-4.22zM85.27 250.71h4.22v4.22h-4.22zM89.5 250.71h4.22v4.22H89.5zM97.95 250.71h4.22v4.22h-4.22zM102.17 250.71h4.22v4.22h-4.22zM106.39 250.71h4.47v4.22h-4.47zM110.87 250.71h4.22v4.22h-4.22zM119.32 250.71h4.22v4.22h-4.22zM127.76 250.71h4.22v4.22h-4.22zM131.99 250.71h4.22v4.22h-4.22zM140.44 250.71h4.47v4.22h-4.47zM51.48 250.71h4.22v4.22h-4.22zM59.93 246.48h4.22v4.22h-4.22zM64.15 246.48h4.22v4.22h-4.22zM72.6 246.48h4.22v4.22H72.6zM81.05 246.48h4.22v4.22h-4.22zM89.5 246.48h4.22v4.22H89.5zM97.95 246.48h4.22v4.22h-4.22zM119.32 246.48h4.22v4.22h-4.22zM127.76 246.48h4.22v4.22h-4.22zM131.99 246.48h4.22v4.22h-4.22zM140.44 246.48h4.47v4.22h-4.47zM51.48 246.48h4.22v4.22h-4.22zM72.6 242.26h4.22v4.22H72.6zM81.05 242.26h4.22v4.22h-4.22zM85.27 242.26h4.22v4.22h-4.22zM89.5 242.26h4.22v4.22H89.5zM97.95 242.26h4.22v4.22h-4.22zM102.17 242.26h4.22v4.22h-4.22zM110.87 242.26h4.22v4.22h-4.22zM119.32 242.26h4.22v4.22h-4.22zM140.44 242.26h4.47v4.22h-4.47zM51.48 242.26h4.22v4.22h-4.22zM55.71 238.03h4.22v4.22h-4.22zM59.93 238.03h4.22v4.22h-4.22zM64.15 238.03h4.22v4.22h-4.22zM68.38 238.03h4.22v4.22h-4.22zM72.6 238.03h4.22v4.22H72.6zM81.05 238.03h4.22v4.22h-4.22zM89.5 238.03h4.22v4.22H89.5zM93.72 238.03h4.22v4.22h-4.22zM102.17 238.03h4.22v4.22h-4.22zM119.32 238.03h4.22v4.22h-4.22zM123.54 238.03h4.22v4.22h-4.22zM127.76 238.03h4.22v4.22h-4.22zM131.99 238.03h4.22v4.22h-4.22zM136.21 238.03h4.22v4.22h-4.22zM140.44 238.03h4.47v4.22h-4.47zM51.48 238.03h4.22v4.22h-4.22zM93.72 233.81h4.22v4.22h-4.22zM97.95 233.81h4.22v4.22h-4.22zM102.17 233.81h4.22v4.22h-4.22zM110.87 233.81h4.22v4.22h-4.22zM55.71 229.59h4.22v4.22h-4.22zM59.93 229.59h4.22v4.22h-4.22zM64.15 229.59h4.22v4.22h-4.22zM68.38 229.59h4.22v4.22h-4.22zM81.05 229.59h4.22v4.22h-4.22zM85.27 229.59h4.22v4.22h-4.22zM89.5 229.59h4.22v4.22H89.5zM97.95 229.59h4.22v4.22h-4.22zM102.17 229.59h4.22v4.22h-4.22zM106.39 229.59h4.47v4.22h-4.47zM119.32 229.59h4.22v4.22h-4.22zM123.54 229.59h4.22v4.22h-4.22zM127.76 229.59h4.22v4.22h-4.22zM136.21 229.59h4.22v4.22h-4.22zM140.44 229.59h4.47v4.22h-4.47zM59.93 225.36h4.22v4.22h-4.22zM64.15 225.36h4.22v4.22h-4.22zM76.83 225.36h4.22v4.22h-4.22zM81.05 225.36h4.22v4.22h-4.22zM89.5 225.36h4.22v4.22H89.5zM102.17 225.36h4.22v4.22h-4.22zM110.87 225.36h4.22v4.22h-4.22zM123.54 225.36h4.22v4.22h-4.22zM127.76 225.36h4.22v4.22h-4.22zM55.71 221.14h4.22v4.22h-4.22zM64.15 221.14h4.22v4.22h-4.22zM68.38 221.14h4.22v4.22h-4.22zM72.6 221.14h4.22v4.22H72.6zM76.83 221.14h4.22v4.22h-4.22zM85.27 221.14h4.22v4.22h-4.22zM89.5 221.14h4.22v4.22H89.5zM93.72 221.14h4.22v4.22h-4.22zM97.95 221.14h4.22v4.22h-4.22zM102.17 221.14h4.22v4.22h-4.22zM106.39 221.14h4.47v4.22h-4.47zM127.76 221.14h4.22v4.22h-4.22zM131.99 221.14h4.22v4.22h-4.22zM140.44 221.14h4.47v4.22h-4.47zM51.48 221.14h4.22v4.22h-4.22zM55.71 216.91h4.22v4.22h-4.22zM59.93 216.91h4.22v4.22h-4.22zM64.15 216.91h4.22v4.22h-4.22zM81.05 216.91h4.22v4.22h-4.22zM85.27 216.91h4.22v4.22h-4.22zM102.17 216.91h4.22v4.22h-4.22zM115.09 216.91h4.22v4.22h-4.22zM119.32 216.91h4.22v4.22h-4.22zM127.76 216.91h4.22v4.22h-4.22zM131.99 216.91h4.22v4.22h-4.22zM136.21 216.91h4.22v4.22h-4.22zM140.44 216.91h4.47v4.22h-4.47zM51.48 216.91h4.22v4.22h-4.22zM64.15 212.69h4.22v4.22h-4.22zM68.38 212.69h4.22v4.22h-4.22zM72.6 212.69h4.22v4.22H72.6zM76.83 212.69h4.22v4.22h-4.22zM81.05 212.69h4.22v4.22h-4.22zM85.27 212.69h4.22v4.22h-4.22zM97.95 212.69h4.22v4.22h-4.22zM110.87 212.69h4.22v4.22h-4.22zM115.09 212.69h4.22v4.22h-4.22zM131.99 212.69h4.22v4.22h-4.22zM51.48 212.69h4.22v4.22h-4.22zM55.71 208.47h4.22v4.22h-4.22zM59.93 208.47h4.22v4.22h-4.22zM64.15 208.47h4.22v4.22h-4.22zM68.38 208.47h4.22v4.22h-4.22zM76.83 208.47h4.22v4.22h-4.22zM85.27 208.47h4.22v4.22h-4.22zM89.5 208.47h4.22v4.22H89.5zM97.95 208.47h4.22v4.22h-4.22zM102.17 208.47h4.22v4.22h-4.22zM106.39 208.47h4.47v4.22h-4.47zM110.87 208.47h4.22v4.22h-4.22zM119.32 208.47h4.22v4.22h-4.22zM123.54 208.47h4.22v4.22h-4.22zM127.76 208.47h4.22v4.22h-4.22zM131.99 208.47h4.22v4.22h-4.22zM140.44 208.47h4.47v4.22h-4.47zM55.71 204.24h4.22v4.22h-4.22zM64.15 204.24h4.22v4.22h-4.22zM72.6 204.24h4.22v4.22H72.6zM76.83 204.24h4.22v4.22h-4.22zM89.5 204.24h4.22v4.22H89.5zM93.72 204.24h4.22v4.22h-4.22zM97.95 204.24h4.22v4.22h-4.22zM106.39 204.24h4.47v4.22h-4.47zM110.87 204.24h4.22v4.22h-4.22zM115.09 204.24h4.22v4.22h-4.22zM123.54 204.24h4.22v4.22h-4.22zM131.99 204.24h4.22v4.22h-4.22zM136.21 204.24h4.22v4.22h-4.22zM140.44 204.24h4.47v4.22h-4.47zM51.48 204.24h4.22v4.22h-4.22zM55.71 200.02h4.22v4.22h-4.22zM72.6 200.02h4.22v4.22H72.6zM76.83 200.02h4.22v4.22h-4.22zM85.27 200.02h4.22v4.22h-4.22zM89.5 200.02h4.22v4.22H89.5zM97.95 200.02h4.22v4.22h-4.22zM102.17 200.02h4.22v4.22h-4.22zM110.87 200.02h4.22v4.22h-4.22zM115.09 200.02h4.22v4.22h-4.22zM119.32 200.02h4.22v4.22h-4.22zM123.54 200.02h4.22v4.22h-4.22zM127.76 200.02h4.22v4.22h-4.22zM131.99 200.02h4.22v4.22h-4.22zM51.48 200.02h4.22v4.22h-4.22zM85.27 195.79h4.22v4.22h-4.22zM93.72 195.79h4.22v4.22h-4.22zM97.95 195.79h4.22v4.22h-4.22zM106.39 195.79h4.47v4.22h-4.47zM110.87 195.79h4.22v4.22h-4.22zM115.09 195.79h4.22v4.22h-4.22zM55.71 191.57h4.22v4.22h-4.22zM59.93 191.57h4.22v4.22h-4.22zM64.15 191.57h4.22v4.22h-4.22zM68.38 191.57h4.22v4.22h-4.22zM72.6 191.57h4.22v4.22H72.6zM81.05 191.57h4.22v4.22h-4.22zM85.27 191.57h4.22v4.22h-4.22zM97.95 191.57h4.22v4.22h-4.22zM115.09 191.57h4.22v4.22h-4.22zM119.32 191.57h4.22v4.22h-4.22zM127.76 191.57h4.22v4.22h-4.22zM140.44 191.57h4.47v4.22h-4.47zM51.48 191.57h4.22v4.22h-4.22zM72.6 187.35h4.22v4.22H72.6zM106.39 187.35h4.47v4.22h-4.47zM110.87 187.35h4.22v4.22h-4.22zM119.32 187.35h4.22v4.22h-4.22zM123.54 187.35h4.22v4.22h-4.22zM131.99 187.35h4.22v4.22h-4.22zM136.21 187.35h4.22v4.22h-4.22zM140.44 187.35h4.47v4.22h-4.47zM51.48 187.35h4.22v4.22h-4.22zM59.93 183.12h4.22v4.22h-4.22zM64.15 183.12h4.22v4.22h-4.22zM72.6 183.12h4.22v4.22H72.6zM81.05 183.12h4.22v4.22h-4.22zM85.27 183.12h4.22v4.22h-4.22zM93.72 183.12h4.22v4.22h-4.22zM97.95 183.12h4.22v4.22h-4.22zM106.39 183.12h4.47v4.22h-4.47zM123.54 183.12h4.22v4.22h-4.22zM127.76 183.12h4.22v4.22h-4.22zM131.99 183.12h4.22v4.22h-4.22zM51.48 183.12h4.22v4.22h-4.22zM59.93 178.9h4.22v4.22h-4.22zM64.15 178.9h4.22v4.22h-4.22zM72.6 178.9h4.22v4.22H72.6zM81.05 178.9h4.22v4.22h-4.22zM89.5 178.9h4.22v4.22H89.5zM93.72 178.9h4.22v4.22h-4.22zM97.95 178.9h4.22v4.22h-4.22zM102.17 178.9h4.22v4.22h-4.22zM106.39 178.9h4.47v4.22h-4.47zM115.09 178.9h4.22v4.22h-4.22zM119.32 178.9h4.22v4.22h-4.22zM123.54 178.9h4.22v4.22h-4.22zM131.99 178.9h4.22v4.22h-4.22zM136.21 178.9h4.22v4.22h-4.22zM140.44 178.9h4.47v4.22h-4.47zM51.48 178.9h4.22v4.22h-4.22zM72.6 174.67h4.22v4.22H72.6zM89.5 174.67h4.22v4.22H89.5zM93.72 174.67h4.22v4.22h-4.22zM102.17 174.67h4.22v4.22h-4.22zM106.39 174.67h4.47v4.22h-4.47zM110.87 174.67h4.22v4.22h-4.22zM115.09 174.67h4.22v4.22h-4.22zM136.21 174.67h4.22v4.22h-4.22zM51.48 174.67h4.22v4.22h-4.22zM55.71 170.45h4.22v4.22h-4.22zM59.93 170.45h4.22v4.22h-4.22zM64.15 170.45h4.22v4.22h-4.22zM68.38 170.45h4.22v4.22h-4.22zM72.6 170.45h4.22v4.22H72.6zM81.05 170.45h4.22v4.22h-4.22zM85.27 170.45h4.22v4.22h-4.22zM106.39 170.45h4.47v4.22h-4.47zM115.09 170.45h4.22v4.22h-4.22zM123.54 170.45h4.22v4.22h-4.22zM127.76 170.45h4.22v4.22h-4.22zM140.44 170.45h4.47v4.22h-4.47zM51.48 170.45h4.22v4.22h-4.22z" class="cls-24"/><path d="M108.14 220.12v-10.53c0-.88-.77-.8-.77-.8h-1.2s-1.79-.1-3.19 1.3c-1.47 1.47-1.5 3.23-1.5 3.23v.07h-2.25c-.87 0-1.87.26-2.95 1.3-1.36 1.31-1.48 2.77-1.49 3.13h0v.08s-1.78.03-2.22.03-1.91.17-3.12 1.5c-1.22 1.32-1.19 2.9-1.19 2.9v2.14c0 .55.7.56.7.56h14.29c.47 0 2.24-.19 3.59-1.74 1.35-1.55 1.31-3.18 1.31-3.18Z" style="stroke-width:3.43px;fill:#fff;stroke:#fff;stroke-linejoin:round;stroke-linecap:round"/><path d="M108.14 220.12v-10.53c0-.88-.77-.8-.77-.8h-1.2s-1.79-.1-3.19 1.3c-1.47 1.47-1.5 3.23-1.5 3.23v.07l.03 11.64h1.73c.47 0 2.24-.19 3.59-1.74 1.35-1.55 1.31-3.18 1.31-3.18Z" style="fill:url(#linear-gradient-2)"/><path d="M92.57 217.94c-.45 0-1.91.17-3.12 1.5-1.22 1.32-1.19 2.9-1.19 2.9v2.14c0 .55.7.56.7.56h5.56l.27-7.14s-1.77.03-2.22.03Z" style="fill:url(#linear-gradient-3)"/><path d="M101.47 213.4h-2.25c-.87 0-1.87.26-2.95 1.3-1.36 1.31-1.48 2.77-1.49 3.13v.45l.06 6.77h6.36l.26-11.63v-.02Z" style="fill:url(#linear-gradient-4)"/><path d="m101.5 225.04-.03-11.64.03 11.64z" style="fill:url(#linear-gradient-5)"/><path d="m101.5 225.04-.03-11.64.03 11.64z" style="fill:url(#linear-gradient-6)"/><path d="M101.47 213.4v.01-.01z" style="fill:url(#linear-gradient-7)"/><path d="M101.47 213.4v.01-.01z" style="fill:url(#linear-gradient-8)"/><path d="M94.84 225.04h.01l-.06-6.77.05 6.77z" style="fill:url(#linear-gradient-9)"/><path d="M94.84 225.04h.01l-.06-6.77.05 6.77z" style="fill:url(#linear-gradient-10)"/><path d="M101.21 225.04Z" class="cls-50"/><path d="m101.47 213.41-.26 11.63h.01l.25-11.63z" style="fill:url(#linear-gradient-11)"/><path d="m101.47 213.41-.26 11.63h.01l.25-11.63z" class="cls-50"/><path d="m101.47 213.41-.25 11.63h.28l-.03-11.64v.02Z" style="fill:url(#linear-gradient-12)"/><path d="m101.47 213.41-.25 11.63h.28l-.03-11.64v.02Z" style="fill:url(#linear-gradient-13)"/><path d="m101.47 213.41-.25 11.63h.28l-.03-11.64v.02Z" class="cls-50"/><path d="M94.79 217.82v.08-.08Z" class="cls-49"/><path d="m94.79 217.9-.27 7.14.27-7.14z" style="fill:url(#linear-gradient-14)"/><path d="m94.79 217.9-.27 7.14.27-7.14z" class="cls-49"/><path d="M94.79 217.9v-.08.08Z" style="fill:url(#linear-gradient-15)"/><path d="M94.79 217.9v-.08.08Z" class="cls-49"/><path d="m94.79 217.9-.27 7.14h.32l-.05-6.77v-.37z" style="fill:url(#linear-gradient-16)"/><path d="m94.79 217.9-.27 7.14h.32l-.05-6.77v-.37z" style="fill:url(#linear-gradient-17)"/><path d="m94.79 217.9-.27 7.14h.32l-.05-6.77v-.37z" class="cls-49"/><rect width="81.56" height="11.68" x="57.42" y="286.54" rx="3" ry="3" style="stroke:#606060;stroke-miterlimit:10;stroke-width:.5px;fill:none"/><rect width="33.88" height="3.11" x="80.88" y="291.05" class="cls-25" rx="1.55" ry="1.55"/><path d="M7.63 344.22h181.12v54.36H7.63z" class="cls-17"/><rect width="161.99" height="19.22" x="16.78" y="353.42" class="cls-23" rx="3.14" ry="3.14"/><path d="M66.34 363.02h62.87" style="stroke-width:4px;stroke:#fff;stroke-linejoin:round;stroke-linecap:round;fill:none"/><rect width="19.47" height="19.47" x="162.37" y="318.71" rx="3" ry="3" style="fill:url(#linear-gradient-18)" transform="translate(500.56 156.34) rotate(90)"/><path d="M174.52 325.54h-4.83c-.35 0-.63.28-.63.63v3.06c0 .35.28.63.63.63h.81l-.13 1.49 1.76-1.49h2.38c.35 0 .63-.28.63-.63v-3.06c0-.35-.28-.63-.63-.63Z" style="stroke-width:.75px;stroke:#fff;stroke-linejoin:round;stroke-linecap:round;fill:none"/><path d="M170.4 326.79h2.87M170.4 327.79h2.87M170.4 328.79h2.31" class="cls-7"/></g></g></g></svg>