<svg xmlns="http://www.w3.org/2000/svg" width="95" height="28" viewBox="0 0 95 28"><defs><linearGradient id="a" x1="48.587%" x2="51.065%" y1="-5.581%" y2="95.989%"><stop offset="1.98%" stop-color="#A75584"/><stop offset="42.05%" stop-color="#B6496F"/><stop offset="57.37%" stop-color="#BF4868"/><stop offset="81.9%" stop-color="#D64455"/><stop offset="90.56%" stop-color="#E0434D"/></linearGradient><linearGradient id="b" x1="74.461%" x2="-1.876%" y1="9.4%" y2="217.959%"><stop offset=".284%" stop-color="#FFE065"/><stop offset="2.41%" stop-color="#FFDC54"/><stop offset="12.84%" stop-color="#FFC906"/><stop offset="14.49%" stop-color="#FEC30C"/><stop offset="26%" stop-color="#F59D31"/><stop offset="32.06%" stop-color="#F28F3F"/><stop offset="46.98%" stop-color="#ED6948"/></linearGradient><linearGradient id="c" x1="44.243%" x2="56.7%" y1="-.043%" y2="109.768%"><stop offset="1.81%" stop-color="#CF5C6C"/><stop offset="9.04%" stop-color="#D85F68"/><stop offset="26.82%" stop-color="#EB6661"/><stop offset="39.56%" stop-color="#F1685F"/><stop offset="65.21%" stop-color="#F0774F"/><stop offset="95.68%" stop-color="#F08441"/></linearGradient></defs><g fill="none" fill-rule="nonzero"><path fill="url(#a)" d="M34.391 1.382v18.1s.062 2.803-2.271 5.466c-2.333 2.662-5.396 2.984-6.208 2.984h-3.49l.442-20.135s.058-3.027 2.602-5.556C27.89-.169 30.984.003 30.984.003h2.07c0-.001 1.337-.126 1.337 1.379" transform="translate(-0.000077, 0.034209)"/><path fill="url(#b)" d="m11.31 15.669.102 12.263H1.214S0 27.904 0 26.962v-3.678s-.045-2.708 2.062-4.982 4.62-2.573 5.402-2.573c.783 0 3.846-.06 3.846-.06" transform="translate(-0.000077, 0.034209)"/><path fill="url(#c)" d="M22.915 27.932h-12.07l.464-12.263s-.143-2.92 2.57-5.515c1.862-1.78 3.59-2.23 5.099-2.23h3.883z" transform="translate(-0.000077, 0.034209)"/><path fill="#B50D31" d="M22.412 27.967h.503L22.862 7.96z" opacity=".61"/><path fill="#C84E28" d="m11.31 15.552-.477 12.414h.567z" opacity=".59"/><g fill="#4A4A4C"><path d="M46.833 10.308h2.874V21.73h-2.874v-1.207q-.842.798-1.689 1.15a4.7 4.7 0 0 1-1.835.351q-2.22 0-3.84-1.717-1.62-1.715-1.619-4.268 0-2.646 1.567-4.336t3.808-1.69q1.03 0 1.934.388.904.39 1.673 1.165v-1.26M43.81 12.66q-1.332 0-2.214.94t-.882 2.41q0 1.48.897 2.436a2.91 2.91 0 0 0 2.21.955q1.353 0 2.245-.94.892-.939.892-2.462 0-1.492-.892-2.415-.892-.924-2.256-.924M53.735 5.604q.756 0 1.297.546t.54 1.323q0 .767-.535 1.308a1.74 1.74 0 0 1-1.281.54q-.767 0-1.307-.55a1.84 1.84 0 0 1-.54-1.34q0-.756.534-1.291a1.76 1.76 0 0 1 1.292-.536m-1.438 4.704h2.874V21.73h-2.874zM57.11 10.308h2.464v1.439q.4-.85 1.064-1.292.663-.44 1.452-.44.559 0 1.17.294l-.895 2.467q-.506-.252-.832-.252-.663 0-1.121.819-.458.82-.458 3.212l.01.557v4.62h-2.853V10.307zM72.438 10.308h2.875V21.73h-2.875v-1.207q-.841.798-1.688 1.15a4.7 4.7 0 0 1-1.835.351q-2.22 0-3.84-1.717-1.62-1.715-1.619-4.268 0-2.646 1.567-4.336t3.808-1.69q1.03 0 1.934.388.904.39 1.673 1.165zm-3.021 2.352q-1.332 0-2.215.94-.881.94-.88 2.41 0 1.48.896 2.436a2.9 2.9 0 0 0 2.21.955q1.353 0 2.245-.94.891-.939.892-2.462 0-1.492-.892-2.415-.891-.924-2.256-.924M77.904 5.899h2.874v15.833h-2.874zM88.77 10.015q1.62 0 3.048.808a5.84 5.84 0 0 1 2.227 2.194q.8 1.386.8 2.992a6 6 0 0 1-.805 3.024 5.8 5.8 0 0 1-2.195 2.2q-1.389.792-3.064.792-2.463 0-4.206-1.748t-1.743-4.247q0-2.678 1.97-4.463 1.725-1.552 3.968-1.552m.048 2.698q-1.34 0-2.23.93-.891.928-.892 2.377 0 1.492.88 2.415.882.924 2.231.924 1.35 0 2.247-.935.896-.933.896-2.404t-.88-2.388q-.881-.92-2.252-.919"/></g></g></svg>