<svg xmlns="http://www.w3.org/2000/svg" width="175" height="131"><defs><linearGradient x1="55.503%" y1="71.784%" x2="30.303%" y2="-16.484%" id="a"><stop stop-color="#ffc481" offset="0%"/><stop stop-color="#ffd7ba" offset="24%"/><stop stop-color="#fff0e6" offset="58%"/><stop stop-color="#fff" offset="87%"/></linearGradient><linearGradient x1="90.18%" y1="67.753%" x2="9.633%" y2="65.967%" id="b"><stop stop-color="#663600" offset="0%"/><stop stop-color="#5e3104" offset="1%"/><stop stop-color="#4d260b" offset="5%"/><stop stop-color="#431f10" offset="9%"/><stop stop-color="#401d11" offset="14%"/><stop stop-color="#45200f" offset="25%"/><stop stop-color="#532a08" offset="38%"/><stop stop-color="#663600" offset="49%"/><stop stop-color="#5f3300" offset="62%"/><stop stop-color="#512b00" offset="76%"/><stop stop-color="#4a2703" offset="83%"/><stop stop-color="#381b0a" offset="93%"/><stop stop-color="#30160d" offset="96%"/></linearGradient><linearGradient x1="15077.096%" y1="106.129%" x2="15183.501%" y2="106.129%" id="c"><stop stop-color="#663600" offset="0%"/><stop stop-color="#5e3104" offset="1%"/><stop stop-color="#4d260b" offset="5%"/><stop stop-color="#431f10" offset="9%"/><stop stop-color="#401d11" offset="14%"/><stop stop-color="#45200f" offset="25%"/><stop stop-color="#532a08" offset="38%"/><stop stop-color="#663600" offset="49%"/><stop stop-color="#5f3300" offset="62%"/><stop stop-color="#512b00" offset="76%"/><stop stop-color="#4a2703" offset="83%"/><stop stop-color="#381b0a" offset="93%"/><stop stop-color="#30160d" offset="96%"/></linearGradient><linearGradient x1="9319.823%" y1="109.633%" x2="9415.164%" y2="109.633%" id="d"><stop stop-color="#663600" offset="0%"/><stop stop-color="#5e3104" offset="1%"/><stop stop-color="#4d260b" offset="5%"/><stop stop-color="#431f10" offset="9%"/><stop stop-color="#401d11" offset="14%"/><stop stop-color="#45200f" offset="25%"/><stop stop-color="#532a08" offset="38%"/><stop stop-color="#663600" offset="49%"/><stop stop-color="#5f3300" offset="62%"/><stop stop-color="#512b00" offset="76%"/><stop stop-color="#4a2703" offset="83%"/><stop stop-color="#381b0a" offset="93%"/><stop stop-color="#30160d" offset="96%"/></linearGradient><linearGradient x1="99.911%" y1="50.09%" x2="-.089%" y2="50.09%" id="e"><stop stop-color="#b4cbdd" offset="0%"/><stop stop-color="#c1e6de" offset="73%"/></linearGradient><linearGradient x1="4687.293%" y1="63.29%" x2="4734.232%" y2="12.826%" id="f"><stop stop-color="#b4cbdd" offset="0%"/><stop stop-color="#c1e6de" offset="73%"/></linearGradient><linearGradient x1="3783.246%" y1="49.952%" x2="3883.198%" y2="49.952%" id="g"><stop stop-color="#b4cbdd" offset="0%"/><stop stop-color="#c1e6de" offset="73%"/></linearGradient><linearGradient x1="45.262%" y1="23.902%" x2="59.72%" y2="118.33%" id="h"><stop stop-color="#ffcbba" offset="5%"/><stop stop-color="#ffc4b4" offset="20%"/><stop stop-color="#ffb2a4" offset="41%"/><stop stop-color="#ffaea0" offset="44%"/><stop stop-color="#e39486" offset="88%"/></linearGradient><linearGradient x1="84.884%" y1="96.443%" x2="-5.116%" y2="-13.838%" id="i"><stop stop-color="#ffcbba" offset="5%"/><stop stop-color="#ffc4b4" offset="20%"/><stop stop-color="#ffb2a4" offset="41%"/><stop stop-color="#ffaea0" offset="44%"/><stop stop-color="#e39486" offset="67%"/></linearGradient><linearGradient x1="80.505%" y1="44.003%" x2="-23.418%" y2="48.722%" id="j"><stop stop-color="#26303f" offset="0%"/><stop stop-color="#293a54" offset="22%"/><stop stop-color="#2b4263" offset="43%"/><stop stop-color="#2a3f5c" offset="59%"/><stop stop-color="#28354a" offset="81%"/><stop stop-color="#26303f" offset="91%"/></linearGradient><linearGradient x1="117.302%" y1="76.007%" x2="-19.517%" y2="10.175%" id="k"><stop stop-color="#663600" offset="0%"/><stop stop-color="#5e3104" offset="1%"/><stop stop-color="#4d260b" offset="5%"/><stop stop-color="#431f10" offset="9%"/><stop stop-color="#401d11" offset="14%"/><stop stop-color="#45200f" offset="25%"/><stop stop-color="#532a08" offset="38%"/><stop stop-color="#663600" offset="49%"/><stop stop-color="#5f3300" offset="62%"/><stop stop-color="#512b00" offset="76%"/><stop stop-color="#4a2703" offset="83%"/><stop stop-color="#381b0a" offset="93%"/><stop stop-color="#30160d" offset="96%"/></linearGradient><linearGradient x1="29.529%" y1="9.457%" x2="67.672%" y2="86.747%" id="l"><stop stop-color="#ffcbba" offset="5%"/><stop stop-color="#ffc4b4" offset="20%"/><stop stop-color="#ffb2a4" offset="41%"/><stop stop-color="#ffaea0" offset="44%"/><stop stop-color="#e39486" offset="88%"/></linearGradient><linearGradient x1="55.267%" y1="82.841%" x2="47.873%" y2="-5.938%" id="m"><stop stop-color="#ffcbba" offset="5%"/><stop stop-color="#ffc4b4" offset="20%"/><stop stop-color="#ffb2a4" offset="41%"/><stop stop-color="#ffaea0" offset="44%"/><stop stop-color="#e39486" offset="88%"/></linearGradient><linearGradient x1="8419.709%" y1="49.989%" x2="8519.688%" y2="49.989%" id="n"><stop stop-color="#b4cbdd" offset="0%"/><stop stop-color="#c1e6de" offset="73%"/></linearGradient><linearGradient x1="167.254%" y1="44.794%" x2="-28.571%" y2="53.5%" id="o"><stop stop-color="#f28a00" offset="0%"/><stop stop-color="#fb9100" offset="19%"/><stop stop-color="#ff9500" offset="43%"/><stop stop-color="#ffda6a" offset="100%"/></linearGradient><linearGradient x1="159.319%" y1="49.735%" x2="-4.715%" y2="50.133%" id="p"><stop stop-color="#f28a00" offset="0%"/><stop stop-color="#fb9100" offset="16%"/><stop stop-color="#ff9500" offset="35%"/><stop stop-color="#ffda6a" offset="100%"/></linearGradient><linearGradient x1="7825.825%" y1="51.734%" x2="7642.546%" y2="46.738%" id="q"><stop stop-color="#f28a00" offset="0%"/><stop stop-color="#fb9100" offset="16%"/><stop stop-color="#ff9500" offset="35%"/><stop stop-color="#ffda6a" offset="100%"/></linearGradient></defs><g fill="none"><path d="M135.349 0H29.698c-8.311 0-15.049 5.903-15.049 13.17v96.323c0 2.2 3.053 3.276 4.793 1.699l14.891-13.569a7.55 7.55 0 0 1 5.072-1.856l95.907-.149c7.176 0 13.03-5.096 13.03-11.379v-72.86C148.351 5.105 142.525 0 135.349 0z" fill="url(#a)"/><path d="M68.972 2.711c10.414 5.151 11.82 19.909 9.8 40.727-.307 3.156-28.283 7.425-41.034-2.951-2.066-1.68 2.597-27.037 8.376-34.146 7.139-8.819 16.446-6.823 22.858-3.63z" fill="url(#b)" transform="translate(32.435 5.448)"/><path d="M69.224 2.933c5.435 3.016 8.721 8.502 9.977 14.349a83.96 83.96 0 0 1 1.405 13.143 49.69 49.69 0 0 1-.586 12.595c-.015.052-.062.088-.116.088s-.101-.036-.116-.088a104.32 104.32 0 0 0-1.052-23.603c-.987-6.497-4.048-12.484-9.716-16.243-.214-.167-.028-.371.205-.241z" fill="url(#c)" transform="translate(32.435 5.448)"/><path d="M41.098 13.31A20.055 20.055 0 0 1 55.394.39s.065.065 0 .074C47.8 2.849 43.295 8.158 40.95 15.361c-2.522 7.834-3.853 15.853-5.035 23.937a.149.149 0 0 1-.288 0 96.07 96.07 0 0 1 5.472-25.988z" fill="url(#d)" transform="translate(32.435 5.448)"/><path d="m76.892 81.779-8.376 1.773-2.038-10.572 1.331-9.114.214-1.485 2.168-14.85a36.17 36.17 0 0 1 4.16.473l.81.139" fill="url(#e)" transform="translate(32.435 5.448)"/><path d="m30.665 73.166 9.372 3.907 3.909-10.432.428-1.169.577-1.531 5.23-17.783v-.056l-3.444.111h-.931l-2.848.093s-10.684 4.752-12.657 11.62a129.028 129.028 0 0 1-4.263 12.437l4.653 2.784" fill="url(#f)" transform="translate(32.435 5.448)"/><path d="m32.778 92.211 1.861 11.509H75.98c1.182-11.296 4.374-39.743 3.816-45.405a37.048 37.048 0 0 0-1.433-8.279l-.056-.158a.76.76 0 0 0-.41-.455l-.112-.046h-.102c-.251-.501-2.727-1.049-6.18-1.541l-1.387-.195a179.99 179.99 0 0 0-18.465-1.448h-2.913c-1.247.065-2.02.213-2.131.464a7.23 7.23 0 0 0-1.498.733 8.555 8.555 0 0 0-2.364 2.19l-1.452 1.996c-1.303 1.782-4.384 6.497-7.445 11.286 0 0-3.565 3.713-1.145 29.339" fill="url(#g)" transform="translate(32.435 5.448)"/><path d="M47.315 60.033c.12-2.928.614-5.829 1.47-8.632.614-1.968 1.266-4.028 2.95-5.253l2.541.074.168-2.367.586-8.418.186-2.562 13.169.316-.931 13.755v.316l2.718.325-.186.594a44.61 44.61 0 0 1-4.439 9.838 20.916 20.916 0 0 1-7.725 7.425 9.99 9.99 0 0 1-5.398 1.281 5.584 5.584 0 0 1-4.56-2.868 8.164 8.164 0 0 1-.549-3.824z" fill="url(#h)" transform="translate(32.435 5.448)"/><path d="M86.498 54.779a.35.35 0 0 1 0 .074c13.374-.232 12.443-16.02 12.443-16.02l-11.475 2.051-.586 8.418-.382 5.476z" fill="#a3452f" opacity=".22"/><path d="m44.067 25.218.549-6.423c.121-3.091 1.861-6.228 3.63-8.854a17.006 17.006 0 0 1 4.076-4.362 17.414 17.414 0 0 1 15.775-1.856c6.915 2.729 7.753 9.625 6.012 15.871 4.356-2.265 4.653 3.341 4.653 3.341.316 5.569-5.175 5.69-5.175 5.69a20.41 20.41 0 0 1-5.082 8.725 27.42 27.42 0 0 1-8.795 5.931 11.183 11.183 0 0 1-13.327-4.279 17.67 17.67 0 0 1-2.531-11.825c.093-.603.14-1.309.214-1.958z" fill="url(#i)" transform="translate(32.435 5.448)"/><path d="M76.622 25.404a13.8 13.8 0 0 1-4.03 8.353 13.622 13.622 0 0 1-8.376 3.796c-1.565.127-3.14-.02-4.653-.436v-.056a1.16 1.16 0 0 0-.679-.928 3.62 3.62 0 0 0-.642-.167l-.698-.167a1.23 1.23 0 0 0-1.163.167 1.755 1.755 0 0 0-.484.928 2.95 2.95 0 0 0-.056 1.03 1.02 1.02 0 0 0 .763.845 13.59 13.59 0 0 0 1.359.288c.465.127.961-.038 1.256-.418a1.33 1.33 0 0 0 .223-.835c2.973.763 6.112.574 8.972-.538a14.203 14.203 0 0 0 7.231-6.497 14.35 14.35 0 0 0 1.675-5.355.353.353 0 0 0-.698-.01z" fill="url(#j)" transform="translate(32.435 5.448)"/><path d="M93.078 24.345s-1.322.306-.689 1.466 3.127-.529 5.342 1.466c0 0 .428-3.035-4.653-2.933zm-8.954-.399s1.349.121.931 1.355-3.183-.084-5.091 2.209c-.037 0-.893-2.914 4.16-3.564zm4.244 9.931a3.5 3.5 0 0 0 1.638-.427.352.352 0 1 0-.344-.612 2.8 2.8 0 0 1-1.452.325l1.126-3.36a.354.354 0 0 0-.67-.222l-1.275 3.74a.39.39 0 0 0 0 .288.38.38 0 0 0 .233.176 4.06 4.06 0 0 0 .745.093zm4.654-2.348c0 .854.41 1.55.931 1.55s.866-.715.856-1.578-.41-1.55-.931-1.541-.866.705-.856 1.569zm-8.544.093c0 .863.41 1.559.931 1.55s.866-.705.856-1.569-.41-1.55-.931-1.55-.866.715-.856 1.569z" fill="#45240c"/><path d="M100.942 34.379c.27.928-.819 2.088-2.429 2.552s-3.146.056-3.416-.928.819-2.088 2.429-2.543 3.146-.028 3.416.919zm-17.115.278c-.205.835-1.517 1.234-2.941.882s-2.401-1.299-2.196-2.135 1.517-1.225 2.941-.928 2.438 1.401 2.196 2.181z" opacity=".65" fill="#fa6e64"/><path d="M90.686 36.291a.643.643 0 0 0-.745-.288 4.49 4.49 0 0 1-2.792-.102c-.141-.041-.292-.013-.41.074s-.186.225-.186.371c0 .668.261 1.856 2.029 1.856 2.196.093 2.485-1.244 2.103-1.912z" fill="#fff"/><path d="M44.644 18.777c1.647.594 7.781-1.856 11.336-9.337 0 0-3.667 6.497-4.653 7.24s3.434-1.411 6.394-7.369a7.84 7.84 0 0 0 2.168 4.891 24.56 24.56 0 0 0 5.64 4.158c-1.712-2.45-1.582-3.713-2.159-5.513 0 0 6.831 16.289 15.17 18.981.437.139 2.708-16.892-4.905-24.726C68.656 1.977 59.358.26 55.952 1.467a10 10 0 0 0-7.976 3.462c-3.713 4.13-5.109 13.217-3.332 13.848z" fill="url(#k)" transform="translate(32.435 5.448)"/><path d="M24.746 91.125c-8.907-3.127-19.684-36.8-19.684-36.8-3.425-.473-5.789-5.773-4.858-8.26s4.765-3.351 4.765-3.351c.029-2.454.187-4.904.475-7.342.428-2.979 2.355-2.042 2.41-.743s-.326 8.474-.326 8.474l1.908-7.889c.549-2.014 2.41-1.634 2.252.316s-1.117 8.465-1.117 8.465c3.025 1.569.54 7.063.54 7.063s9.307 15.639 14.407 21.681c1.173 1.374.27.798.847.882l.326-2.942s4.914 3.026 5.407 2.979a180.06 180.06 0 0 0 .717 18.563l-8.069-1.095z" fill="url(#l)" transform="translate(32.435 5.448)"/><path d="M42.504 52.951a.159.159 0 0 0 .14-.176c-.005-.042-.03-.08-.065-.104s-.079-.034-.121-.026a22.19 22.19 0 0 1-4.309.26 1.06 1.06 0 0 1-.866-.928 2.11 2.11 0 0 1 1.489-1.856c1.37-.401 2.8-.558 4.225-.464.043.005.085-.008.118-.036s.05-.069.05-.112-.012-.083-.04-.114-.067-.05-.109-.053c-1.249-.056-2.5.047-3.723.306a2.018 2.018 0 0 0-.726-1.272 1.65 1.65 0 0 0-1.191-.306.157.157 0 0 0 0 .306c.331-.022.659.07.931.26.336.277.553.673.605 1.104l-.344.121a3.06 3.06 0 0 0-1.229.928 3.57 3.57 0 0 0-1.861-2.014.168.168 0 0 0-.214.084c-.018.038-.02.082-.004.121s.048.069.087.084a3.155 3.155 0 0 1 1.712 2.098 1.76 1.76 0 0 0-.214.928c.05.535.417.989.931 1.151h.093c.168.594.437 2.042 0 2.627a.55.55 0 0 1-.53.232c-.27 0-1.238-.381-2.373-3.258a.161.161 0 0 0-.123-.101.16.16 0 0 0-.149.056.158.158 0 0 0-.026.156c.745 1.856 1.61 3.109 2.392 3.397a1.27 1.27 0 0 0 .233.065.85.85 0 0 0 .819-.362l.214.102c.349.13.738.089 1.052-.111.726-.455.875-1.856.754-2.784.549 0 1.089-.111 1.508-.158v1.392a.167.167 0 0 0 .102.158h.056a.168.168 0 0 0 .158-.158v-1.439l.549-.102zm-3.183 2.784a.87.87 0 0 1-.931 0 4.806 4.806 0 0 0-.056-2.46 9.38 9.38 0 0 0 1.601 0c.149.919-.074 2.098-.614 2.432v.028z" fill="#d5734e" opacity=".43"/><path d="M76.325 61.462s.074-1.244 5.714 3.917c6.952 6.358 3.611 41.544 3.611 41.544 2.96 1.782 3.034 7.574 1.219 9.486s-5.696 1.216-5.696 1.216a68.588 68.588 0 0 1-3.332 6.562c-1.564 2.58-2.969.928-2.504-.26s3.63-7.657 3.63-7.657l-4.858 6.497c-1.303 1.624-2.857.566-1.945-1.16s4.356-7.36 4.356-7.36c-2.159-2.617 2.289-6.692 2.289-6.692s-3.583-27.176-6.282-28.772l3.797-17.319z" fill="url(#m)" transform="translate(32.435 5.448)"/><path d="M75.161 48.199s8.097 1.169 10.973 11.37c2.95 10.469 4.923 16.038 4.923 16.038s-9.028 6.497-18.381 5.263c0 0-3.434-18.238-2.41-24.345.903-5.42 1.647-8.223 4.895-8.325z" fill="url(#n)" transform="translate(32.435 5.448)"/><rect fill="url(#o)" transform="matrix(-1 0 0 -1 290.103518 103.877766)" x="127.104" y="44.347" width="35.896" height="15.184" rx="1.903"/><g fill="#fff"><path d="M148.695 49.516h-6.059a.28.28 0 0 1-.284-.12.277.277 0 0 1 0-.307.28.28 0 0 1 .284-.12h6.059a.28.28 0 0 1 .284.12.277.277 0 0 1 0 .307.28.28 0 0 1-.284.12zm6.981 0h-5.398a.28.28 0 0 1-.284-.12.277.277 0 0 1 0-.307.28.28 0 0 1 .284-.12h5.398a.28.28 0 0 1 .284.12.277.277 0 0 1 0 .307.28.28 0 0 1-.284.12zm-7.632 5.384h-5.407a.28.28 0 0 1-.284-.12.277.277 0 0 1 0-.307.28.28 0 0 1 .284-.12h5.407a.28.28 0 0 1 .228.274.28.28 0 0 1-.228.274zm5.109-2.84h-5.407a.28.28 0 0 1-.228-.274.28.28 0 0 1 .228-.274h5.407a.28.28 0 0 1 .284.12.277.277 0 0 1 0 .307.28.28 0 0 1-.284.12zm-6.97 0h-3.546a.28.28 0 0 1-.284-.12.277.277 0 0 1 0-.307.28.28 0 0 1 .284-.12h3.546a.28.28 0 0 1 .284.12.277.277 0 0 1 0 .307.28.28 0 0 1-.284.12zm5.695 2.84H149.7a.28.28 0 0 1-.228-.274.28.28 0 0 1 .228-.274h2.178a.28.28 0 0 1 .284.12.277.277 0 0 1 0 .307.28.28 0 0 1-.284.12zm-13.318-6.432a4.206 4.206 0 0 0-5.311.529 4.18 4.18 0 0 0-.497 5.3 3.07 3.07 0 0 0 1.145 1.142 4.205 4.205 0 0 0 5.192-.602 4.18 4.18 0 0 0 .578-5.18 3.065 3.065 0 0 0-1.108-1.188zm-2.234 6.757c-1.35.06-2.603-.7-3.171-1.923s-.339-2.667.58-3.655a3.34 3.34 0 0 1 3.611-.854 3.323 3.323 0 0 1 2.163 3.007 3.29 3.29 0 0 1-.878 2.372 3.31 3.31 0 0 1-2.305 1.053zm-.186-5.3a.15.15 0 0 0-.109.047.147.147 0 0 0-.04.111l.056 1.94c.018.075.085.128.163.128s.145-.053.163-.128l-.065-1.94a.157.157 0 0 0-.05-.115.16.16 0 0 0-.118-.043z"/><path d="M136.066 51.985a.15.15 0 0 1 .149-.158l1.498-.046a.168.168 0 0 1 .168.149.167.167 0 0 1-.158.167h-1.498a.159.159 0 0 1-.158-.111z"/></g><path d="M9.558 19.797h28.274a2.567 2.567 0 0 1 2.718 2.376v13.05a.51.51 0 0 1-.337.422.513.513 0 0 1-.528-.115l-2.699-2.45a1.34 1.34 0 0 0-.931-.343H9.549a2.213 2.213 0 0 1-2.355-2.051v-8.873a2.213 2.213 0 0 1 2.364-2.014z" fill="url(#p)"/><g fill="#fff"><path d="M25.864 24.772h6.692a.335.335 0 1 0 0-.668h-6.692a.335.335 0 1 0 0 .668zm-4.393 2.116h10.852a.334.334 0 1 0 0-.66H21.471a.334.334 0 0 0 0 .658z"/><path d="M12.276 24.772h12.043a.335.335 0 1 0 0-.668H12.276a.335.335 0 1 0 0 .668zm9.027 2.116h12.099a.335.335 0 0 0 0-.668H21.303a.335.335 0 0 0-.335.334.34.34 0 0 0 .335.334zm-9.027 0h7.194a.334.334 0 1 0 0-.66h-7.194a.334.334 0 1 0 0 .66zm13.597-2.107h7.194a.335.335 0 1 0 0-.668h-7.194a.335.335 0 1 0 0 .668zm-13.597 4.233h11.466a.335.335 0 1 0 0-.668H12.276a.335.335 0 1 0 0 .668z"/></g><path d="M24.161 72.859H1.74A1.646 1.646 0 0 0 0 74.4v8.353a.327.327 0 0 0 .549.195L2.28 81.38a.858.858 0 0 1 .577-.241H24.16a1.422 1.422 0 0 0 1.498-1.318v-5.569a1.41 1.41 0 0 0-.45-1.016 1.416 1.416 0 0 0-1.048-.376z" fill="url(#q)"/><g fill="#fff"><path d="M15.068 76.061h5.082a.223.223 0 0 0 0-.446h-5.082a.223.223 0 0 0 0 .446zM11.745 77.5h8.227a.223.223 0 0 0 0-.446h-8.227a.223.223 0 0 0 0 .446z"/><path d="M4.719 76.061h9.149a.223.223 0 0 0 0-.446H4.719a.223.223 0 0 0 0 .446zm6.887 1.439h9.149c.089.018.18-.019.231-.094s.051-.173 0-.249-.142-.112-.231-.094h-9.149c-.089-.018-.18.019-.231.094s-.051.173 0 .249.142.112.231.094zm-6.887 0h5.491a.223.223 0 0 0 0-.446H4.719a.223.223 0 0 0 0 .446zm10.358-1.439h5.463a.233.233 0 0 0 .251-.214.242.242 0 0 0-.251-.204h-5.463a.25.25 0 0 0-.261.223.242.242 0 0 0 .261.195zM4.719 78.864h8.702a.223.223 0 0 0 0-.446H4.719a.223.223 0 0 0 0 .446z"/></g><g opacity=".45" fill="#c4643b"><path d="M87.894 57.183h.009-.009zm-1.638-.325v.13a.285.285 0 0 0 0-.13zM87.894 57.183zm-1.657-.195v.009h.009z"/><path d="M85.055 57.081zm-.093 0v.065c0 .065 0 0 0 0v-.065.065c0-.046 0-.084 0 0s0-.074 0 0h.065s.056 0 .074.074.056-.074.074 0 0-.093 0 0 .074 0 .084.074v-.065a.47.47 0 0 0 0 .121v-.074.056-.065.158s0 .065 0 0a.4.4 0 0 1 0-.046h.065a.21.21 0 0 1 0-.111v.074-.084a.196.196 0 0 1 0 .102s0 .074 0 0h.056c.056 0 0 0 0-.102s0 .074.047.074 0-.056 0-.093v.093c0 .037 0 0 .056 0v-.065.056c0-.084.056.186.093.065v-.056.084c0-.102.047 0 .065 0 0 .176.065 0 .084.102v-.056c0-.056.093.065.149.102s0-.214 0-.111v.074c0-.084.074 0 .112-.074 0 .056 0 0 0 0v.065c0 .065 0-.065 0 0v-.056c0-.056 0 0 0 0v-.065c0 .093 0 .074 0 0a.184.184 0 0 1 0 .074v-.074.056a.41.41 0 0 1 .093-.111v.111s0-.121.065-.102 0 0 0 .056.047 0 .065 0a1.39 1.39 0 0 1 0-.158v.176-.056.056-.121s0-.102.056-.065 0 0 0 .093v-.056s0-.056 0 0v-.065.084-.074s0-.074 0 0v.065c0 .065 0-.074.074-.065 0-.084 0 0 0 0h.14v.056s0-.046 0 0v-.056c0-.056 0 0 0 0h.056v.102-.046h-.056s0-.056 0 0v-.056c0-.065 0 .111-.056 0v.074a.362.362 0 0 1 0-.093v.056a.108.108 0 0 1 0 .093.177.177 0 0 1 0-.102v-.056.056-.056a.095.095 0 0 1 0-.074.413.413 0 0 1 0 .111v-.065.065a.236.236 0 0 0 0-.065v.093c0 .028 0 0 0 0s0-.065 0 0v-.084c0 .046 0-.056 0 0V57.388c0 .065 0 0 0 0v-.121c0-.056 0 .065-.056 0a.237.237 0 0 0 0-.084v.084-.056.102-.111c0-.037 0 0 0 0s0 .056 0 0a.175.175 0 0 1 0 .056.5.5 0 0 0 0 .074c0-.13-.047 0-.056-.111l.307-.139v-.13c0-.056 0 .056 0 0a.193.193 0 0 1 0 .121.29.29 0 0 0 0-.093v.111-.121c0-.074 0 0 0 0v.093c0 .093 0 0 0 0v-.093a.5.5 0 0 1 0 .102.807.807 0 0 1 0-.139s0 .111-.047.111v-.186c0 .065 0 0-.074 0s0 0 0 .149v-.242.121c0 .074 0-.121 0 0l-.056.111c-.056.111 0-.056 0-.065s-.065.111-.084 0 0 .065 0 0 0 .056 0 0 0 .093-.074.111 0-.13 0-.149l-.084.111c-.028.037-.056 0-.074-.093a.23.23 0 0 1 0 .074s0 .065 0 0v-.056.102c0-.149-.074.056-.074-.084v.056-.056.158-.074s0-.065-.065 0c0-.065 0 0 0 0a.362.362 0 0 1 0 .093s0 .056 0 0c0 0 0 .056 0 0a.48.48 0 0 1 0-.093s0 .093-.056.074a.143.143 0 0 0 0 .065v.065-.111c0-.028-.047 0-.065.074 0-.056-.074.102-.102 0h-1.005.047v.056c0 .056 0 0 0 0l.158-.176zm.298-.176h-.009l.009.009v-.009zm2.234.204v.009z"/><path d="M85.614 57.313v-.009.009zm2.122-.093v-.009zm.121-.027zm-.075-.065s.019.009 0 0zm-.046-.047zm-.419.195.009.019.009-.037zm-.028-.297v-.009l-.009.009zm-.577-.065v.074s.009-.093 0-.074zm-.242.056s0-.065 0 0-.009.009 0 0zm-.735-.149.009-.019-.009.019zm9.762.91.009-.009h-.009zm-3.155-.501v.009zM93.887 57.267v.139a.63.63 0 0 0 0-.139zm1.61.464zm-1.628-.324v.009zm-1.192.027zM95.497 57.722v.009-.009zm-2.913-.297v-.046.046h.047v.056c0 .056 0 0 0 0v-.056.065c0-.046 0-.074 0 0s0-.065 0 0h.065s.056 0 .074.065v-.046.046c0 .046.065-.074.074 0v-.046s.074 0 .074.084v-.065a.47.47 0 0 0 0 .121v-.074.056-.056.13c0-.065 0 .065 0 0h.065c.019 0 0-.102 0-.111v.074-.084.158s0 .074 0 0h.056c.056 0 0 0 0-.093v.074-.084.093a.178.178 0 0 0 .065 0v-.056.056c0-.074 0 .186.084.065v-.056.074c0 .074 0 0 .074 0 0 .176.056 0 .065.111a.106.106 0 0 1 0-.056c.056 0 .093.074.14.111s0-.204 0-.102v.074c0-.093.074 0 .121-.065 0 .056 0 0 0 0a.353.353 0 0 0 0 .065s0-.074 0 0v-.065c0 .102 0 .084 0 0v.074-.074.056a.52.52 0 0 1 .102-.102v.111s.056-.121.084-.102a.106.106 0 0 1 0 .056h.074v-.158.176-.056.056-.065.056-.065s0-.093.065-.056 0 0 0 .093 0-.046 0 0v-.065.084-.074.056s0-.074 0 0h.056c.056 0 0 0 0 .065s.056-.074.084-.065c0-.074 0 0 0 0h.14c0-.056 0 0 0 0h.056v.102-.056h-.056v-.056c0-.074 0 .102-.056 0v.074a.362.362 0 0 1 0-.093v.149a.196.196 0 0 1 0-.102v-.056.046-.176.111c0 .037 0 0 0 0v-.074.065-.056a.75.75 0 0 1 0 .084s0-.074 0 0v-.084s0-.056 0 0a.26.26 0 0 1 0 .084v.065a.143.143 0 0 0 0 .065c0-.074 0 0 0 0v-.121c0-.065 0 .056-.056 0v-.084.074-.056s0 .121-.047.102 0-.074 0-.111v.056a.12.12 0 0 0 0 .074v-.111.074-.139c0-.056 0 .046 0 0a.36.36 0 0 1-.056.121.29.29 0 0 0 0-.093v.111a.52.52 0 0 1 0-.121c0-.074 0 0 0 0s0 .102-.056.093c0 .084 0-.056 0 0v-.093a.56.56 0 0 1-.056.102.697.697 0 0 1 .056-.139v.093-.186c0 .065 0 0-.074 0s0 0 0 .149V57.534c0-.037 0 .065 0 0v.065c0 .074 0-.121 0 0s-.047 0-.074.111a.13.13 0 0 1 0-.065s-.074.111-.084 0 0 .056 0 0 0 .056 0 0-.056.084-.084.102 0-.13 0-.139l-.093.111c-.028.037-.047 0-.065-.102a.23.23 0 0 1 0 .074s0 .056 0 0v-.065.111c0-.158-.084 0-.074-.093s0 .149-.056.149v-.074s0-.065-.065 0c0-.065 0 0 0 0v-.046.093s0 .056 0 0v-.093c0-.046 0 .084-.056.074v.121-.111c0-.028 0 0-.065.074h-.047c-.047 0 0 0 0 0 0-.065-.074.084-.102 0h-.14c-.037 0 0 0 0 0h-.056v.056c0 .056 0 0 0 0l-.205-.464zM92.891 57.239v.018-.019zm2.215.381v.009zm-1.889.065v-.019.009zm2.122.065v-.009zm-.735.102zm.223-.121s0 .028 0 0zm-.018.019zm.651-.019zm-.074-.065zm-.047-.018zm-.419.121v.028l.009-.037zm-.009-.297v-.009l-.009.019zm-.568-.103v.065s.009-.084 0-.065zm-.968-.167.009-.019-.019.009z"/></g></g></svg>